#N canvas 0 23 1290 855 12;
#X obj 375 304 >= 1;
#X obj 496 284 pow 1.5;
#X obj 496 329 /;
#X msg 496 307 1 \$1;
#X obj 375 261 t f f f;
#X obj 403 383 f;
#X text 533 406 0.5 = (0.707107 * (sin(0.785398));
#X obj 479 425 * 0.5;
#X text 531 425 0.5 = (0.707107 * (cos(0.785398));
#X obj 375 328 sel 0 1;
#X obj 415 661 * 2;
#X obj 475 662 * 2;
#X obj 375 473 * 0.785398;
#X obj 375 383 f;
#X obj 375 506 cos;
#X obj 495 506 sin;
#X obj 375 528 * 0.707107;
#X obj 495 528 * 0.707107;
#X text 349 685 order 0;
#X text 519 688 order >=1;
#X obj 294 167 inlet;
#X obj 398 198 f \$1;
#X obj 375 13 loadbang;
#X msg 375 168 1;
#X obj 375 72 pdcontrol;
#X msg 375 47 args 0;
#X obj 375 96 list length;
#X obj 375 120 == 0;
#X obj 375 144 sel 1 0;
#X obj 375 235 f;
#X floatatom 405 236 5 0 0 0 - - -;
#X obj 415 728 outlet;
#X obj 465 728 outlet;
#X text 817 266 https://github.com/supercollider/sc3-plugins/blob/master/source/JoshUGens/JoshAmbiUGens.cpp
;
#X text 816 99 ambisonics rho amplitude compensation;
#X text 816 139 ==1 full directionality;
#X text 816 124 < 1 less directionality;
#X text 816 154 >1 full directionality \, decrasing amplitude;
#X text 817 206 José Henrique Padovani \, 2020;
#X connect 0 0 9 0;
#X connect 1 0 3 0;
#X connect 2 0 5 1;
#X connect 3 0 2 0;
#X connect 4 0 0 0;
#X connect 4 1 13 1;
#X connect 4 2 1 0;
#X connect 5 0 7 0;
#X connect 7 0 11 0;
#X connect 7 0 10 0;
#X connect 9 0 13 0;
#X connect 9 1 5 0;
#X connect 10 0 31 0;
#X connect 11 0 32 0;
#X connect 12 0 14 0;
#X connect 12 0 15 0;
#X connect 13 0 12 0;
#X connect 14 0 16 0;
#X connect 15 0 17 0;
#X connect 16 0 10 0;
#X connect 17 0 11 0;
#X connect 20 0 29 0;
#X connect 21 0 29 0;
#X connect 22 0 25 0;
#X connect 23 0 29 0;
#X connect 24 0 26 0;
#X connect 25 0 24 0;
#X connect 26 0 27 0;
#X connect 27 0 28 0;
#X connect 28 0 23 0;
#X connect 28 1 21 0;
#X connect 29 0 4 0;
