#N canvas 890 145 450 710 12;
#X obj 205 89 inlet~;
#X obj 134 156 threshold~;
#X obj 125 252 clip~ 0 1;
#X obj 205 365 snapshot~;
#X msg 68 304 1;
#X obj 69 332 metro 100;
#X obj 237 185 sig~, f 6;
#X obj 226 294 max~ 1;
#X floatatom 252 150 5 0 0 0 - - -;
#X floatatom 210 401 5 0 0 0 - - -;
#X obj 61 481 *~;
#X obj 124 278 max~ 1;
#X obj 227 318 -~ 1;
#X obj 289 336 clip~ 0 1;
#X obj 289 312 *~ 1e+16;
#X obj 93 449 line~;
#X obj 267 453 line~;
#X connect 2 0 11 0;
#X connect 3 0 9 0;
#X connect 4 0 5 0;
#X connect 5 0 3 0;
#X connect 6 0 2 0;
#X connect 6 0 7 0;
#X connect 7 0 12 0;
#X connect 8 0 6 0;
#X connect 11 0 3 0;
#X connect 12 0 14 0;
#X connect 13 0 3 0;
#X connect 14 0 13 0;
