#N canvas 0 23 1063 772 12;
#X obj 0 0 cnv 15 58 132 empty empty empty 20 12 0 14 -257983 -66577
0;
#X obj 3 3 vsl 25 101 0 100 0 0 empty empty empty 0 -9 0 10 -262144
-1 -1 0 1;
#X obj 335 593 dbtorms;
#X floatatom 1 112 5 0 0 1 dB - -;
#X msg 29 87 set \$1;
#X obj 336 471 line;
#X obj 335 620 pack 0 150;
#X obj 335 644 line~;
#X obj 334 496 clip 0 121;
#X msg 259 358 set \$1, f 7;
#X obj 336 366 pack 0 150;
#X msg 591 302 set \$1;
#X obj 228 333 t b f;
#X msg 228 384 addcomma;
#X obj 336 389 t b l;
#X msg 354 417 add \$1 \$2;
#X msg 336 444 0 \,;
#X obj 228 311 f;
#X obj 185 311 t f b;
#X floatatom 288 249 5 0 0 0 - - -;
#X floatatom 334 525 5 0 0 0 - - -;
#X floatatom 335 552 5 0 0 0 - - -;
#X obj 288 296 line;
#X msg 288 271 \$1 10;
#X text 158 471 fader automation;
#X obj 403 338 r \$1;
#X obj 402 597 r \$1;
#X obj 280 471 r \$2;
#X obj 335 669 outlet~;
#X obj 485 435 loadbang;
#X msg 485 459;
#X connect 1 0 4 0;
#X connect 1 0 17 0;
#X connect 1 0 19 0;
#X connect 2 0 6 0;
#X connect 3 0 18 0;
#X connect 4 0 3 0;
#X connect 5 0 8 0;
#X connect 6 0 7 0;
#X connect 7 0 28 0;
#X connect 8 0 20 0;
#X connect 8 0 11 0;
#X connect 8 0 17 1;
#X connect 9 0 16 0;
#X connect 10 0 14 0;
#X connect 11 0 1 0;
#X connect 11 0 3 0;
#X connect 12 0 13 0;
#X connect 12 1 9 0;
#X connect 13 0 16 0;
#X connect 14 0 16 0;
#X connect 14 1 15 0;
#X connect 15 0 16 0;
#X connect 16 0 5 0;
#X connect 17 0 12 0;
#X connect 18 0 10 0;
#X connect 18 1 17 0;
#X connect 19 0 23 0;
#X connect 20 0 21 0;
#X connect 21 0 2 0;
#X connect 22 0 21 0;
#X connect 23 0 22 0;
#X connect 25 0 10 1;
#X connect 26 0 6 1;
#X connect 27 0 10 0;
#X connect 29 0 30 0;
#X connect 30 0 16 0;
#X coords 0 -1 1 1 58 132 2 0 0;
