#N canvas 0 23 897 631 12;
#X obj 205 292 metro;
#X msg 232 160 1000 \$1;
#X obj 232 184 /;
#X floatatom 252 237 5 0 0 0 - - -;
#X floatatom 185 156 5 0 0 0 - - -;
#X text 463 36 0 order;
#X obj 258 293 random;
#X obj 377 234 *;
#X obj 258 317 -;
#X obj 293 236 + 1;
#X obj 232 213 f;
#X obj 322 158 clip 0 1;
#X obj 90 49 inlet;
#X obj 200 254 tgl 15 0 empty empty empty 17 7 0 10 -262144 -1 -1 0
1;
#X obj 247 268 +;
#X obj 337 213 f;
#X obj 322 182 t b f;
#X obj 222 134 f \$1;
#X obj 231 109 loadbang;
#X obj 214 54 inlet;
#X obj 324 53 inlet;
#X obj 343 116 f \$1;
#X obj 352 91 loadbang;
#X obj 205 362 outlet;
#X text 463 52 1 chaos;
#X text 331 391 José Henrique Padovani;
#X obj 361 273 / 2;
#X obj 272 361 outlet;
#X connect 0 0 6 0;
#X connect 0 0 23 0;
#X connect 1 0 2 0;
#X connect 2 0 10 0;
#X connect 3 0 9 0;
#X connect 3 0 14 1;
#X connect 4 0 1 0;
#X connect 6 0 8 0;
#X connect 7 0 6 1;
#X connect 7 0 26 0;
#X connect 8 0 14 0;
#X connect 9 0 15 0;
#X connect 10 0 3 0;
#X connect 10 0 0 1;
#X connect 10 0 27 0;
#X connect 11 0 16 0;
#X connect 12 0 13 0;
#X connect 13 0 0 0;
#X connect 14 0 0 1;
#X connect 14 0 27 0;
#X connect 15 0 7 0;
#X connect 16 0 15 0;
#X connect 16 1 7 1;
#X connect 17 0 1 0;
#X connect 18 0 17 0;
#X connect 19 0 17 0;
#X connect 20 0 11 0;
#X connect 21 0 11 0;
#X connect 22 0 21 0;
#X connect 26 0 8 1;
