#N canvas 294 282 977 596 12;
#X obj 274 344 qlist;
#X obj 274 323 bng 15 250 50 0 empty empty empty 17 7 0 10 -262144
-1 -1;
#X floatatom 367 118 5 0 0 0 - - -;
#X symbolatom 367 165 20 0 0 0 - - -;
#X msg 367 206 set read \$1;
#X msg 485 205 set write \$1;
#X obj 368 92 f \$1;
#X obj 344 42 loadbang;
#X obj 220 344 sel \$1;
#X msg 317 369;
#X msg 410 93 set;
#X obj 344 66 t b b b;
#X obj 356 276 r \$3;
#X text 391 278 receiver to reload all events;
#X msg 485 231 write ../eval/eval_-01.txt;
#X text 590 207 does not bang (is just to use manually);
#X obj 93 284 r \$2;
#X text 138 286 event receiver;
#X obj 181 229 inlet;
#X msg 305 302 read ../eval/eval_-01.txt;
#X obj 367 141 makefilename ../eval/eval_%03d.txt;
#X obj 403 372 outlet;
#X obj 176 368 outlet;
#X connect 1 0 0 0;
#X connect 2 0 20 0;
#X connect 3 0 4 0;
#X connect 3 0 5 0;
#X connect 4 0 19 0;
#X connect 5 0 14 0;
#X connect 6 0 2 0;
#X connect 7 0 11 0;
#X connect 8 0 0 0;
#X connect 8 0 21 0;
#X connect 9 0 0 0;
#X connect 10 0 14 0;
#X connect 10 0 19 0;
#X connect 11 0 19 0;
#X connect 11 1 6 0;
#X connect 11 2 10 0;
#X connect 12 0 19 0;
#X connect 14 0 0 0;
#X connect 16 0 8 0;
#X connect 18 0 1 0;
#X connect 19 0 0 0;
#X connect 20 0 3 0;
