#N canvas 0 23 1232 736 12;
#X text 695 185 1: num;
#X text 695 199 2: \$0;
#X text 695 214 3: sufixo;
#X text 695 234 4: buffer;
#X text 695 255 5: numelementos;
#X text 695 275 6: catch_tag;
#X obj 727 433 s bufgrain;
#X msg 733 377 1 tmin 3;
#X msg 743 398 1 tmax 434;
#X floatatom 637 699 5 0 0 0 - - -;
#X obj 900 554 loadbang;
#X obj 940 478 f;
#X obj 940 454 samplerate~;
#X obj 922 420 bng 15 250 50 0 empty empty empty 17 7 0 10 -262144
-1 -1;
#X obj 960 333 loadbang;
#X obj 940 512 s \$0_srate;
#X msg 900 576 type 4;
#X obj 970 488 / 1000;
#X text 1031 559 currently hardcoded to 1024;
#X obj 900 599 win_maker hann 1024 \$0hannW;
#X obj 988 356;
#X floatatom 1048 490 5 0 0 0 - - -;
#X obj 1030 512 v \$0_srate;
#X msg 26 24 onoff \$1;
#X obj 6 25 tgl 15 0 empty empty empty 17 7 0 10 -262144 -1 -1 0 1
;
#X msg 196 100 dustchaos \$1 30;
#X msg 149 99 1;
#X msg 149 123 0.5;
#X msg 149 147 0;
#X msg 79 56 1;
#X obj 234 124 hsl 128 8 0 60000 0 0 empty empty empty -2 -8 0 10 -262144
-1 -1 0 1;
#X obj 234 134 hsl 128 8 0 60000 0 0 empty empty empty -2 -8 0 10 -262144
-1 -1 0 1;
#X floatatom 368 115 8 0 0 0 - - -;
#X floatatom 368 135 8 0 0 0 - - -;
#X msg 239 175 tpmax \$1;
#X msg 229 153 tpmin \$1;
#X obj 264 204 hsl 128 8 20 2000 0 0 empty empty empty -2 -8 0 10 -262144
-1 -1 0 1;
#X obj 264 214 hsl 128 8 20 2500 0 0 empty empty empty -2 -8 0 10 -262144
-1 -1 0 1;
#X floatatom 398 195 8 0 0 0 - - -;
#X floatatom 398 215 8 0 0 0 - - -;
#X msg 259 233 durmin \$1;
#X msg 269 255 durmax \$1;
#X msg 79 79 16;
#X msg 79 103 150;
#X msg 126 57 dustfreq \$1 3000;
#X msg 653 670 0.4 2;
#X msg 289 293 ratemin \$1 2000;
#X msg 299 315 ratemax \$1 2000;
#X msg 416 291 1;
#X msg 416 315 1;
#X msg 447 291 0.99;
#X msg 447 314 1.01;
#X msg 499 313 1.5;
#X msg 497 292 0.666;
#X msg 309 403 azimin \$1 2000;
#X msg 436 381 -1;
#X msg 598 381 0;
#X msg 508 421 0.2;
#X msg 548 421 0.04;
#X msg 608 421 0;
#X msg 467 381 -0.5;
#X msg 498 381 -0.2;
#X msg 538 381 -0.04;
#X msg 446 421 1;
#X msg 319 442 azimax \$1 2000;
#X msg 477 421 -0.5;
#X msg 460 471 30;
#X msg 520 471 2000;
#X msg 319 472 azirampdur \$1 100;
#X msg 470 601 30;
#X msg 530 601 2000;
#X msg 319 533 rhomin \$1 2000;
#X msg 329 571 rhomax \$1 2000;
#X msg 329 602 rhorampdur \$1 100;
#X msg 446 511 0;
#X msg 477 511 0.2;
#X msg 508 511 0.5;
#X msg 548 511 1;
#X msg 608 511 1.5;
#X msg 456 551 0.9;
#X msg 487 551 1;
#X msg 518 551 1.5;
#X msg 557 551 4;
#X msg 618 551 9;
#X msg 416 670 dbamp 0 5000;
#X obj 154 701 hoa.3o.bufgrain~ 1 \$0 bufgrain \$0_flutebuff 50 bg
\$0hannW;
#X msg 429 648 dbamp 100 5000;
#X connect 7 0 6 0;
#X connect 8 0 6 0;
#X connect 10 0 16 0;
#X connect 11 0 17 0;
#X connect 12 0 11 0;
#X connect 13 0 12 0;
#X connect 13 0 16 0;
#X connect 14 0 13 0;
#X connect 16 0 19 0;
#X connect 17 0 15 0;
#X connect 17 0 21 0;
#X connect 17 0 22 0;
#X connect 23 0 85 0;
#X connect 24 0 23 0;
#X connect 25 0 85 0;
#X connect 26 0 25 0;
#X connect 27 0 25 0;
#X connect 28 0 25 0;
#X connect 29 0 44 0;
#X connect 30 0 35 0;
#X connect 30 0 32 0;
#X connect 31 0 34 0;
#X connect 31 0 33 0;
#X connect 34 0 85 0;
#X connect 35 0 85 0;
#X connect 36 0 40 0;
#X connect 36 0 38 0;
#X connect 37 0 41 0;
#X connect 37 0 39 0;
#X connect 40 0 85 0;
#X connect 41 0 85 0;
#X connect 42 0 44 0;
#X connect 43 0 44 0;
#X connect 44 0 85 0;
#X connect 45 0 85 1;
#X connect 46 0 85 0;
#X connect 47 0 85 0;
#X connect 48 0 46 0;
#X connect 49 0 47 0;
#X connect 50 0 46 0;
#X connect 51 0 47 0;
#X connect 52 0 47 0;
#X connect 53 0 46 0;
#X connect 54 0 85 0;
#X connect 55 0 54 0;
#X connect 56 0 54 0;
#X connect 57 0 64 0;
#X connect 58 0 64 0;
#X connect 59 0 64 0;
#X connect 60 0 54 0;
#X connect 61 0 54 0;
#X connect 62 0 54 0;
#X connect 63 0 64 0;
#X connect 64 0 85 0;
#X connect 65 0 64 0;
#X connect 66 0 68 0;
#X connect 67 0 68 0;
#X connect 68 0 85 0;
#X connect 69 0 73 0;
#X connect 70 0 73 0;
#X connect 71 0 85 0;
#X connect 72 0 85 0;
#X connect 73 0 85 0;
#X connect 74 0 71 0;
#X connect 75 0 71 0;
#X connect 76 0 71 0;
#X connect 77 0 71 0;
#X connect 78 0 71 0;
#X connect 79 0 72 0;
#X connect 80 0 72 0;
#X connect 81 0 72 0;
#X connect 82 0 72 0;
#X connect 83 0 72 0;
#X connect 84 0 85 0;
#X connect 86 0 85 0;
