#N canvas 442 27 1440 855 12;
#X text 1181 517 \$1 buf;
#X text 314 345 0 order;
#X text 313 360 1 dust;
#X text 1181 537 \$2 maxgrains;
#X floatatom 507 513 5 0 0 0 - - -;
#X obj 731 366 +;
#X text 743 456 normalization based on freq and gr dur;
#X obj 508 466 f;
#X obj 636 398 t b f;
#X msg 508 543 \$1 50;
#X obj 194 415 bng 15 250 50 0 empty empty empty 17 7 0 10 -262144
-1 -1;
#X msg 215 620 next bang;
#X text 1075 55 1: num;
#X text 1075 69 2: \$0;
#X text 1075 84 3: sufixo;
#X text 1075 104 4: buffer;
#X text 1075 125 5: numelementos;
#X text 1075 145 6: catch_tag;
#X obj 164 0 r \$3;
#X obj 217 3 route \$1;
#X text 1075 165 \$7 hann window;
#X text 1111 752 currently hardcoded to 1024;
#X obj 221 699 clone onegrain \$5 \$0 \$4 \$6 \$2 \$7;
#X obj 505 609 line~;
#X msg 671 361 \$1;
#X obj 236 134 line;
#X obj 272 134 line;
#X obj 306 134 line;
#X obj 342 134 line;
#X obj 376 134 line;
#X obj 412 134 line;
#X obj 506 134 line;
#X obj 542 134 line;
#X obj 577 134 line;
#X obj 613 134 line;
#X obj 707 134 line;
#X obj 753 134 line;
#X obj 342 208 s \$0_tpmax;
#X obj 306 232 s \$0_tpmin;
#X obj 376 182 s \$0_durmin;
#X obj 412 158 s \$0_durmax;
#X obj 506 232 s \$0_ratemin;
#X obj 542 208 s \$0_ratemax;
#X obj 577 182 s \$0_azimin;
#X obj 613 158 s \$0_azimax;
#X obj 707 182 s \$0_rhomin;
#X obj 753 158 s \$0_rhomax;
#X obj 790 135 s \$0_dusmetro;
#X obj 563 667 *~;
#X obj 651 592 loadbang;
#X obj 956 729 env~;
#X floatatom 956 753 5 0 0 0 - - -;
#X obj 109 83 inlet;
#X obj 962 86 tgl 15 0 empty empty empty 17 7 0 10 -262144 -1 -1 0
1;
#X obj 175 281 r \$0_dusmetro;
#X floatatom 262 167 5 0 0 0 - - -;
#X obj 220 436 timer;
#X obj 219 414 t b b;
#X floatatom 220 460 5 0 0 0 - - -;
#X obj 272 443 ls.group 20;
#X obj 272 467 ls.mean;
#X floatatom 272 491 5 0 0 0 - - -;
#X obj 175 358 dustmetro 1000 0.9;
#X obj 151 158 s \$0_dustfreq;
#X obj 236 304 r \$0_dustfreq;
#X obj 475 395 r \$0_dustfreq;
#X obj 688 303 r \$0_durmin;
#X obj 780 304 r \$0_durmax;
#X obj 688 327 f;
#X obj 780 328 t b f;
#X obj 201 197 s \$0_dustchaos;
#X obj 298 328 r \$0_dustchaos;
#X obj 850 498 f \$5;
#X obj 894 498 loadbang;
#X obj 894 522 bng 15 250 50 0 empty empty empty 17 7 0 10 -262144
-1 -1;
#X floatatom 820 551 5 0 0 0 - - -;
#X floatatom 817 597 5 0 0 0 - - -;
#X obj 802 575 expr $f1/50;
#X obj 731 388 / 4, f 4;
#X obj 508 489 expr min(1/(min($f1*$f2/2000 \, $f3)) \, 0.98);
#X obj 673 224 line;
#X obj 673 248 s \$0_azirampdur;
#X obj 833 223 line;
#X obj 833 247 s \$0_rhorampdur;
#X obj 694 669 line;
#X obj 694 692 dbtorms;
#X obj 909 105 s \$0_dbamp;
#X obj 694 636 r \$0_dbamp;
#X floatatom 749 657 5 0 0 0 - - -;
#X msg 631 633 100 10;
#X obj 953 777 outlet;
#X obj 1002 95 switch~;
#X floatatom 181 98 5 0 0 0 - - -;
#X obj 312 15 route dustfreq dustchaos tpmin tpmax durmin durmax ratemin
ratemax azimin azimax azirampdur rhomin rhomax rhorampdur switch dbamp
ampdb amp reset, f 83;
#X msg 913 49 0, f 7;
#X obj 1009 23 del;
#X msg 1009 47 0;
#X obj 1093 24 loadbang;
#X obj 54 775 outlet;
#X obj 104 774 outlet;
#X obj 104 751 f \$1;
#X obj 104 729 loadbang;
#X obj 348 776 outlet;
#X obj 397 776 outlet;
#X obj 448 776 outlet;
#X obj 497 776 outlet;
#X obj 546 776 outlet;
#X obj 595 776 outlet;
#X obj 646 776 outlet;
#X obj 695 776 outlet;
#X obj 746 776 outlet;
#X obj 795 776 outlet;
#X obj 846 776 outlet;
#X obj 895 776 outlet;
#X obj 167 775 outlet;
#X obj 167 730 loadbang;
#X obj 167 752 f \$5;
#X obj 237 730 loadbang;
#X obj 237 752 symbol \$4;
#X connect 4 0 9 0;
#X connect 5 0 78 0;
#X connect 7 0 79 0;
#X connect 8 0 7 0;
#X connect 8 1 79 1;
#X connect 9 0 23 0;
#X connect 10 0 57 0;
#X connect 11 0 22 0;
#X connect 18 0 19 0;
#X connect 19 0 93 0;
#X connect 22 0 50 0;
#X connect 23 0 48 0;
#X connect 24 0 8 0;
#X connect 25 0 63 0;
#X connect 25 0 102 0;
#X connect 26 0 55 0;
#X connect 26 0 70 0;
#X connect 26 0 103 0;
#X connect 27 0 38 0;
#X connect 27 0 104 0;
#X connect 28 0 37 0;
#X connect 28 0 105 0;
#X connect 29 0 39 0;
#X connect 29 0 106 0;
#X connect 30 0 40 0;
#X connect 30 0 107 0;
#X connect 31 0 41 0;
#X connect 31 0 108 0;
#X connect 32 0 42 0;
#X connect 32 0 109 0;
#X connect 33 0 43 0;
#X connect 33 0 110 0;
#X connect 34 0 44 0;
#X connect 34 0 111 0;
#X connect 35 0 45 0;
#X connect 35 0 112 0;
#X connect 36 0 46 0;
#X connect 36 0 113 0;
#X connect 48 0 22 1;
#X connect 49 0 89 0;
#X connect 50 0 51 0;
#X connect 51 0 90 0;
#X connect 52 0 93 0;
#X connect 53 0 91 0;
#X connect 53 0 98 0;
#X connect 54 0 62 0;
#X connect 56 0 58 0;
#X connect 56 0 59 0;
#X connect 57 0 56 0;
#X connect 57 1 56 1;
#X connect 59 0 60 0;
#X connect 60 0 61 0;
#X connect 62 0 11 0;
#X connect 62 0 10 0;
#X connect 62 1 95 1;
#X connect 64 0 62 1;
#X connect 65 0 7 0;
#X connect 66 0 68 0;
#X connect 67 0 69 0;
#X connect 68 0 5 0;
#X connect 69 0 68 0;
#X connect 69 1 5 1;
#X connect 71 0 62 2;
#X connect 72 0 79 2;
#X connect 73 0 74 0;
#X connect 74 0 72 0;
#X connect 75 0 77 0;
#X connect 77 0 76 0;
#X connect 78 0 24 0;
#X connect 79 0 4 0;
#X connect 80 0 81 0;
#X connect 82 0 83 0;
#X connect 84 0 85 0;
#X connect 84 0 88 0;
#X connect 85 0 48 1;
#X connect 87 0 84 0;
#X connect 89 0 84 0;
#X connect 93 0 25 0;
#X connect 93 0 92 0;
#X connect 93 1 26 0;
#X connect 93 2 27 0;
#X connect 93 3 28 0;
#X connect 93 4 29 0;
#X connect 93 5 30 0;
#X connect 93 6 31 0;
#X connect 93 7 32 0;
#X connect 93 8 33 0;
#X connect 93 9 34 0;
#X connect 93 10 80 0;
#X connect 93 11 35 0;
#X connect 93 12 36 0;
#X connect 93 13 82 0;
#X connect 93 14 47 0;
#X connect 93 14 53 0;
#X connect 93 15 86 0;
#X connect 93 16 86 0;
#X connect 93 17 86 0;
#X connect 93 18 94 0;
#X connect 93 18 95 0;
#X connect 94 0 47 0;
#X connect 95 0 96 0;
#X connect 96 0 53 0;
#X connect 97 0 96 0;
#X connect 100 0 99 0;
#X connect 101 0 100 0;
#X connect 115 0 116 0;
#X connect 116 0 114 0;
#X connect 117 0 118 0;
