#N canvas 613 224 733 592 12;
#X declare -lib ceammc;
#X obj 298 69 ambirho;
#X obj 51 -3 inlet~;
#X obj 51 232 *~;
#X obj 171 232 *~;
#X obj 201 232 *~;
#X obj 231 232 *~;
#X obj 261 232 *~;
#X obj 291 232 *~;
#X obj 321 232 *~;
#X obj 373 138 line~;
#X obj 303 138 line~;
#X obj 131 22 line~;
#X obj 131 -3 inlet;
#X obj 131 46 *~ 3.14159;
#X obj 270 -5 inlet;
#X obj 270 27 unpack 0 0;
#X obj 51 259 outlet~;
#X obj 107 259 outlet~;
#X obj 163 259 outlet~;
#X obj 220 259 outlet~;
#X obj 277 259 outlet~;
#X obj 333 259 outlet~;
#X obj 390 259 outlet~;
#X obj 527 444 line;
#X obj 564 445 line;
#X obj 514 489 outlet;
#X obj 564 489 outlet;
#X obj 469 18 declare -lib ceammc;
#X obj 51 98 hoa.encoder~ 3, f 27;
#X text 62 22 insig;
#X text 175 -3 azi;
#X text 318 -3 rho;
#X obj 74 350 throw~ \$1_0;
#X obj 84 374 throw~ \$1_1;
#X obj 104 400 throw~ \$1_2;
#X obj 114 424 throw~ \$1_3;
#X obj 124 450 throw~ \$1_4;
#X obj 134 474 throw~ \$1_5;
#X obj 145 497 throw~ \$1_6;
#X obj 303 114 pack 0 0;
#X obj 373 114 pack 0 0;
#X obj 50 60 hip~ 5;
#X connect 0 0 39 0;
#X connect 0 1 40 0;
#X connect 1 0 41 0;
#X connect 2 0 16 0;
#X connect 2 0 32 0;
#X connect 3 0 33 0;
#X connect 3 0 17 0;
#X connect 4 0 34 0;
#X connect 4 0 18 0;
#X connect 5 0 35 0;
#X connect 5 0 19 0;
#X connect 6 0 36 0;
#X connect 6 0 20 0;
#X connect 7 0 37 0;
#X connect 7 0 21 0;
#X connect 8 0 38 0;
#X connect 8 0 22 0;
#X connect 9 0 3 1;
#X connect 9 0 4 1;
#X connect 9 0 5 1;
#X connect 9 0 6 1;
#X connect 9 0 7 1;
#X connect 9 0 8 1;
#X connect 10 0 2 1;
#X connect 11 0 13 0;
#X connect 12 0 11 0;
#X connect 12 0 23 0;
#X connect 13 0 28 1;
#X connect 14 0 15 0;
#X connect 14 0 24 0;
#X connect 15 0 0 0;
#X connect 15 1 39 1;
#X connect 15 1 40 1;
#X connect 23 0 25 0;
#X connect 24 0 26 0;
#X connect 28 0 2 0;
#X connect 28 1 3 0;
#X connect 28 2 4 0;
#X connect 28 3 5 0;
#X connect 28 4 6 0;
#X connect 28 5 7 0;
#X connect 28 6 8 0;
#X connect 39 0 10 0;
#X connect 40 0 9 0;
#X connect 41 0 28 0;
