#N canvas 0 23 1077 690 12;
#X obj 242 237 f \$1;
#X obj 421 240 f \$2;
#X obj 195 184 bng 15 250 50 0 empty empty empty 17 7 0 10 -262144
-1 -1;
#X obj 125 68 inlet;
#X obj 261 80 inlet;
#X obj 421 90 inlet;
#X obj 224 468 outlet;
#X obj 232 343 expr random(floor($f1) \, ceil($f2 + 1));
#X obj 213 200 t b b;
#X connect 0 0 7 0;
#X connect 1 0 7 1;
#X connect 2 0 8 0;
#X connect 3 0 2 0;
#X connect 4 0 0 1;
#X connect 5 0 1 0;
#X connect 7 0 6 0;
#X connect 8 0 0 0;
#X connect 8 1 1 0;
