#N canvas -480 -1057 1920 1035 12;
#X obj 76 424 tabread4~ \$3;
#X obj 76 401 line~;
#X msg 694 251 set \$1 \, addcomma;
#X msg 76 376 42994 \, 78253.2 799.528 \;;
#X obj 662 218 t f f;
#X obj 600 221 +;
#X msg 600 274 add2 \$1;
#X obj 362 436 line~;
#X obj 360 162 f;
#X obj 892 274 loadbang;
#X msg 892 297 set;
#X obj 76 447 *~;
#X obj 870 436 loadbang;
#X obj 26 34 inlet;
#X msg 401 504 0.8981 20;
#X msg 492 504 0 20;
#X obj 318 34 inlet~;
#X obj 69 38 bng 15 250 50 0 empty empty empty 17 7 0 10 -262144 -1
-1;
#X obj 300 504 *~;
#X msg 484 243 add \$1;
#X floatatom 372 191 5 0 0 0 - - -;
#X obj 695 562 switch~;
#X obj 319 562 hoa.3o.enc~ \$4;
#X obj 881 528 print \$1-state;
#X text 425 435 hannwindow is outside;
#X msg 360 334 0 \, 1023 \$1;
#X msg 870 459 1;
#X obj 339 462 tabread4~ \$6;
#X obj 634 462 tabread \$6;
#X obj 634 437 line;
#X floatatom 634 485 5 0 0 0 - - -;
#X obj 634 507 > 0.0001;
#X obj 219 504 env~;
#X floatatom 219 527 5 0 0 0 - - -;
#X obj 676 562 tgl 15 0 empty empty empty 17 7 0 10 -262144 -1 -1 0
1;
#X obj 634 531 change;
#N canvas 75 23 611 533 graindurs 0;
#X obj 40 210 f;
#X obj 153 295 -;
#X obj 40 187 t f b;
#X obj 237 261 random;
#X obj 217 307 * 10000;
#X obj 153 341 / 10000;
#X obj 153 364 +;
#X obj 153 46 r \$2_durmaxmin;
#X obj 84 116 unpack 0 0;
#X floatatom 84 139 5 0 0 0 - - -;
#X obj 153 319 t b f;
#X obj 191 187 t f f;
#X obj 183 122 r \$2_durmin;
#X obj -7 84 r \$2_durmax;
#X obj 151 168 f;
#X floatatom 151 192 5 0 0 0 - - -;
#X obj -13 150 f;
#X floatatom -13 174 5 0 0 0 - - -;
#X floatatom 181 390 5 0 0 0 - - -;
#X obj 153 427 outlet;
#X obj 67 12 inlet;
#X obj 67 36 t b b;
#X connect 0 0 1 0;
#X connect 1 0 10 0;
#X connect 2 0 0 0;
#X connect 3 0 5 0;
#X connect 4 0 3 1;
#X connect 5 0 6 0;
#X connect 6 0 18 0;
#X connect 6 0 19 0;
#X connect 7 0 8 0;
#X connect 8 0 9 0;
#X connect 8 0 16 0;
#X connect 8 1 14 0;
#X connect 10 0 3 0;
#X connect 10 1 4 0;
#X connect 11 0 1 1;
#X connect 11 1 6 1;
#X connect 12 0 14 0;
#X connect 13 0 16 0;
#X connect 14 0 15 0;
#X connect 14 0 11 0;
#X connect 16 0 17 0;
#X connect 16 0 2 0;
#X connect 20 0 21 0;
#X connect 21 0 16 0;
#X connect 21 1 14 0;
#X restore 479 138 pd graindurs;
#N canvas 0 23 891 763 rate 0;
#X obj 235 510 *;
#X obj 212 269 -;
#X obj 212 353 random;
#X obj 244 315 * 10000;
#X obj 212 376 / 10000;
#X obj 195 482 *;
#X text 260 481 comment;
#X text 268 397 rate;
#X obj 246 171 unpack 0 0;
#X obj 305 83 r \$2_ratemaxmin;
#X obj 212 292 t b f;
#X floatatom 342 144 5 0 0 0 - - -;
#X floatatom 245 205 5 0 0 0 - - -;
#X obj 342 125 bng 15 250 50 0 empty empty empty 17 7 0 10 -262144
-1 -1;
#X floatatom 331 353 5 0 0 0 - - -;
#X floatatom 343 482 5 0 0 0 - - -;
#X obj 212 399 +;
#X obj 318 296 t f f;
#X floatatom 390 482 13 0 0 0 - - -;
#X floatatom 371 269 5 0 0 0 - - -;
#X obj 186 213 f;
#X obj 310 226 f;
#X obj 118 178 r \$2_ratemax;
#X obj 336 188 r \$2_ratemin;
#X floatatom 310 250 5 0 0 0 - - -;
#X obj 150 45 inlet;
#X obj 150 69 t b b;
#X obj 237 540 outlet;
#X obj 64 49 inlet;
#X obj 263 454 v \$5_srate;
#X floatatom 314 427 5 0 0 0 - - -;
#X obj 212 423 t f b;
#X connect 0 0 18 0;
#X connect 0 0 27 0;
#X connect 1 0 10 0;
#X connect 1 0 19 0;
#X connect 2 0 4 0;
#X connect 2 0 14 0;
#X connect 3 0 2 1;
#X connect 4 0 16 0;
#X connect 5 0 15 0;
#X connect 5 0 0 0;
#X connect 8 0 20 0;
#X connect 8 1 11 0;
#X connect 8 1 21 0;
#X connect 9 0 8 0;
#X connect 10 0 2 0;
#X connect 10 1 3 0;
#X connect 16 0 31 0;
#X connect 17 0 1 1;
#X connect 17 1 16 1;
#X connect 20 0 12 0;
#X connect 20 0 1 0;
#X connect 21 0 24 0;
#X connect 21 0 17 0;
#X connect 22 0 20 0;
#X connect 23 0 21 0;
#X connect 25 0 26 0;
#X connect 26 0 20 0;
#X connect 26 1 21 0;
#X connect 28 0 5 0;
#X connect 29 0 0 1;
#X connect 29 0 30 0;
#X connect 31 0 5 1;
#X connect 31 1 29 0;
#X restore 525 197 pd rate;
#N canvas 0 23 945 751 timepoint 0;
#X obj 542 272 f;
#X obj 428 273 f;
#X obj 422 297 -;
#X obj 427 230 t f b;
#X obj 338 431 random;
#X obj 338 452 +;
#X text 374 473 random sample to start;
#X obj 411 407 int;
#X obj 425 177 unpack 0 0;
#X obj 492 92 r \$2_tpoinmaxmin;
#X floatatom 362 269 5 0 0 0 - - -;
#X obj 338 407 t b f;
#X obj 329 369 *;
#X obj 411 430 *;
#X floatatom 329 498 5 0 0 0 - - -;
#X floatatom 568 297 5 0 0 0 - - -;
#X floatatom 369 369 5 0 0 0 - - -;
#X floatatom 275 407 5 0 0 0 - - -;
#X floatatom 544 449 5 0 0 0 - - -;
#X obj 532 178 r \$2_tpmin;
#X obj 342 178 r \$2_tpmax;
#X obj 416 206 f;
#X obj 506 216 f;
#X obj 545 379 v \$5_srate;
#X obj 542 249 t b f f b;
#X obj 592 322 bng 15 250 50 0 empty empty empty 17 7 0 10 -262144
-1 -1;
#X obj 347 58 inlet;
#X obj 347 82 t b b;
#X obj 328 523 outlet;
#X connect 0 0 2 1;
#X connect 0 0 15 0;
#X connect 1 0 2 0;
#X connect 2 0 12 0;
#X connect 2 0 16 0;
#X connect 3 0 1 0;
#X connect 3 0 10 0;
#X connect 3 1 0 0;
#X connect 4 0 5 0;
#X connect 5 0 14 0;
#X connect 7 0 4 1;
#X connect 8 0 21 0;
#X connect 8 1 22 0;
#X connect 9 0 8 0;
#X connect 11 0 4 0;
#X connect 11 1 7 0;
#X connect 12 0 11 0;
#X connect 12 0 17 0;
#X connect 13 0 5 1;
#X connect 14 0 28 0;
#X connect 19 0 22 0;
#X connect 20 0 21 0;
#X connect 21 0 3 0;
#X connect 22 0 24 0;
#X connect 23 0 12 1;
#X connect 23 0 13 1;
#X connect 23 0 18 0;
#X connect 24 0 1 0;
#X connect 24 1 0 0;
#X connect 24 2 13 0;
#X connect 24 3 25 0;
#X connect 25 0 23 0;
#X connect 26 0 27 0;
#X connect 27 0 21 0;
#X connect 27 1 22 0;
#X restore 662 149 pd timepoint;
#X msg 837 139 set \$1 \$2;
#N canvas 0 23 936 823 azirho 1;
#X obj 82 23 inlet;
#X obj 281 391 f;
#X obj 167 414 f;
#X obj 167 452 -;
#X obj 164 340 t f b;
#X obj 167 562 +;
#X obj 281 368 t b f f;
#X obj 184 245 unpack 0 0;
#X obj 249 187 r \$2_azimaxmin;
#X floatatom 227 332 5 0 0 0 - - -;
#X floatatom 114 318 5 0 0 0 - - -;
#X obj 167 497 random;
#X obj 232 497 * 10000;
#X obj 167 519 / 10000;
#X obj 167 452 t b f;
#X obj 158 313 f;
#X obj 278 322 f;
#X obj 274 294 r \$2_azimin;
#X obj 172 286 r \$2_azimax;
#X obj 167 624 pack 0 20;
#X obj 336 480 r \$2_azirampdur;
#X obj 167 684 outlet;
#X obj 621 325 f;
#X obj 507 324 f;
#X obj 510 362 -;
#X obj 506 302 t f b;
#X obj 510 475 +;
#X obj 621 302 t b f f;
#X floatatom 624 407 5 0 0 0 - - -;
#X obj 584 154 unpack 0 0;
#X obj 584 74 r \$2_rhomaxmin;
#X obj 510 429 random;
#X obj 549 407 * 10000;
#X obj 510 452 / 10000;
#X floatatom 510 498 5 0 0 0 - - -;
#X floatatom 573 362 5 0 0 0 - - -;
#X obj 510 362 t b f;
#X floatatom 613 245 5 0 0 0 - - -;
#X floatatom 500 231 5 0 0 0 - - -;
#X obj 544 226 f;
#X obj 664 235 f;
#X obj 538 199 r \$2_rhomax;
#X obj 660 207 r \$2_rhomin;
#X obj 82 47 t b b b b;
#X obj 487 624 pack 0 20;
#X obj 656 480 r \$2_azirampdur;
#X obj 487 648 outlet;
#X obj 156 114 bng 15 250 50 0 empty empty empty 17 7 0 10 -262144
-1 -1;
#X floatatom 201 584 5 0 0 0 - - -;
#X connect 0 0 43 0;
#X connect 1 0 3 1;
#X connect 2 0 3 0;
#X connect 3 0 14 0;
#X connect 4 0 2 0;
#X connect 4 1 1 0;
#X connect 5 0 19 0;
#X connect 5 0 48 0;
#X connect 6 0 2 0;
#X connect 6 1 1 0;
#X connect 6 2 5 1;
#X connect 7 0 15 0;
#X connect 7 1 16 0;
#X connect 8 0 7 0;
#X connect 11 0 13 0;
#X connect 12 0 11 1;
#X connect 13 0 5 0;
#X connect 14 0 11 0;
#X connect 14 1 12 0;
#X connect 15 0 4 0;
#X connect 15 0 10 0;
#X connect 16 0 6 0;
#X connect 16 0 9 0;
#X connect 17 0 16 0;
#X connect 18 0 15 0;
#X connect 19 0 21 0;
#X connect 20 0 19 1;
#X connect 22 0 24 1;
#X connect 23 0 24 0;
#X connect 24 0 35 0;
#X connect 24 0 36 0;
#X connect 25 0 23 0;
#X connect 25 1 22 0;
#X connect 26 0 34 0;
#X connect 26 0 44 0;
#X connect 27 0 23 0;
#X connect 27 1 22 0;
#X connect 27 2 26 1;
#X connect 29 0 39 0;
#X connect 29 1 40 0;
#X connect 30 0 29 0;
#X connect 31 0 33 0;
#X connect 32 0 31 1;
#X connect 33 0 26 0;
#X connect 36 0 31 0;
#X connect 36 1 32 0;
#X connect 39 0 38 0;
#X connect 39 0 25 0;
#X connect 40 0 37 0;
#X connect 40 0 27 0;
#X connect 41 0 39 0;
#X connect 42 0 40 0;
#X connect 43 0 15 0;
#X connect 43 1 16 0;
#X connect 43 1 47 0;
#X connect 43 2 39 0;
#X connect 43 3 40 0;
#X connect 44 0 46 0;
#X connect 45 0 44 1;
#X restore 837 62 pd azirho;
#X msg 897 86 set \$1 \$2;
#X obj 837 40 r \$0_upazirho;
#X obj 157 80 s \$0_upazirho;
#X obj 662 127 r \$0_uptimepoint;
#X obj 137 103 s \$0_uptimepoint;
#X obj 571 172 r \$0_uprate;
#X obj 117 125 s \$0_uprate;
#X obj 97 148 s \$0_upgraindurs;
#X obj 479 114 r \$0_upgraindurs;
#X obj 97 53 t b b b b;
#X obj 27 148 t b b b b;
#X obj 67 198 s \$0_trigwindow;
#X obj 47 220 s \$0_trigrho;
#X obj 27 243 s \$0_trigazi;
#X obj 26 62 t b b;
#X obj 87 175 s \$0_slicemess;
#X obj 694 278 s \$0_slicemess;
#X obj 600 299 s \$0_slicemess;
#X obj 897 321 s \$0_slicemess;
#X obj 76 352 r \$0_slicemess;
#X obj 360 138 r \$0_trigwindow;
#X obj 884 351 s \$0_trigrho;
#X obj 501 531 r \$0_trigrho;
#X obj 451 561 r \$0_trigazi;
#X obj 889 386 s \$0_trigazi;
#X obj 897 116 s \$0_trigrho;
#X obj 837 163 s \$0_trigazi;
#X obj 484 269 s \$0_slicemess;
#X obj 479 162 t f f f;
#X text 755 560 turn off instance when silent;
#X obj 294 614 outlet~;
#X connect 0 0 11 0;
#X connect 1 0 0 0;
#X connect 2 0 57 0;
#X connect 3 0 1 0;
#X connect 4 0 5 1;
#X connect 4 1 2 0;
#X connect 5 0 6 0;
#X connect 6 0 58 0;
#X connect 7 0 27 0;
#X connect 8 0 25 0;
#X connect 8 0 20 0;
#X connect 9 0 10 0;
#X connect 10 0 59 0;
#X connect 10 0 62 0;
#X connect 10 0 65 0;
#X connect 11 0 18 0;
#X connect 11 0 32 0;
#X connect 12 0 26 0;
#X connect 13 0 17 0;
#X connect 13 0 55 0;
#X connect 14 0 22 1;
#X connect 15 0 22 2;
#X connect 16 0 18 1;
#X connect 18 0 22 0;
#X connect 19 0 68 0;
#X connect 22 0 71 0;
#X connect 25 0 7 0;
#X connect 25 0 29 0;
#X connect 26 0 21 0;
#X connect 27 0 11 1;
#X connect 28 0 30 0;
#X connect 29 0 28 0;
#X connect 30 0 31 0;
#X connect 31 0 35 0;
#X connect 32 0 33 0;
#X connect 34 0 21 0;
#X connect 35 0 34 0;
#X connect 36 0 69 0;
#X connect 37 0 5 0;
#X connect 38 0 4 0;
#X connect 39 0 67 0;
#X connect 40 0 39 0;
#X connect 40 1 41 0;
#X connect 41 0 66 0;
#X connect 42 0 40 0;
#X connect 44 0 38 0;
#X connect 46 0 37 1;
#X connect 49 0 36 0;
#X connect 50 0 48 0;
#X connect 50 1 47 0;
#X connect 50 2 45 0;
#X connect 50 3 43 0;
#X connect 51 0 54 0;
#X connect 51 1 53 0;
#X connect 51 2 52 0;
#X connect 51 3 56 0;
#X connect 55 0 51 0;
#X connect 55 1 50 0;
#X connect 60 0 3 0;
#X connect 61 0 8 0;
#X connect 63 0 15 0;
#X connect 64 0 14 0;
#X connect 69 0 8 1;
#X connect 69 1 19 0;
#X connect 69 2 37 0;
