#N canvas 111 88 1272 718 12;
#X declare -lib pd_spectral_toolkit;
#X obj 45 199 readsf~;
#X msg 45 164 open ../sounds/scelsi_pwyll_flute.wav \, 1;
#X msg 116 189 0;
#X floatatom 881 123 5 0 0 0 - transpo-set -;
#X obj 881 146 s transpo;
#X text 880 102 in cents;
#X text 787 135 normal;
#X obj 881 181 tgl 15 0 empty empty empty 0 -6 0 8 -262144 -1 -1 0
1;
#X msg 750 111 200;
#X msg 758 135 100;
#X msg 765 159 20;
#X text 779 110 contract;
#X text 795 159 expand;
#X obj 881 201 s lock;
#X text 881 85 detune;
#X msg 983 122 512;
#X msg 989 145 1024;
#X msg 994 168 2048;
#X msg 999 191 4096;
#X text 980 80 window size \,;
#X text 980 95 samples;
#X text 536 83 ------- location controls -------;
#X obj 750 187 s auto;
#X obj 938 124 bng 15 250 50 0 no-detune empty empty 0 -6 0 8 -262144
-1 -1;
#X text 1018 121 <= set;
#N canvas 385 188 595 536 hann-window 0;
#N canvas 0 0 450 300 (subpatch) 0;
#X array \$0-hann 2048 float 0;
#X coords 0 1 2047 0 300 100 1;
#X restore 148 395 graph;
#X obj 365 185 osc~;
#X obj 365 210 *~ -0.5;
#X obj 365 234 +~ 0.5;
#X obj 348 277 tabwrite~ \$0-hann;
#X obj 124 114 r window-size;
#X obj 195 238 /;
#X obj 213 206 samplerate~;
#X obj 195 316 s window-sec;
#X obj 105 252 swap;
#X obj 105 276 /;
#X obj 105 300 s window-hz;
#X obj 206 266 * 1000;
#X obj 206 293 s window-msec;
#X obj 124 149 t f b f;
#X msg 213 156 resize \$1;
#X obj 213 180 s \$0-hann;
#X obj 317 123 r window-hz;
#X msg 390 155 0;
#X obj 317 151 t f b;
#X text 94 21 calculate Hann window table (variable window size) and
constants window-hz (fundamental frequency of analysis) \, window-sec
and window-msec (analysis window size in seconds and msec)., f 56
;
#X connect 1 0 2 0;
#X connect 2 0 3 0;
#X connect 3 0 4 0;
#X connect 5 0 14 0;
#X connect 6 0 8 0;
#X connect 6 0 12 0;
#X connect 7 0 6 1;
#X connect 7 0 9 1;
#X connect 9 0 10 0;
#X connect 9 1 10 1;
#X connect 10 0 11 0;
#X connect 12 0 13 0;
#X connect 14 0 6 0;
#X connect 14 0 9 0;
#X connect 14 1 7 0;
#X connect 14 2 15 0;
#X connect 15 0 16 0;
#X connect 17 0 19 0;
#X connect 18 0 1 1;
#X connect 19 0 1 0;
#X connect 19 1 4 0;
#X connect 19 1 18 0;
#X restore 815 502 pd hann-window;
#N canvas 410 109 731 456 insample 0;
#N canvas 0 0 450 300 (subpatch) 0;
#X array \$0-sample 62079 float 0;
#X coords 0 1 62078 -1 400 150 1;
#X restore 302 143 graph;
#X obj 59 141 r read-sample;
#X obj 59 192 unpack s f;
#X obj 59 302 soundfiler;
#X text 418 343 read a sample;
#X obj 338 342 loadbang;
#X obj 59 218 t s b;
#X obj 112 221 symbol \$0-sample;
#X obj 59 253 pack s s;
#X msg 59 278 read -resize \$1 \$2;
#X obj 59 165 t a b;
#X obj 69 331 s \$0-samplength;
#X obj 156 192 s \$0-insamprate;
#X obj 59 365 /;
#X obj 59 389 * 1000;
#X obj 59 412 s \$0-samp-msec;
#X obj 97 365 r \$0-insamprate;
#X obj 70 78 hip~ 5;
#X obj 70 54 adc~ 1;
#X obj 60 17 inlet;
#X obj 132 54 samplerate~;
#X obj 60 106 tabwrite~ \$0-sample;
#X obj 132 78 s \$0-insamprate;
#X msg 338 366 \; read-sample ../sound/voice.wav;
#X obj 306 28 inlet;
#X obj 306 50 openpanel;
#X obj 306 75 s read-sample;
#X obj 156 166 f 44100;
#X connect 1 0 10 0;
#X connect 2 0 6 0;
#X connect 2 1 12 0;
#X connect 3 0 11 0;
#X connect 3 0 13 0;
#X connect 5 0 23 0;
#X connect 6 0 8 0;
#X connect 6 1 7 0;
#X connect 7 0 8 1;
#X connect 8 0 9 0;
#X connect 9 0 3 0;
#X connect 10 0 2 0;
#X connect 10 1 27 0;
#X connect 13 0 14 0;
#X connect 14 0 15 0;
#X connect 16 0 13 1;
#X connect 17 0 21 0;
#X connect 18 0 17 0;
#X connect 19 0 20 0;
#X connect 19 0 21 0;
#X connect 20 0 22 0;
#X connect 24 0 25 0;
#X connect 25 0 26 0;
#X connect 27 0 12 0;
#X restore 816 454 pd insample;
#X obj 816 413 bng 15 250 50 0 empty empty empty 0 -6 0 8 -262144 -1
-1;
#X obj 890 434 bng 15 250 50 0 empty empty empty 0 -6 0 8 -262144 -1
-1;
#X text 837 432 file =>;
#X text 834 411 <= record;
#N canvas 351 69 1055 710 recin 0;
#X obj 741 480 array define \$0_insound;
#X obj 741 450 array size \$0_insound;
#X obj 741 89 inlet;
#X obj 741 113 * 60;
#X obj 773 160 samplerate~;
#X obj 741 161 *;
#X floatatom 741 188 12 0 0 0 - - -;
#X obj 550 209 line~;
#X msg 550 153 0 \, 3.1752e+07 720000;
#X obj 773 242 pack 0 0;
#X obj 741 137 t f b f;
#X obj 798 137 * 1000;
#X text 841 243 line parameters;
#X msg 773 266 set 0 \, addcomma \, add2 \$1 \$2;
#X obj 741 217 t f f f;
#X msg 797 217;
#X obj 600 209 line;
#X obj 550 177 t a a;
#X obj 241 216 tabwrite~ \$0_insound;
#X obj 161 22 inlet~;
#X obj 225 23 inlet;
#X msg 214 99 bang;
#X msg 265 142 stop;
#X msg 273 339 \; \$1_insound const 0;
#X obj 274 313 f \$0;
#X obj 270 284 bng 15 250 50 0 empty empty empty 17 7 0 10 -262144
-1 -1;
#X obj 330 82 t b b;
#X obj 654 393 outlet~;
#X obj 330 143 del 50;
#X obj 527 322 outlet;
#X msg 503 106 0;
#X obj 225 47 sel 1 0;
#X connect 2 0 3 0;
#X connect 3 0 10 0;
#X connect 4 0 5 1;
#X connect 5 0 6 0;
#X connect 6 0 14 0;
#X connect 7 0 27 0;
#X connect 8 0 17 0;
#X connect 9 0 13 0;
#X connect 10 0 5 0;
#X connect 10 1 4 0;
#X connect 10 2 11 0;
#X connect 11 0 9 1;
#X connect 13 0 8 0;
#X connect 14 0 1 0;
#X connect 14 1 9 0;
#X connect 16 0 29 0;
#X connect 17 0 7 0;
#X connect 17 1 16 0;
#X connect 19 0 18 0;
#X connect 20 0 31 0;
#X connect 21 0 18 0;
#X connect 21 0 8 0;
#X connect 22 0 18 0;
#X connect 24 0 23 0;
#X connect 25 0 24 0;
#X connect 26 0 28 0;
#X connect 26 1 22 0;
#X connect 28 0 25 0;
#X connect 28 0 30 0;
#X connect 30 0 17 0;
#X connect 31 0 21 0;
#X connect 31 1 26 0;
#X coords 0 0 12 1 0 0 0;
#X restore 103 314 pd recin;
#X msg 156 289 12;
#X text 189 289 minutes;
#X obj 129 264 tgl 15 0 empty empty empty 17 7 0 10 -262144 -1 -1 1
1;
#X obj 37 563 output~;
#X obj 983 217 s \$0_window-size;
#X text 170 316 out ramp_values_(current sample);
#X obj 247 66 tabwrite~;
#X obj 522 27 declare -lib pd_spectral_toolkit;
#X floatatom 118 350 12 0 0 0 - - -;
#X msg 126 380 0;
#X msg 261 415 0 0 1;
#X obj 157 455 ../abstractions/pvocambi 1 \$0 \$0_insound;
#X msg 380 396 -0.5 10000;
#X msg 344 368 0;
#X msg 468 398 -12;
#X floatatom 529 399 5 0 0 0 - - -;
#X msg 71 427 0 2000;
#X obj 199 530 hoa.3o.enc~;
#X msg 154 406 -10000 200;
#X connect 0 0 31 0;
#X connect 0 0 35 0;
#X connect 1 0 0 0;
#X connect 2 0 0 0;
#X connect 3 0 4 0;
#X connect 7 0 13 0;
#X connect 8 0 22 0;
#X connect 9 0 22 0;
#X connect 10 0 22 0;
#X connect 15 0 36 0;
#X connect 16 0 36 0;
#X connect 17 0 36 0;
#X connect 18 0 36 0;
#X connect 27 0 26 0;
#X connect 28 0 26 1;
#X connect 31 0 40 0;
#X connect 31 1 43 2;
#X connect 32 0 31 2;
#X connect 34 0 31 1;
#X connect 41 0 43 0;
#X connect 42 0 43 0;
#X connect 43 0 35 1;
#X connect 44 0 43 1;
#X connect 45 0 43 1;
#X connect 46 0 43 1;
#X connect 48 0 43 0;
#X connect 50 0 43 0;
