#N canvas 242 266 1300 738 12;
#X obj 271 141 textfile;
#X obj 132 137 bng 15 250 50 0 empty empty empty 17 7 0 10 -262144
-1 -1;
#X msg 171 94 rewind;
#X msg 268 87 read ../log_events/2020-12-02-20h21m00s.075_afterlive_log.txt
cr;
#X obj 155 164 until;
#X obj 143 537 bng 15 250 50 0 empty empty empty 17 7 0 10 -262144
-1 -1;
#X obj 140 700 timer;
#X obj 140 724 print t;
#X obj 110 167 t b b;
#X msg 133 260 set;
#X obj 291 300 f;
#X msg 291 324 add2 \$1;
#X msg 209 347 addcomma;
#X msg 232 311 add2 \$1;
#X msg 173 387 0 0 \, 1 15180 \, 2 17000 \, 3 18300 \,;
#X obj 220 262 t b f b;
#X obj 41 529 print;
#X obj 311 521 pipe;
#X obj 189 512 pipe;
#X obj 190 437 unpack f f b;
#X msg 268 466 clear;
#X obj 109 505 t a b;
#X obj 404 350 t b b;
#X obj 271 181 unpack 0 0 s;
#X obj 406 322 bng 15 250 50 0 empty empty empty 17 7 0 10 -262144
-1 -1;
#X connect 0 0 23 0;
#X connect 0 1 4 1;
#X connect 1 0 8 0;
#X connect 2 0 0 0;
#X connect 3 0 0 0;
#X connect 4 0 0 0;
#X connect 5 0 6 1;
#X connect 6 0 7 0;
#X connect 8 0 4 0;
#X connect 8 1 9 0;
#X connect 9 0 14 0;
#X connect 10 0 11 0;
#X connect 11 0 14 0;
#X connect 12 0 14 0;
#X connect 13 0 14 0;
#X connect 14 0 19 0;
#X connect 15 0 12 0;
#X connect 15 1 13 0;
#X connect 15 2 10 0;
#X connect 18 0 21 0;
#X connect 19 0 18 0;
#X connect 19 1 18 1;
#X connect 19 2 20 0;
#X connect 20 0 18 1;
#X connect 21 0 16 0;
#X connect 21 1 5 0;
#X connect 22 0 14 0;
#X connect 22 1 6 0;
#X connect 23 0 15 0;
#X connect 23 1 10 1;
#X connect 24 0 22 0;
