#N canvas -7 1 1915 969 12;
#X declare -lib Gem;
#X obj 366 87 inlet;
#X obj 355 562 pix_texture;
#X obj 1255 82 declare -lib Gem;
#X text 1500 377 \$3 -> buffname;
#X text 1500 397 \$4 -> nowreceiver;
#X text 1500 417 \$5 -> bufsize;
#X text 1500 437 \$6 -> frame dur ms;
#X text 1503 455 \$7 8 9 -> transX Y Z;
#X obj 820 149 route \$1;
#X text 1500 338 \$1 ->;
#X text 1500 357 \$2 -> parent \$0;
#X obj 286 782 translateXYZ 0 0 0;
#X floatatom 460 373 5 0 1 1 pass - -;
#X floatatom 475 393 5 0 1 1 other - -;
#X msg 489 418 0.6 0.6 0.6;
#X msg 504 442 0.2 0.2 0.2;
#X obj 436 499 pix_alpha;
#X obj 441 320 vsl 15 128 0 1 0 0 empty empty empty 0 -9 0 10 -262144
-1 -1 0 1;
#X msg 317 291 1;
#X obj 317 267 loadbang;
#X obj 886 730 loadbang;
#X obj 886 754 del 50;
#X obj 925 810 array get \$2_tilesX;
#X obj 915 855 array get \$2_tilesY;
#X obj 886 776 f \$1;
#X obj 290 902 rectangle 4 2.25;
#X obj 461 616 +;
#X obj 489 616 r \$0_Xref;
#X obj 502 641 +;
#X obj 530 640 r \$0_Yref;
#X obj 543 681 +;
#X obj 571 680 r \$0_Zref;
#X obj 925 832 s \$0_Xref;
#X obj 915 877 s \$0_Yref;
#X obj 905 900 array get \$2_tilesZ;
#X obj 905 922 s \$0_Zref;
#X obj 461 640 f;
#X obj 502 665 f;
#X obj 575 719 f;
#X obj 474 796 f;
#X obj 529 823 f;
#X obj 502 771 r \$0_Wref;
#X obj 557 798 r \$0_Href;
#X obj 896 947 array get \$2_tilesW;
#X obj 896 969 s \$0_Wref, f 10;
#X obj 886 997 array get \$2_tilesH;
#X obj 886 1019 s \$0_Href, f 10;
#X obj 882 332 line;
#X obj 820 125 r \$2_tilesin;
#X floatatom 556 882 5 0 0 0 - - -;
#X msg 1074 809 1;
#X obj 1075 781 loadbang;
#X obj 861 691 r \$2_reloadpos;
#X obj 438 89 gemhead;
#X obj 438 280 pix_buffer_read \$3;
#X obj 438 125 alpha;
#X obj 303 40 > 0;
#X obj 172 168 r \$2_oscToRoute;
#X obj 215 556;
#X obj 894 67 r \$2_oscToRoute;
#X obj 171 189 slash.oscroute /\$4/\$1/alpha;
#X obj 918 228 slash.oscroute /\$4/\$1/time;
#X floatatom 624 764 5 0 0 0 - - -;
#X obj 529 799 *;
#X obj 474 772 *;
#X obj 671 727 loadbang;
#X msg 671 751 1;
#X obj 816 623 line;
#X obj 718 505 r \$2_oscToRoute;
#X obj 795 571 slash.oscroute /\$4/\$1/scale;
#N canvas 0 50 1708 835 priority 0;
#X obj 377 17 loadbang;
#X obj 424 68 bng 15 250 50 0 empty empty empty 17 7 0 10 -262144 -1
-1;
#X obj 459 59 r bangger;
#X obj 759 206 mod;
#X obj 805 206 div;
#X msg 758 184 \$1 \$2;
#X msg 804 183 \$1 \$3;
#X obj 603 22 t l l l;
#X obj 893 152 unpack 0 0 0;
#X text 536 114 num xnum ynum;
#X obj 854 312 expr $f1 - ($f4-1)/2.0 \; $f2 - ($f5-1)/2.0;
#X obj 395 109 list store \$1 \$5 \$6;
#X obj 939 384 expr sqrt($f1*$f1 + $f2*$f2);
#X obj 939 408 int;
#X obj 1164 516 print \$1n;
#X obj 855 550 outlet;
#X obj 938 499 + 90;
#X obj 910 441 * -32;
#X obj 1013 449 - \$1;
#X connect 0 0 11 0;
#X connect 1 0 11 0;
#X connect 2 0 1 0;
#X connect 3 0 10 0;
#X connect 4 0 10 1;
#X connect 5 0 3 0;
#X connect 6 0 4 0;
#X connect 7 0 5 0;
#X connect 7 1 6 0;
#X connect 7 2 8 0;
#X connect 8 0 10 2;
#X connect 8 1 10 3;
#X connect 8 2 10 4;
#X connect 10 0 12 0;
#X connect 10 1 12 1;
#X connect 11 0 7 0;
#X connect 12 0 13 0;
#X connect 13 0 17 0;
#X connect 16 0 15 0;
#X connect 17 0 18 0;
#X connect 18 0 16 0;
#X restore 480 23 pd priority;
#X msg 451 49 set \$1;
#X obj 1206 391 r \$2_oscToRoute;
#X obj 1205 412 slash.oscroute /\$4/\$1/freeze;
#X text 1553 582 comment;
#X obj 820 173 route alpha time freeze;
#X obj 1098 722 f;
#X obj 1264 555 route start release;
#X obj 1128 722 f;
#N canvas 274 0 1920 997 frametimeago 0;
#X obj 209 331 /;
#X floatatom 117 285 5 0 0 0 - - -;
#X obj 209 356 int;
#X floatatom 337 486 5 0 0 0 - - -;
#X obj 209 666 mod 11520;
#X obj 209 568 +;
#X floatatom 344 361 5 0 0 0 - - -;
#X obj 252 284 v \$2_framedur;
#X obj 260 314 f;
#X obj 210 403 *;
#X obj 690 931 outlet;
#X obj 235 499 f;
#X obj 194 433 t f b;
#X obj 272 603 v \$2_pixbufferSize;
#X obj 276 584 bng 15 250 50 0 empty empty empty 17 7 0 10 -262144
-1 -1;
#X floatatom 272 627 5 0 0 0 - - -;
#X obj 209 592 t f b;
#X obj 208 255 t f b;
#X floatatom 328 310 5 0 0 0 - - -;
#X text 289 662 frametogo;
#X obj 710 345 /;
#X floatatom 618 299 5 0 0 0 - - -;
#X obj 700 374 int;
#X floatatom 845 375 5 0 0 0 - - -;
#X obj 753 298 v \$2_framedur;
#X obj 761 328 f;
#X obj 691 400 *;
#X obj 708 269 t f b;
#X floatatom 829 324 5 0 0 0 - - -;
#X obj 706 242 t f f;
#X obj 268 73 s \$0_flowSwitch;
#X obj 203 24 inlet;
#X obj 202 158 unpack 0 0 0 0;
#X text 750 436 grainInframes;
#X text 233 207 timetogo;
#X obj 508 832 line;
#X obj 243 402 v \$2delfact;
#X obj 407 718 del;
#X obj 230 731 pack 0 0;
#X obj 223 763 t l l;
#X obj 203 48 t l b;
#X msg 235 72 0;
#X msg 244 48 1;
#X obj 282 47 s \$0_freezeSwitch;
#X msg 407 669 \$2;
#X obj 407 693 t b f;
#X obj 654 478 random;
#X obj 407 748 s \$0_newfreezepoint;
#X obj 525 452 r \$0_newfreezepoint;
#X obj 237 693 t f f;
#X obj 717 614 v \$2_framedur;
#X obj 694 640 *;
#X obj 657 721 pack 0 0;
#X obj 657 745 spigot;
#X obj 708 747 tgl 15 0 empty empty empty 17 7 0 10 -262144 -1 -1 0
1;
#X obj 694 664 t f f;
#X obj 687 829 del;
#X obj 579 769 t l b;
#X obj 687 854 s \$0_newfreezepoint;
#X msg 364 808 set \$1 \$2;
#X msg 364 832 7557 124;
#X obj 593 824 bng 15 250 50 0 empty empty empty 17 7 0 10 -262144
-1 -1;
#X floatatom 777 465 5 0 0 0 - - -;
#X obj 739 381 v \$2delfact;
#X obj 999 347 /;
#X floatatom 907 301 5 0 0 0 - - -;
#X obj 999 372 int;
#X floatatom 1134 377 5 0 0 0 - - -;
#X obj 1042 300 v \$2_framedur;
#X obj 1050 330 f;
#X obj 1000 439 *;
#X obj 997 271 t f b;
#X floatatom 1118 326 5 0 0 0 - - -;
#X obj 995 244 t f f;
#X text 1039 438 grainInframes;
#X floatatom 1022 471 5 0 0 0 - - -;
#X obj 1034 418 v \$2delfact;
#X text 744 220 graindurmax;
#X msg 202 114 \$1 \$2 \$4 \$3;
#X obj 693 434 -;
#X obj 654 502 +;
#X floatatom 705 506 5 0 0 0 - - -;
#X obj 517 692 s \$0_lastloc;
#X obj 769 530 r \$0_lastloc;
#X floatatom 571 625 5 0 0 0 - - -;
#X obj 672 574 -;
#X obj 675 611 abs;
#X floatatom 841 684 5 0 0 0 - - -;
#X obj 292 448 r \$2-currentFrame;
#X obj 505 865 int;
#X obj 505 889 change;
#X obj 675 897 s \$0_freezepoint;
#X obj 227 872 s \$0_lastloc;
#X msg 227 796 \$1;
#X obj 635 526 t b f b b;
#X floatatom 729 589 5 0 0 0 - - -;
#X floatatom 325 229 5 0 0 0 - - -;
#X floatatom 785 569 5 0 0 0 - - -;
#X obj 606 591 +;
#X floatatom 471 157 5 0 0 0 - - -;
#X floatatom 426 228 5 0 0 0 - - -;
#X floatatom 581 409 5 0 0 0 - - -;
#X floatatom 581 432 5 0 0 0 - - -;
#X obj 965 525 min;
#X obj 999 396 max 1;
#X obj 606 656 t f f f b;
#X floatatom 457 714 5 0 0 0 - - -;
#X obj 1300 22 inlet;
#X text 1362 21 release;
#X msg 1511 67 0;
#X obj 1555 65 s \$0_freezeSwitch;
#X obj 1323 384 /;
#X floatatom 1231 338 5 0 0 0 - - -;
#X obj 1323 409 int;
#X floatatom 1451 539 5 0 0 0 - - -;
#X obj 1323 719 mod 11520;
#X obj 1323 621 +;
#X floatatom 1458 414 5 0 0 0 - - -;
#X obj 1366 337 v \$2_framedur;
#X obj 1374 367 f;
#X obj 1324 456 *;
#X obj 1349 552 f;
#X obj 1308 486 t f b;
#X obj 1386 656 v \$2_pixbufferSize;
#X obj 1390 637 bng 15 250 50 0 empty empty empty 17 7 0 10 -262144
-1 -1;
#X floatatom 1386 680 5 0 0 0 - - -;
#X obj 1323 645 t f b;
#X obj 1322 308 t f b;
#X floatatom 1442 363 5 0 0 0 - - -;
#X text 1403 715 frametogo;
#X text 1347 260 timetogo;
#X obj 1357 455 v \$2delfact;
#X obj 1406 501 r \$2-currentFrame;
#X floatatom 1439 282 5 0 0 0 - - -;
#X obj 1316 211 unpack 0 0;
#X msg 1366 53 \$2;
#X obj 1366 100 del;
#X obj 1366 76 t b f;
#X msg 1516 96 1;
#X obj 1554 95 s \$0_flowSwitch;
#X obj 765 730 r \$0_freezeGrainsSwitch;
#X obj 413 46 s \$0_freezeGrainsSwitch;
#X obj 1519 19 s \$0_freezeGrainsSwitch;
#X msg 1485 25 0;
#X obj 1303 51 t l l b;
#X obj 1322 753 pack 0 0;
#X obj 467 560 r \$0_tileFrameIdx;
#X obj 451 599 f;
#X obj 553 932 f;
#X obj 436 932 r \$0_Shutter;
#X obj 591 945 change;
#X obj 911 879 snapshot~;
#X obj 865 858 bng 15 250 50 0 empty empty empty 17 7 0 10 -262144
-1 -1;
#X obj 940 846 line~;
#X obj 802 797 r \$0_Shutter2;
#X floatatom 867 905 5 0 0 0 - - -;
#X connect 0 0 2 0;
#X connect 1 0 0 0;
#X connect 2 0 9 0;
#X connect 3 0 11 1;
#X connect 4 0 49 0;
#X connect 5 0 16 0;
#X connect 7 0 8 0;
#X connect 7 0 18 0;
#X connect 8 0 0 1;
#X connect 8 0 6 0;
#X connect 9 0 12 0;
#X connect 11 0 5 1;
#X connect 12 0 5 0;
#X connect 12 1 11 0;
#X connect 13 0 15 0;
#X connect 14 0 13 0;
#X connect 15 0 4 1;
#X connect 16 0 4 0;
#X connect 16 1 14 0;
#X connect 17 0 0 0;
#X connect 17 1 7 0;
#X connect 17 1 36 0;
#X connect 17 1 147 0;
#X connect 20 0 22 0;
#X connect 20 0 21 0;
#X connect 22 0 26 0;
#X connect 24 0 25 0;
#X connect 24 0 28 0;
#X connect 25 0 20 1;
#X connect 25 0 23 0;
#X connect 26 0 62 0;
#X connect 26 0 79 0;
#X connect 27 0 20 0;
#X connect 27 1 24 0;
#X connect 27 1 63 0;
#X connect 29 0 27 0;
#X connect 31 0 40 0;
#X connect 32 0 17 0;
#X connect 32 1 38 1;
#X connect 32 2 29 0;
#X connect 32 2 100 0;
#X connect 32 3 73 0;
#X connect 32 3 99 0;
#X connect 35 0 89 0;
#X connect 36 0 9 1;
#X connect 37 0 47 0;
#X connect 37 0 106 0;
#X connect 38 0 39 0;
#X connect 39 0 93 0;
#X connect 39 1 44 0;
#X connect 39 1 35 0;
#X connect 40 0 78 0;
#X connect 40 1 41 0;
#X connect 40 1 42 0;
#X connect 41 0 30 0;
#X connect 42 0 43 0;
#X connect 42 0 141 0;
#X connect 44 0 45 0;
#X connect 45 0 37 0;
#X connect 45 1 37 1;
#X connect 46 0 80 0;
#X connect 48 0 46 0;
#X connect 49 0 38 0;
#X connect 49 1 98 1;
#X connect 50 0 51 1;
#X connect 51 0 55 0;
#X connect 52 0 53 0;
#X connect 53 0 57 0;
#X connect 54 0 53 1;
#X connect 55 0 52 1;
#X connect 55 1 56 1;
#X connect 56 0 58 0;
#X connect 57 0 35 0;
#X connect 57 1 56 0;
#X connect 57 1 61 0;
#X connect 59 0 60 0;
#X connect 63 0 26 1;
#X connect 64 0 66 0;
#X connect 64 0 65 0;
#X connect 66 0 104 0;
#X connect 68 0 69 0;
#X connect 68 0 72 0;
#X connect 69 0 64 1;
#X connect 69 0 67 0;
#X connect 70 0 75 0;
#X connect 70 0 79 1;
#X connect 70 0 80 1;
#X connect 71 0 64 0;
#X connect 71 1 68 0;
#X connect 71 1 76 0;
#X connect 73 0 71 0;
#X connect 76 0 70 1;
#X connect 78 0 32 0;
#X connect 79 0 46 1;
#X connect 79 0 101 0;
#X connect 80 0 81 0;
#X connect 80 0 94 0;
#X connect 83 0 97 0;
#X connect 83 0 85 1;
#X connect 85 0 86 0;
#X connect 86 0 51 0;
#X connect 86 0 95 0;
#X connect 88 0 3 0;
#X connect 89 0 90 0;
#X connect 90 0 91 0;
#X connect 90 0 148 1;
#X connect 90 0 10 0;
#X connect 93 0 92 0;
#X connect 94 1 98 0;
#X connect 94 3 50 0;
#X connect 98 0 84 0;
#X connect 98 0 105 0;
#X connect 101 0 102 0;
#X connect 104 0 70 0;
#X connect 105 0 82 0;
#X connect 105 1 52 0;
#X connect 105 2 85 0;
#X connect 107 0 144 0;
#X connect 109 0 110 0;
#X connect 111 0 113 0;
#X connect 112 0 111 0;
#X connect 113 0 120 0;
#X connect 114 0 121 1;
#X connect 115 0 145 0;
#X connect 116 0 126 0;
#X connect 118 0 119 0;
#X connect 118 0 128 0;
#X connect 119 0 111 1;
#X connect 119 0 117 0;
#X connect 120 0 122 0;
#X connect 121 0 116 1;
#X connect 122 0 116 0;
#X connect 122 1 121 0;
#X connect 123 0 125 0;
#X connect 124 0 123 0;
#X connect 125 0 115 1;
#X connect 126 0 115 0;
#X connect 126 1 124 0;
#X connect 127 0 111 0;
#X connect 127 1 118 0;
#X connect 127 1 131 0;
#X connect 131 0 120 1;
#X connect 132 0 114 0;
#X connect 134 0 127 0;
#X connect 134 1 145 1;
#X connect 135 0 137 0;
#X connect 136 0 109 0;
#X connect 136 0 138 0;
#X connect 137 0 136 0;
#X connect 137 1 136 1;
#X connect 138 0 139 0;
#X connect 140 0 54 0;
#X connect 143 0 142 0;
#X connect 144 0 134 0;
#X connect 144 1 135 0;
#X connect 144 2 143 0;
#X connect 145 0 35 0;
#X connect 146 0 147 1;
#X connect 147 0 35 0;
#X connect 148 0 150 0;
#X connect 149 0 148 0;
#X connect 151 0 155 0;
#X connect 152 0 151 0;
#X connect 153 0 151 0;
#X connect 154 0 152 0;
#X restore 1229 661 pd frametimeago;
#N canvas 208 1183 982 708 time2frame 0;
#X obj 220 293 r \$2-currentFrame;
#X obj 418 243 r \$2_framedur;
#X obj 367 284 /;
#X floatatom 275 238 5 0 0 0 - - -;
#X obj 368 317 int;
#X obj 432 441 r \$2_pixbufferSize;
#X floatatom 370 559 5 0 0 0 - - -;
#X floatatom 451 467 5 0 0 0 - - -;
#X floatatom 264 331 5 0 0 0 - - -;
#X obj 367 469 mod 11520;
#X obj 367 441 +;
#X floatatom 502 314 5 0 0 0 - - -;
#X obj 554 288 v \$2_framedur;
#X obj 418 267 f;
#X obj 555 241 loadbang;
#X obj 555 265 del 100;
#X obj 409 384 *;
#X obj 386 505 t f f;
#X obj 367 206 inlet;
#X obj 340 623 outlet;
#X obj 616 267 bng 15 250 50 0 empty empty empty 17 7 0 10 -262144
-1 -1;
#X obj 259 367 t f b;
#X floatatom 453 340 5 0 0 0 - - -;
#X floatatom 213 514 5 0 0 0 - - -;
#X floatatom 261 514 5 0 0 0 - - -;
#X obj 442 383 v \$2delfact;
#X obj 367 230 t f b;
#X floatatom 442 413 5 0 0 0 - - -;
#X obj 368 341 change;
#X connect 0 0 8 0;
#X connect 0 0 21 0;
#X connect 1 0 13 0;
#X connect 2 0 4 0;
#X connect 3 0 2 0;
#X connect 4 0 22 0;
#X connect 4 0 28 0;
#X connect 5 0 7 0;
#X connect 5 0 9 1;
#X connect 8 0 23 0;
#X connect 9 0 6 0;
#X connect 9 0 17 0;
#X connect 9 0 19 0;
#X connect 10 0 9 0;
#X connect 10 0 24 0;
#X connect 12 0 13 0;
#X connect 13 0 2 1;
#X connect 13 0 11 0;
#X connect 14 0 15 0;
#X connect 15 0 12 0;
#X connect 16 0 10 1;
#X connect 18 0 26 0;
#X connect 20 0 12 0;
#X connect 21 0 10 0;
#X connect 21 1 4 0;
#X connect 25 0 16 1;
#X connect 25 0 27 0;
#X connect 26 0 2 0;
#X connect 26 1 25 0;
#X connect 28 0 16 0;
#X restore 854 401 pd time2frame;
#X obj 853 489 spigot;
#X obj 910 491 tgl 15 0 empty empty empty 17 7 0 10 -262144 -1 -1 1
1;
#X obj 910 439 loadbang;
#X msg 910 463 1;
#X floatatom 853 513 5 0 0 0 - - -;
#X obj 787 428 s \$0_runningframes;
#X obj 931 490 r \$0_flowSwitch;
#X obj 649 172 r \$0_tileFrameIdx;
#X obj 895 514 s \$0_tileFrameIdx;
#X obj 1229 688 spigot;
#X obj 1286 690 tgl 15 0 empty empty empty 17 7 0 10 -262144 -1 -1
0 1;
#X obj 1307 689 r \$0_freezeSwitch;
#X obj 1230 711 s \$0_tileFrameIdx;
#X text 1341 663 freeze start;
#X text 1560 665 freeze start;
#X msg 1272 628 -1000 500 1244 4000;
#X obj 1075 556 route \$1;
#X obj 1160 561 print \$1n;
#X obj 1455 566 route \$1;
#X obj 1075 532 r \$2_tilesfreezestart;
#X obj 1455 542 r \$2_tilesfreezerelease;
#X obj 983 251 r \$2_tilestime;
#X obj 1008 279 tgl 15 0 empty empty empty 17 7 0 10 -262144 -1 -1
0 1;
#X obj 1029 278 r \$0_freezeSwitch;
#X obj 943 334 spigot;
#X obj 882 304 t a a;
#X obj 926 281 route \$1;
#X obj 585 536 * -1;
#X obj 613 575 * -1;
#X obj 631 536 - 1;
#X obj 549 566 *;
#X obj 586 603 *;
#X obj 575 502 / 4.1;
#X obj 619 473 - 1;
#X obj 619 449 r \$2_maxscale;
#X obj 603 390 loadbang;
#X obj 604 419 v \$2_maxscale;
#X obj 921 600 r \$2_tilesscale;
#X obj 893 628 route \$1;
#X obj 411 667 f;
#X obj 450 685 f;
#X obj 431 832 f;
#X obj 481 836 f;
#X obj 839 332 f;
#X obj 714 637 f;
#X obj 537 163 s \$0_Shutter;
#X obj 702 581 r \$0_Shutter;
#X obj 780 303 r \$0_Shutter;
#X obj 162 387 r \$0_Shutter;
#X obj 714 661 change;
#X obj 839 356 change;
#X obj 643 497;
#X obj 947 667 slash.oscroute /tiles/scale;
#X obj 957 642 r \$2_oscToRoute;
#X obj 1297 478 r \$2_oscToRoute;
#X obj 141 214 slash.oscroute /tile/all/alpha;
#X obj 892 94 slash.oscroute /tile/all/time;
#X obj 1295 505 slash.oscroute /tile/all/freeze;
#X obj 43 301 r \$2_tilesalpha;
#X obj 43 325 route \$1;
#X obj 55 390 print \$1n;
#X obj 449 717 pack 0 0 0;
#X obj 432 150 t a b b;
#X obj 439 196 s \$0_Shutter2;
#X obj 266 641 r \$0_Shutter2;
#X obj 292 709 list store;
#X obj 356 732 unpack 0 0 0;
#X obj 152 789 list store;
#X obj 328 871 unpack 0 0;
#X obj 266 665 t b b b b;
#X obj 487 689 f;
#X obj 361 844 pack 0 0;
#X obj 200 740 t b b b b;
#X obj 730 538 slash.oscroute /tile/all/scale;
#X obj 1290 588 print \$1freeze;
#X obj 1205 436 list trim;
#X obj 1638 497 r \$2_oscToRoute;
#X obj 1636 524 slash.oscroute /tile/all/time;
#X obj 281 386 line~;
#X obj 270 424 snapshot~;
#X obj 291 333 expr~;
#X obj 115 -9 r \$2-currentFrame;
#X obj 133 39 snapshot~;
#X obj 130 19 bng 15 250 50 0 empty empty empty 17 7 0 10 -262144 -1
-1;
#X floatatom 136 63 5 0 0 0 - - -;
#X obj 321 452 change;
#X obj 136 86 change;
#X obj 321 86 tgl 15 0 empty empty empty 17 7 0 10 -262144 -1 -1 0
1;
#X obj 340 375 env~;
#X floatatom 340 399 5 0 0 0 - - -;
#X obj 562 227 bng 15 250 50 0 empty empty empty 17 7 0 10 -262144
-1 -1;
#X obj 581 275 change;
#X obj 733 280 snapshot~;
#X obj 730 260 bng 15 250 50 0 empty empty empty 17 7 0 10 -262144
-1 -1;
#X floatatom 736 304 5 0 0 0 - - -;
#X obj 736 327 change;
#X obj 763 240 line~;
#X obj 1449 616 t l l;
#X obj 1449 640 t l l;
#X msg 1482 668 \$2;
#X obj 1450 700 pack 0 0;
#X obj 732 814 snapshot~;
#X obj 729 794 bng 15 250 50 0 empty empty empty 17 7 0 10 -262144
-1 -1;
#X floatatom 735 838 5 0 0 0 - - -;
#X obj 735 861 change;
#X obj 762 774 line~;
#X obj 779 837 r \$0_Shutter2;
#X msg 663 891 1;
#X obj 663 867 loadbang;
#X obj 581 251 f;
#X connect 0 0 8 0;
#X connect 1 0 11 0;
#X connect 8 0 75 0;
#X connect 11 0 25 0;
#X connect 12 0 16 1;
#X connect 13 0 16 2;
#X connect 14 0 16 3;
#X connect 15 0 16 4;
#X connect 16 0 1 0;
#X connect 17 0 12 0;
#X connect 17 0 13 0;
#X connect 18 0 159 0;
#X connect 19 0 18 0;
#X connect 20 0 21 0;
#X connect 21 0 24 0;
#X connect 22 0 32 0;
#X connect 23 0 33 0;
#X connect 24 0 22 0;
#X connect 24 0 23 0;
#X connect 24 0 34 0;
#X connect 24 0 43 0;
#X connect 24 0 45 0;
#X connect 26 0 36 0;
#X connect 27 0 26 1;
#X connect 27 0 36 0;
#X connect 27 0 108 0;
#X connect 28 0 37 0;
#X connect 29 0 28 1;
#X connect 29 0 37 0;
#X connect 29 0 109 0;
#X connect 30 0 38 0;
#X connect 31 0 30 1;
#X connect 31 0 38 0;
#X connect 34 0 35 0;
#X connect 36 0 120 1;
#X connect 37 0 121 1;
#X connect 38 0 151 1;
#X connect 39 0 122 1;
#X connect 40 0 25 2;
#X connect 40 0 49 0;
#X connect 40 0 123 1;
#X connect 41 0 39 0;
#X connect 41 0 64 1;
#X connect 42 0 40 0;
#X connect 42 0 63 1;
#X connect 43 0 44 0;
#X connect 45 0 46 0;
#X connect 47 0 124 1;
#X connect 48 0 8 0;
#X connect 50 0 22 1;
#X connect 50 0 23 1;
#X connect 50 0 34 1;
#X connect 50 0 43 1;
#X connect 50 0 45 1;
#X connect 51 0 50 0;
#X connect 52 0 24 0;
#X connect 53 0 55 0;
#X connect 54 0 16 0;
#X connect 55 0 143 0;
#X connect 56 0 53 0;
#X connect 56 0 168 0;
#X connect 57 0 60 0;
#X connect 57 0 136 0;
#X connect 59 0 61 0;
#X connect 59 0 137 0;
#X connect 60 0 159 0;
#X connect 61 0 106 0;
#X connect 62 0 63 0;
#X connect 62 0 64 0;
#X connect 63 0 40 0;
#X connect 64 0 39 0;
#X connect 65 0 66 0;
#X connect 66 0 62 0;
#X connect 66 0 67 0;
#X connect 67 0 125 1;
#X connect 68 0 69 0;
#X connect 68 0 154 0;
#X connect 69 0 67 0;
#X connect 69 0 186 0;
#X connect 70 0 71 0;
#X connect 71 0 53 0;
#X connect 72 0 73 0;
#X connect 73 0 156 0;
#X connect 75 1 106 0;
#X connect 77 0 79 0;
#X connect 77 0 155 0;
#X connect 77 1 178 0;
#X connect 79 0 90 0;
#X connect 80 0 81 0;
#X connect 80 0 86 0;
#X connect 81 0 85 0;
#X connect 82 0 81 1;
#X connect 83 0 84 0;
#X connect 84 0 82 0;
#X connect 85 0 89 0;
#X connect 87 0 82 0;
#X connect 88 0 190 1;
#X connect 90 0 93 0;
#X connect 91 0 90 1;
#X connect 92 0 91 0;
#X connect 96 0 79 0;
#X connect 97 0 98 0;
#X connect 97 0 79 0;
#X connect 99 0 178 0;
#X connect 100 0 97 0;
#X connect 101 0 99 0;
#X connect 102 0 107 0;
#X connect 104 0 103 0;
#X connect 104 0 105 1;
#X connect 105 0 178 0;
#X connect 106 0 47 0;
#X connect 106 0 177 0;
#X connect 106 1 105 0;
#X connect 107 0 106 0;
#X connect 108 0 111 1;
#X connect 109 0 112 1;
#X connect 110 0 113 0;
#X connect 111 0 26 0;
#X connect 112 0 28 0;
#X connect 113 0 111 0;
#X connect 113 0 112 0;
#X connect 114 0 113 1;
#X connect 115 0 114 0;
#X connect 116 0 117 0;
#X connect 117 0 114 0;
#X connect 118 0 119 0;
#X connect 119 0 67 0;
#X connect 119 0 186 0;
#X connect 120 0 142 0;
#X connect 121 0 142 1;
#X connect 122 0 25 1;
#X connect 122 0 152 0;
#X connect 123 0 25 2;
#X connect 123 0 152 1;
#X connect 124 0 131 0;
#X connect 125 0 130 0;
#X connect 127 0 125 0;
#X connect 128 0 124 0;
#X connect 128 0 174 0;
#X connect 129 0 160 0;
#X connect 133 0 67 0;
#X connect 133 0 186 0;
#X connect 134 0 133 0;
#X connect 135 0 138 0;
#X connect 136 0 159 0;
#X connect 137 0 106 0;
#X connect 138 0 156 0;
#X connect 139 0 140 0;
#X connect 140 0 141 0;
#X connect 140 0 159 0;
#X connect 142 0 146 1;
#X connect 143 0 54 0;
#X connect 143 1 144 0;
#X connect 143 1 171 0;
#X connect 143 2 126 0;
#X connect 145 0 150 0;
#X connect 146 0 147 0;
#X connect 147 0 11 1;
#X connect 147 1 11 2;
#X connect 147 2 11 3;
#X connect 148 0 149 0;
#X connect 149 0 25 1;
#X connect 149 1 25 2;
#X connect 150 0 153 0;
#X connect 150 1 120 0;
#X connect 150 2 121 0;
#X connect 150 3 151 0;
#X connect 151 0 142 2;
#X connect 152 0 148 1;
#X connect 153 0 148 0;
#X connect 153 1 122 0;
#X connect 153 2 123 0;
#X connect 153 3 146 0;
#X connect 154 0 67 0;
#X connect 154 0 186 0;
#X connect 156 0 77 0;
#X connect 157 0 158 0;
#X connect 159 0 160 0;
#X connect 159 0 163 0;
#X connect 159 0 169 0;
#X connect 160 0 166 0;
#X connect 162 0 164 0;
#X connect 163 0 165 0;
#X connect 164 0 163 0;
#X connect 165 0 167 0;
#X connect 166 0 17 0;
#X connect 167 0 56 0;
#X connect 169 0 170 0;
#X connect 171 0 190 0;
#X connect 172 0 54 1;
#X connect 173 0 175 0;
#X connect 174 0 173 0;
#X connect 175 0 176 0;
#X connect 176 0 80 0;
#X connect 177 0 173 0;
#X connect 178 0 179 0;
#X connect 178 1 79 1;
#X connect 179 0 181 0;
#X connect 179 1 180 0;
#X connect 180 0 181 1;
#X connect 181 0 177 0;
#X connect 182 0 184 0;
#X connect 183 0 182 0;
#X connect 184 0 185 0;
#X connect 185 0 62 0;
#X connect 185 0 110 0;
#X connect 186 0 182 0;
#X connect 187 0 183 0;
#X connect 188 0 186 0;
#X connect 189 0 188 0;
#X connect 190 0 172 0;
