#N canvas 795 50 565 855 12;
#X declare -path ./abstractions/;
#X declare -lib Gem;
#X declare -lib cyclone;
#X obj 130 182 declare -path ./abstractions/;
#X obj 130 203 declare -lib Gem;
#X obj 130 226 declare -lib cyclone;
#X obj 1366 194 bng 15 250 50 0 empty empty empty 17 7 0 10 -262144
-1 -1;
#X msg 1095 445 connect 127.0.0.1 3005;
#N canvas 143 52 1279 854 connection 0;
#X obj 400 100 cnv 5 550 22 empty empty empty 20 12 0 14 -220729 -66577
0;
#X obj 404 105 tgl 12 0 \$0-osctgl_snd \$0-osctgl_rcv \ ...no\ connection
22 5 0 11 -225281 -225281 -1 0 1;
#X symbolatom 537 521 25 0 0 0 - - -;
#X msg 537 544 label \$1;
#X obj 15 63 oscparse;
#X obj 15 86 list trim;
#X obj 15 20 inlet;
#X obj 16 111 s \$0_oscToRoute;
#X obj 537 423 slash.oscroute /hello;
#X obj 538 402 r \$0_oscToRoute;
#X obj 537 497 makefilename %s;
#X msg 565 456 1;
#X obj 404 53 loadbang;
#X msg 404 77 0;
#X obj 400 122 cnv 25 550 25 empty \$0_status - 5 10 0 10 -66577 -204786
0;
#N canvas 881 1111 450 808 osc_from 0;
#X msg 96 230 label \$1;
#X msg 119 156 set \$1;
#X obj 119 180 makefilename;
#X obj 98 75 unpack s f;
#X obj 157 121 makefilename osc\ from\ %%s\ port:\ %d;
#X obj 93 24 r \$0_oscFrom;
#X msg 173 230 1;
#X obj 98 49 t a b;
#N canvas 0 50 863 627 tgl_color 0;
#X obj 161 85 sel 0 1;
#X msg 161 186 color #dd0000 #dd0000 #000000;
#X obj 85 145 loadbang;
#X msg 143 339 label \ ...no\ connection;
#X obj 161 62 inlet;
#X obj 155 398 outlet;
#X obj 215 214 t b b;
#X msg 197 254 color #00ff22 #00ff22 #000000;
#X msg 273 279 color #00cc22 #00cc22 #000000;
#X obj 271 217 del 150;
#X connect 0 0 1 0;
#X connect 0 1 6 0;
#X connect 1 0 5 0;
#X connect 2 0 1 0;
#X connect 2 0 3 0;
#X connect 3 0 5 0;
#X connect 4 0 0 0;
#X connect 6 0 9 0;
#X connect 6 1 7 0;
#X connect 7 0 5 0;
#X connect 8 0 5 0;
#X connect 9 0 8 0;
#X restore 249 304 pd tgl_color;
#X obj 96 254 s \$0-osctgl_rcv;
#X obj 249 327 s \$0-osctgl_rcv;
#X obj 248 280 r \$0-osctgl_snd;
#X connect 0 0 9 0;
#X connect 1 0 2 0;
#X connect 2 0 0 0;
#X connect 3 0 2 0;
#X connect 3 1 4 0;
#X connect 4 0 1 0;
#X connect 5 0 7 0;
#X connect 6 0 9 0;
#X connect 7 0 3 0;
#X connect 7 1 6 0;
#X connect 8 0 10 0;
#X connect 11 0 8 0;
#X restore 468 53 pd osc_from;
#N canvas 478 252 665 584 osc_status 0;
#X msg 61 389 47 116 105 108 101 32 97 108 108 32 97 108 112 104 97
32 48 32 48 32;
#X obj 103 169 ls.iter;
#X obj 72 114 t b a b;
#X msg 96 345 add2 \$1;
#X obj 95 273 list fromsymbol;
#X obj 174 299 ls.iter;
#X msg 95 323 32;
#X obj 61 514 list tosymbol;
#X obj 95 297 t b l;
#X msg 61 537 label \$1;
#X obj 61 561 s \$0_status;
#X msg 122 137 set 47;
#X obj 70 79 r \$0_oscToRoute;
#X obj 185 511 loadbang;
#X msg 185 535 label -;
#X obj 95 239 list prepend;
#X obj 200 185 makefilename %s;
#X obj 196 157 route float;
#X connect 0 0 7 0;
#X connect 1 0 17 0;
#X connect 2 0 0 0;
#X connect 2 1 1 0;
#X connect 2 2 11 0;
#X connect 3 0 0 0;
#X connect 4 0 8 0;
#X connect 5 0 3 0;
#X connect 6 0 3 0;
#X connect 7 0 9 0;
#X connect 8 0 6 0;
#X connect 8 1 5 0;
#X connect 9 0 10 0;
#X connect 11 0 0 0;
#X connect 12 0 2 0;
#X connect 13 0 14 0;
#X connect 14 0 10 0;
#X connect 15 0 4 0;
#X connect 16 0 15 0;
#X connect 17 0 16 0;
#X connect 17 1 15 0;
#X restore 468 74 pd osc_status;
#X obj 180 65 s \$0_oscFrom;
#X obj 209 155 print from;
#X obj 97 217 print mess;
#X obj 15 42 netreceive -u -b -f 3003;
#X connect 2 0 3 0;
#X connect 4 0 5 0;
#X connect 5 0 7 0;
#X connect 5 0 19 0;
#X connect 6 0 20 0;
#X connect 8 0 10 0;
#X connect 8 0 11 0;
#X connect 9 0 8 0;
#X connect 10 0 2 0;
#X connect 12 0 13 0;
#X connect 13 0 1 0;
#X connect 20 0 4 0;
#X connect 20 1 17 0;
#X connect 20 1 18 0;
#X coords 0 -1 1 1 550 47 2 400 100;
#X restore 5 65 pd connection;
#N canvas -32 148 1238 808 pixbuffer 0;
#X floatatom 220 113 5 0 0 0 - - -;
#X obj 150 20 bng 15 250 50 0 empty empty empty 17 7 0 10 -262144 -1
-1;
#X obj 220 90 v \$0_framedur;
#X obj 150 208 /;
#X obj 150 230 expr ceil($f1);
#X floatatom 150 252 5 0 0 0 - - -;
#X msg 150 329 resize \$1;
#X obj 170 274 s \$0_pixbufferSize;
#X obj 150 62 t b b;
#X obj 150 112 * 60000;
#X text 35 38 pixbuffer size;
#X text 363 362 <- use to test \, but not for performance (kill every
memory demanding software before!);
#X obj 178 12 loadbang;
#X obj 306 274 v \$0_pixbufferSize;
#X obj 177 36 del 30;
#X obj 58 4 inlet;
#X obj 149 389 pix_buffer \$0camin 3601;
#X msg 150 88 5;
#X msg 186 365 allocate 640 360 \$1;
#X obj 150 305 t f f;
#X connect 0 0 3 1;
#X connect 1 0 8 0;
#X connect 2 0 0 0;
#X connect 3 0 4 0;
#X connect 4 0 5 0;
#X connect 5 0 7 0;
#X connect 5 0 19 0;
#X connect 6 0 16 0;
#X connect 8 0 17 0;
#X connect 8 1 2 0;
#X connect 9 0 3 0;
#X connect 12 0 14 0;
#X connect 14 0 1 0;
#X connect 15 0 1 0;
#X connect 17 0 9 0;
#X connect 18 0 16 0;
#X connect 19 0 6 0;
#X connect 19 1 18 0;
#X restore 132 500 pd pixbuffer;
#N canvas 281 40 1278 744 GEM_settings 0;
#X obj 100 122 cnv 15 120 100 empty empty empty 20 12 0 14 -195960
-66577 0;
#N canvas -48 93 1600 817 camera_in 0;
#X msg 140 117 dialog;
#X msg 112 136 device 0;
#N canvas 162 133 570 420 serin 0;
#X obj 205 60 cnv 20 20 20 empty \$0-open-canvas 0 4 10 0 16 -233017
-1 0;
#X obj 60 61 hradio 18 1 1 8 empty empty empty 0 -6 0 8 -225271 -1
-1 0;
#X obj 60 13 inlet;
#X msg 200 202 label \$1;
#X obj 200 180 makefilename %d;
#X obj 59 108 int;
#X obj 59 337 outlet;
#X msg 201 306 set \$1 \$2;
#X obj 59 266 trigger bang anything;
#X obj 201 286 list;
#X obj 200 225 send \$0-open-canvas;
#X msg 60 210 device \$1;
#X connect 1 0 5 0;
#X connect 2 0 1 0;
#X connect 3 0 10 0;
#X connect 4 0 3 0;
#X connect 5 0 4 0;
#X connect 5 0 11 0;
#X connect 7 0 6 0;
#X connect 8 0 6 0;
#X connect 8 1 9 0;
#X connect 9 0 7 0;
#X connect 11 0 8 0;
#X coords 0 -1 1 1 165 20 1 60 60;
#X restore 26 95 pd serin;
#X obj 218 655 pix_buffer_write \$0camin;
#X msg 158 171 enumerate;
#X obj 381 628 r \$0-currentFrame;
#X obj 310 190 pix_video;
#X obj 512 35 t b b b;
#X obj 472 126 del 400, f 12;
#X obj 514 8 inlet;
#X obj 642 341 route dimen;
#X obj 642 365 s \$0camdimen;
#X msg 126 243 colorspace RGBA;
#X obj 307 599 s \$0_to_frameCounter;
#X obj 329 101 world_light;
#X obj 506 439 bng 15 250 50 0 empty empty empty 17 7 0 10 -262144
-1 -1;
#X obj 280 269 t a b a a;
#X floatatom 415 665 5 0 0 0 - - -;
#X msg 150 203 enumProps;
#X obj 808 480 print info;
#X obj 319 528 metro;
#X obj 314 462 tgl 15 0 empty empty empty 17 7 0 10 -262144 -1 -1 1
1;
#X floatatom 389 532 5 0 0 0 - - -;
#X floatatom 389 555 5 0 0 0 - - -;
#X obj 314 482 t f f;
#X obj 366 497 v \$0_framedur;
#X obj 364 471 sel 1;
#X msg 314 423 1;
#X obj 234 576 gemlist;
#X obj 259 553 t b b;
#X obj 488 61 del 600;
#X obj 315 75 gemhead 1;
#X text 764 170 <camera must have the given resolution;
#X obj 695 95 r \$0_dimen;
#X msg 695 119 dimen \$1 \$2;
#X msg 474 168 dimen 640 360;
#X text 312 237 [ix_resize 960 540] < maybe use again;
#X msg 869 256 device OBS\ Virtual\ Camera videoInput;
#X msg 830 363 device HD\ Pro\ Webcam\ C920;
#X msg 568 290 device 1;
#X msg 682 307 set device \$1;
#X obj 605 29 bng 15 250 50 0 empty empty empty 17 7 0 10 -262144 -1
-1;
#X floatatom 638 188 5 0 0 0 - - -;
#X obj 689 227 t b f;
#X msg 161 416 cursor 0;
#X obj 196 355 del 1000;
#X obj 162 452 s \$0gemwinR;
#X connect 0 0 6 0;
#X connect 1 0 6 0;
#X connect 2 0 1 0;
#X connect 4 0 6 0;
#X connect 5 0 3 1;
#X connect 5 0 17 0;
#X connect 6 0 16 0;
#X connect 6 1 19 0;
#X connect 7 0 30 0;
#X connect 7 1 8 0;
#X connect 7 2 39 0;
#X connect 8 0 35 0;
#X connect 9 0 7 0;
#X connect 10 0 11 0;
#X connect 12 0 6 0;
#X connect 16 0 28 0;
#X connect 16 1 15 0;
#X connect 16 1 27 0;
#X connect 16 1 45 0;
#X connect 18 0 6 0;
#X connect 20 0 29 0;
#X connect 21 0 24 0;
#X connect 22 0 23 0;
#X connect 24 0 20 0;
#X connect 24 1 26 0;
#X connect 25 0 20 1;
#X connect 25 0 22 0;
#X connect 26 0 25 0;
#X connect 27 0 21 0;
#X connect 28 0 3 0;
#X connect 29 0 28 0;
#X connect 29 1 13 0;
#X connect 30 0 39 0;
#X connect 31 0 14 0;
#X connect 31 0 6 0;
#X connect 33 0 34 0;
#X connect 34 0 6 0;
#X connect 35 0 6 0;
#X connect 35 0 10 0;
#X connect 37 0 16 0;
#X connect 39 0 6 0;
#X connect 40 0 39 0;
#X connect 41 0 7 0;
#X connect 42 0 43 0;
#X connect 43 0 41 0;
#X connect 43 1 40 0;
#X connect 44 0 46 0;
#X connect 45 0 44 0;
#X restore 102 144 pd camera_in;
#X obj 102 126 bng 15 250 50 0 empty empty empty 17 7 0 10 -262144
-1 -1;
#X text 121 124 start camera;
#X text 101 198 to your setup;
#X text 101 183 to change camera;
#X text 101 166 open manually;
#X obj 100 21 cnv 15 120 100 empty empty empty 20 12 0 14 -220983 -66577
0;
#N canvas 0 23 860 585 gemwin 0;
#X obj 67 89 outlet;
#X obj 67 10 inlet;
#X msg 67 70 set destroy;
#X msg 132 112 create \, 1;
#X msg 198 112 destroy;
#X msg 156 71 set create;
#X obj 67 41 route create;
#X obj 239 11 inlet;
#X msg 203 167 lighting 1;
#X obj 204 140 loadbang;
#X obj 132 136 gemwin;
#X connect 1 0 6 0;
#X connect 2 0 0 0;
#X connect 3 0 10 0;
#X connect 4 0 10 0;
#X connect 5 0 0 0;
#X connect 6 0 2 0;
#X connect 6 0 3 0;
#X connect 6 1 5 0;
#X connect 6 1 4 0;
#X connect 7 0 10 0;
#X connect 8 0 10 0;
#X connect 9 0 8 0;
#X restore 236 181 pd gemwin;
#X msg 416 179 destroy;
#X obj 236 137 r \$0gemwinL;
#X obj 296 159 r \$0gemwinR;
#X obj 104 44 vradio 15 1 0 4 empty empty empty 0 -8 0 10 -262144 -1
-1 1;
#X text 121 41 destroy;
#X text 114 102 (main screen);
#X text 119 88 fullscreen;
#X text 120 58 win (HD);
#X text 120 73 win (full HD);
#X obj 100 223 cnv 15 120 200 empty empty empty 20 12 0 14 -231587
-66577 0;
#N canvas 237 345 445 511 mousemove 0;
#X obj 129 8 gemmouse;
#X obj 136 88 pack;
#X obj 136 110 spigot;
#X obj 136 131 unpack;
#X obj 136 196 t f f;
#X obj 36 16 gemkeyname;
#X obj 36 39 pack 0 s;
#X obj 36 62 route 1;
#X msg 36 107 0;
#X msg 136 365 view \$2 \$3 \$1 0 0 0 0 1 0;
#X obj 136 173 +;
#X obj 136 221 * -1;
#X obj 201 237 t f f;
#X obj 201 174 +;
#X obj 201 262 * -1;
#X obj 36 129 t f f f;
#X text 61 106 reset;
#N canvas 293 199 304 356 coordinates 0;
#X obj 89 52 inlet;
#X obj 94 331 outlet;
#X obj 193 62 atan;
#X msg 193 41 1;
#X obj 193 84 / 45;
#X obj 193 20 loadbang;
#X text 94 29 r phi theta;
#X obj 89 78 unpack 0 0 0;
#X obj 128 123 *;
#X obj 168 123 *;
#X obj 120 197 cos;
#X obj 150 198 sin;
#X obj 120 166 t f f;
#X obj 183 198 cos;
#X obj 213 199 sin;
#X obj 183 167 t f f;
#X obj 120 230 *;
#X obj 150 231 *;
#X obj 85 275 *;
#X obj 125 275 *;
#X obj 174 277 *;
#X obj 66 242 t f f f;
#X obj 91 308 pack 0 0 0;
#X connect 0 0 7 0;
#X connect 2 0 4 0;
#X connect 3 0 2 0;
#X connect 4 0 9 1;
#X connect 4 0 8 1;
#X connect 5 0 3 0;
#X connect 7 0 21 0;
#X connect 7 1 8 0;
#X connect 7 2 9 0;
#X connect 8 0 12 0;
#X connect 9 0 15 0;
#X connect 10 0 16 0;
#X connect 11 0 17 0;
#X connect 12 0 10 0;
#X connect 12 1 11 0;
#X connect 13 0 16 1;
#X connect 13 0 17 1;
#X connect 14 0 20 1;
#X connect 15 0 13 0;
#X connect 15 1 14 0;
#X connect 16 0 18 1;
#X connect 17 0 19 1;
#X connect 18 0 22 0;
#X connect 19 0 22 1;
#X connect 20 0 22 2;
#X connect 21 0 18 0;
#X connect 21 1 19 0;
#X connect 21 2 20 0;
#X connect 22 0 1 0;
#X restore 136 310 pd coordinates;
#X obj 136 249 t b f;
#X obj 136 289 pack 4 0 0;
#X obj 177 46 t f f;
#X obj 177 67 -;
#X obj 136 45 t f f;
#X obj 136 66 -;
#X obj 278 57 s stay_cube;
#X obj 278 35 select 1;
#X obj 201 151 * 0.5;
#X obj 136 153 * 0.5;
#X obj 201 209 clip -90 90;
#N canvas 20 394 450 300 space 0;
#X obj 42 13 inlet;
#X obj 42 35 symbol;
#X obj 42 87 select space;
#X obj 123 111 select space;
#X obj 204 87 makefilename %c;
#X msg 204 59 32;
#X obj 42 57 t s b;
#X obj 42 159 t b;
#X obj 42 181 outlet;
#X connect 0 0 1 0;
#X connect 1 0 6 0;
#X connect 2 0 7 0;
#X connect 2 1 3 0;
#X connect 3 0 7 0;
#X connect 4 0 3 1;
#X connect 5 0 4 0;
#X connect 6 0 2 0;
#X connect 6 1 5 0;
#X connect 7 0 8 0;
#X restore 36 85 pd space;
#X obj 136 432 s \$0gemwinR;
#X obj 176 410 spigot;
#X obj 349 291 inlet;
#X connect 0 0 22 0;
#X connect 0 1 20 0;
#X connect 0 2 2 1;
#X connect 0 4 25 0;
#X connect 1 0 2 0;
#X connect 2 0 3 0;
#X connect 3 0 27 0;
#X connect 3 1 26 0;
#X connect 4 0 11 0;
#X connect 4 1 10 1;
#X connect 5 0 6 0;
#X connect 5 1 6 1;
#X connect 6 0 7 0;
#X connect 7 0 29 0;
#X connect 8 0 15 0;
#X connect 9 0 31 0;
#X connect 10 0 4 0;
#X connect 11 0 18 0;
#X connect 12 0 14 0;
#X connect 12 1 13 1;
#X connect 13 0 28 0;
#X connect 14 0 19 2;
#X connect 15 0 10 0;
#X connect 15 1 10 1;
#X connect 15 1 13 0;
#X connect 15 2 13 1;
#X connect 17 0 9 0;
#X connect 18 0 19 0;
#X connect 18 1 19 1;
#X connect 19 0 17 0;
#X connect 20 0 21 1;
#X connect 20 1 21 0;
#X connect 21 0 1 1;
#X connect 22 0 23 1;
#X connect 22 1 23 0;
#X connect 23 0 1 0;
#X connect 25 0 24 0;
#X connect 26 0 13 0;
#X connect 27 0 10 0;
#X connect 28 0 12 0;
#X connect 29 0 8 0;
#X connect 31 0 30 0;
#X connect 32 0 31 1;
#X restore 93 435 pd mousemove;
#X msg 242 422 view \$1 \$2 \$3 \$4 \$5 \$6 \$7 \$8 \$9;
#N canvas 380 50 1058 484 view 0;
#X floatatom 102 149 5 0 0 2 X - -;
#X obj 166 22 loadbang;
#X obj 300 462 outlet;
#X obj 335 304 t b f;
#X obj 300 304 t b f;
#X obj 375 304 t b f;
#X msg 174 79 set 4;
#X floatatom 141 149 5 0 0 2 Y - -;
#X obj 410 304 t b f;
#X obj 300 401 pack 0 0 4 0 0 0 0 1 0;
#X floatatom 181 149 5 0 0 2 Z - -;
#X floatatom 102 114 5 0 0 2 x - -;
#X floatatom 141 114 5 0 0 2 y - -;
#X floatatom 181 114 5 0 0 2 z - -;
#X floatatom 103 184 5 0 0 2 upX - -;
#X floatatom 142 184 5 0 0 2 upY - -;
#X floatatom 182 184 5 0 0 2 upZ - -;
#X obj 445 304 t b f;
#X obj 485 304 t b f;
#X obj 520 304 t b f;
#X obj 555 304 t b f;
#X obj 485 326 t b;
#X obj 375 326 t b;
#X msg 300 423 set view \$1 \$2 \$3 \$4 \$5 \$6 \$7 \$8 \$9 \, bang
;
#X msg 251 22 set view \, adddollar 1 \, adddollar 2 \, adddollar 3
\, adddollar 4 \, adddollar 5 \, adddollar 6 \, adddollar 7 \, adddollar
8 \, adddollar 9;
#X obj 166 44 t b b b;
#X msg 359 79 set 1;
#X connect 0 0 5 0;
#X connect 1 0 25 0;
#X connect 3 0 9 0;
#X connect 3 1 9 2;
#X connect 4 0 9 0;
#X connect 4 1 9 1;
#X connect 5 0 22 0;
#X connect 5 1 9 3;
#X connect 6 0 13 0;
#X connect 7 0 8 0;
#X connect 8 0 22 0;
#X connect 8 1 9 4;
#X connect 9 0 23 0;
#X connect 10 0 17 0;
#X connect 11 0 9 0;
#X connect 12 0 4 0;
#X connect 13 0 3 0;
#X connect 14 0 18 0;
#X connect 15 0 19 0;
#X connect 16 0 20 0;
#X connect 17 0 22 0;
#X connect 17 1 9 5;
#X connect 18 0 21 0;
#X connect 18 1 9 6;
#X connect 19 0 21 0;
#X connect 19 1 9 7;
#X connect 20 0 21 0;
#X connect 20 1 9 8;
#X connect 21 0 22 0;
#X connect 22 0 9 0;
#X connect 23 0 2 0;
#X connect 24 0 2 0;
#X connect 25 0 6 0;
#X connect 25 1 26 0;
#X connect 25 2 24 0;
#X connect 26 0 15 0;
#X coords 0 -1 1 1 120 105 2 100 100;
#X restore 100 224 pd view;
#X msg 242 529 perspec \$1 \$2 \$3 \$4 \$5 \$6;
#N canvas 1299 508 544 500 perspec 0;
#X obj 90 417 outlet;
#X obj 268 262 t f f;
#X obj 268 287 * -1;
#X obj 90 257 t f f;
#X obj 90 282 * -1;
#X obj 90 356 pack -1 1 -1 1 1 20;
#X msg 90 378 set perspec \$1 \$2 \$3 \$4 \$5 \$6 \, bang;
#X msg 172 442 set perspec \, adddollar 1 \, adddollar 2 \, adddollar
3 \, adddollar 4 \, adddollar 5 \, adddollar 6;
#X floatatom 102 105 5 0.1 5 1 x_wideness - -;
#X floatatom 103 127 5 0.1 5 1 y_wideness - -;
#X floatatom 103 148 5 0 0 1 z_depth - -;
#X obj 360 185 select 1;
#X obj 405 208 t b f f;
#X obj 249 215 t b f f;
#X obj 204 192 select 0;
#X obj 360 207 f 20;
#X obj 204 213 f 1;
#X msg 204 235 set \$1;
#X msg 360 229 set \$1;
#X obj 134 205 t b f f;
#X obj 89 182 select 0;
#X obj 89 203 f 1;
#X msg 89 225 set \$1;
#X obj 328 86 loadbang;
#X obj 328 108 t b b;
#X obj 328 130 t b b b;
#X connect 1 0 2 0;
#X connect 1 1 5 3;
#X connect 2 0 5 2;
#X connect 3 0 4 0;
#X connect 3 1 5 1;
#X connect 4 0 5 0;
#X connect 5 0 6 0;
#X connect 6 0 0 0;
#X connect 7 0 0 0;
#X connect 8 0 20 0;
#X connect 9 0 14 0;
#X connect 10 0 11 0;
#X connect 11 0 15 0;
#X connect 11 1 12 0;
#X connect 12 0 5 0;
#X connect 12 1 5 5;
#X connect 12 2 15 1;
#X connect 13 0 5 0;
#X connect 13 1 1 0;
#X connect 13 2 16 1;
#X connect 14 0 16 0;
#X connect 14 1 13 0;
#X connect 15 0 18 0;
#X connect 16 0 17 0;
#X connect 17 0 9 0;
#X connect 18 0 10 0;
#X connect 19 1 3 0;
#X connect 19 2 21 1;
#X connect 20 0 21 0;
#X connect 20 1 19 0;
#X connect 21 0 22 0;
#X connect 22 0 8 0;
#X connect 23 0 24 0;
#X connect 24 0 25 0;
#X connect 24 1 7 0;
#X connect 25 0 21 0;
#X connect 25 1 16 0;
#X connect 25 2 15 0;
#X coords 0 -1 1 1 120 67 2 100 100;
#X restore 100 329 pd perspec;
#X obj 223 619 s \$0gemwinR;
#X obj 102 399 tgl 15 0 empty empty empty 17 7 0 10 -262144 -1 -1 0
1;
#X text 117 400 mouse perspect;
#N canvas 1260 241 691 300 select_video_mode 1;
#X obj 23 9 inlet;
#X floatatom 51 117 5 0 0 0 - - -;
#X msg 151 163 reset \, create \, fullscreen 1 \, 1;
#X msg 50 172 destroy;
#X msg 150 138 reset \, create \, 1 \, offset 0 38 \, dimen 1980 1080
;
#X obj 58 141 sel 0 1 2 3;
#X obj 112 232 outlet;
#X msg 151 111 reset \, create \, 1 \, dimen 1280 720;
#X msg 212 228 dimen 1280 720;
#X msg 210 258 reset \, create \, 1 \,;
#X msg 338 221 reset;
#X msg 180 198 create \, 1 \,;
#X connect 0 0 1 0;
#X connect 1 0 5 0;
#X connect 2 0 6 0;
#X connect 3 0 6 0;
#X connect 4 0 6 0;
#X connect 5 0 3 0;
#X connect 5 1 7 0;
#X connect 5 2 4 0;
#X connect 5 3 2 0;
#X connect 7 0 6 0;
#X connect 8 0 6 0;
#X connect 9 0 6 0;
#X connect 10 0 6 0;
#X connect 11 0 6 0;
#X restore 236 60 pd select_video_mode;
#X obj 237 87 s \$0gemwinR;
#X obj 677 140 v \$0_framerate;
#X msg 765 85 frame \$1;
#X obj 722 11 loadbang;
#X obj 680 190 v \$0_framedur;
#X obj 602 192 /;
#X floatatom 632 192 5 0 0 0 - - -;
#X msg 602 164 1000 \$1;
#X obj 601 216 s \$0_framedur;
#X obj 766 109 s \$0gemwinR;
#X text 751 38 frame rate!;
#X obj 741 61 t f f f;
#X floatatom 182 22 5 0 0 0 fps #0_viewfps #0_fpsnew;
#X msg 877 81 set \$1;
#X obj 904 120 s \$0_viewfps;
#X obj 851 19 r \$0_fpsnew;
#X msg 722 38 25;
#X obj 1108 202;
#X connect 2 0 1 0;
#X connect 8 0 9 0;
#X connect 9 0 8 0;
#X connect 10 0 8 0;
#X connect 11 0 8 1;
#X connect 12 0 27 0;
#X connect 20 0 24 0;
#X connect 21 0 20 0;
#X connect 22 0 24 0;
#X connect 23 0 22 0;
#X connect 25 0 19 0;
#X connect 27 0 28 0;
#X connect 30 0 37 0;
#X connect 31 0 44 0;
#X connect 33 0 34 0;
#X connect 33 0 36 0;
#X connect 35 0 33 0;
#X connect 39 0 35 0;
#X connect 39 1 29 0;
#X connect 39 2 30 0;
#X connect 39 2 41 0;
#X connect 41 0 42 0;
#X connect 43 0 39 0;
#X connect 44 0 39 0;
#X coords 0 -1 1 1 120 400 2 100 20;
#X restore 6 116 pd GEM_settings;
#N canvas 423 1208 762 627 testvideo 0;
#X obj 632 250 inlet;
#X obj 384 578 rectangle 8 4.5;
#X floatatom 393 287 5 0 1 1 pass - -;
#X floatatom 408 307 5 0 1 1 other - -;
#X msg 422 332 0.6 0.6 0.6;
#X msg 437 356 0.2 0.2 0.2;
#X obj 374 234 vsl 15 128 0 1 0 0 empty empty empty 0 -9 0 10 -262144
-1 -1 0 1;
#X obj 106 258 gemhead;
#X obj 379 470 pix_texture;
#X obj 379 381 pix_alpha;
#X obj 93 333 alpha;
#X obj 567 362 line;
#X obj 568 388 > 0;
#X obj 102 101 tgl 15 0 empty empty empty 17 7 0 10 -262144 -1 -1 0
1;
#X text 116 99 test video in;
#X obj 261 56 r \$0_oscToRoute;
#X obj 260 77 slash.oscroute /video/test;
#X obj 260 101 route float list;
#X msg 568 410 set \$1;
#X obj 657 340 loadbang;
#X msg 660 376 0;
#X obj 97 299 t a b;
#X obj 209 338 f;
#X obj 93 394 pix_buffer_read \$0camin;
#X floatatom 256 341 5 0 0 0 - - -;
#X obj 217 306 r \$0-currentFrame;
#X msg 559 329 \$1 150;
#X connect 0 0 26 0;
#X connect 2 0 9 1;
#X connect 3 0 9 2;
#X connect 4 0 9 3;
#X connect 5 0 9 4;
#X connect 6 0 2 0;
#X connect 6 0 3 0;
#X connect 7 0 21 0;
#X connect 8 0 1 0;
#X connect 9 0 8 0;
#X connect 10 0 23 0;
#X connect 11 0 6 0;
#X connect 11 0 12 0;
#X connect 12 0 7 0;
#X connect 12 0 18 0;
#X connect 13 0 26 0;
#X connect 15 0 16 0;
#X connect 16 0 17 0;
#X connect 17 0 26 0;
#X connect 17 1 11 0;
#X connect 18 0 13 0;
#X connect 19 0 20 0;
#X connect 20 0 18 0;
#X connect 20 0 13 0;
#X connect 21 0 10 0;
#X connect 21 1 22 0;
#X connect 22 0 23 1;
#X connect 23 0 9 0;
#X connect 25 0 22 0;
#X connect 25 0 24 0;
#X connect 26 0 11 0;
#X coords 0 -1 1 1 112 19 2 100 100;
#X restore 129 372 pd testvideo;
#X text 1074 273 calcular em outro lugar posição de cada tile;
#X obj 131 330 tgl 15 0 empty empty empty 17 7 0 10 -262144 -1 -1 0
1;
#X floatatom 411 160 5 0 0 0 - - -;
#X text 455 159 delayfactor;
#X obj 411 116 loadbang;
#X obj 411 182 s \$0delfact;
#X msg 411 138 1;
#X obj 1271 816 array define tile;
#X obj 1004 672 s bangger;
#X obj 1004 653 bng 15 250 50 0 empty empty empty 17 7 0 10 -262144
-1 -1;
#N canvas 210 23 1227 848 frametimer 0;
#X obj 84 494 f;
#X obj 139 494 + 1;
#X floatatom 84 518 5 0 0 0 - - -;
#X obj 84 540 s \$0-currentFrame;
#X obj 139 518 mod 1000;
#X obj 185 470 r \$0_pixbufferSize;
#X floatatom 185 494 5 0 0 0 - - -;
#X obj 87 196 r \$0_to_frameCounter;
#X obj 69 294 spigot;
#X obj 137 294 tgl 15 0 empty empty empty 17 7 0 10 -262144 -1 -1 0
1;
#X msg 313 224 1;
#X msg 354 242 0;
#X obj 103 234 bng 15 250 50 0 empty empty empty 17 7 0 10 -262144
-1 -1;
#X obj 103 419 loadbang;
#X msg 103 470 0;
#X obj 225 121 inlet;
#X obj 560 36 r \$0_oscToRoute;
#X obj 559 57 slash.oscroute /timer;
#X obj 166 346 s \$0_resetframeCounter;
#X obj 137 314 t f b;
#X obj 172 426 r \$0_resetframeCounter;
#X msg 549 113 set \$1;
#X msg 549 137 start;
#X obj 413 180 bng 15 250 50 0 empty empty empty 17 7 0 10 -262144
-1 -1;
#X obj 443 181 bng 15 250 50 0 empty empty empty 17 7 0 10 -262144
-1 -1;
#X obj 320 121 sel start stop 1 0;
#X obj 413 484 outlet;
#X msg 408 410 set \$1;
#X connect 0 0 1 0;
#X connect 0 0 2 0;
#X connect 1 0 4 0;
#X connect 2 0 3 0;
#X connect 4 0 0 1;
#X connect 5 0 6 0;
#X connect 6 0 4 1;
#X connect 7 0 12 0;
#X connect 7 0 8 0;
#X connect 8 0 0 0;
#X connect 9 0 19 0;
#X connect 9 0 27 0;
#X connect 10 0 9 0;
#X connect 11 0 9 0;
#X connect 13 0 14 0;
#X connect 14 0 0 1;
#X connect 15 0 9 0;
#X connect 16 0 17 0;
#X connect 17 0 21 0;
#X connect 17 0 25 0;
#X connect 19 0 8 1;
#X connect 19 1 18 0;
#X connect 20 0 14 0;
#X connect 21 0 22 0;
#X connect 25 0 10 0;
#X connect 25 1 11 0;
#X connect 25 2 23 0;
#X connect 25 2 10 0;
#X connect 25 3 24 0;
#X connect 25 3 11 0;
#X connect 27 0 26 0;
#X restore 130 349 pd frametimer;
#N canvas 393 209 1047 669 batchcommands_manager 0;
#N canvas 432 152 1071 652 tilesfreeze 0;
#X text 613 82 timeago timetogo grainmin grainmax tiles;
#X obj 172 155 list split 4;
#X obj 61 274 list store;
#X obj 188 221 list store;
#X obj 144 190 t b l;
#X obj 188 245 ls.iter;
#X obj 86 321 list prepend;
#X obj 188 269 t b f;
#X obj 324 79 r \$0_oscToRoute;
#X obj 488 331 list store;
#X obj 488 355 ls.iter;
#X obj 386 431 list prepend;
#X obj 488 379 t b f;
#X obj 428 246 t b l;
#X obj 295 276 list store;
#X obj 261 558 s \$0_tilesfreezerelease;
#X obj 119 377 s \$0_tilesfreezestart;
#X obj 527 257 ls.scramble;
#X obj 323 100 slash.oscroute /tile/list/freeze;
#X obj 323 130 list trim;
#X obj 323 154 route start release;
#X obj 669 248 del;
#X obj 556 560 s \$0_tilestime;
#X obj 472 215 list split 2;
#X obj 751 249 list store;
#X obj 751 294 list split 2;
#X msg 660 342 \$1 \$1 \$2 \$2;
#X obj 803 385 list store;
#X obj 803 409 ls.iter;
#X obj 803 433 t b f;
#X obj 700 385 t b l;
#X obj 660 423 list store;
#X obj 677 480 list prepend;
#X msg 681 177 \$2;
#X obj 669 201 t b f;
#X connect 1 0 4 0;
#X connect 1 1 3 1;
#X connect 2 0 6 0;
#X connect 3 0 5 0;
#X connect 4 0 3 0;
#X connect 4 1 2 1;
#X connect 5 0 7 0;
#X connect 6 0 16 0;
#X connect 7 0 2 0;
#X connect 7 1 6 1;
#X connect 8 0 18 0;
#X connect 9 0 10 0;
#X connect 10 0 12 0;
#X connect 11 0 15 0;
#X connect 12 0 14 0;
#X connect 12 1 11 1;
#X connect 13 0 9 0;
#X connect 13 1 14 1;
#X connect 14 0 11 0;
#X connect 17 0 9 1;
#X connect 18 0 19 0;
#X connect 19 0 20 0;
#X connect 20 0 1 0;
#X connect 20 1 23 0;
#X connect 20 1 33 0;
#X connect 20 1 24 1;
#X connect 21 0 24 0;
#X connect 23 0 13 0;
#X connect 23 1 17 0;
#X connect 24 0 25 0;
#X connect 25 0 26 0;
#X connect 25 1 27 1;
#X connect 26 0 30 0;
#X connect 27 0 28 0;
#X connect 28 0 29 0;
#X connect 29 0 31 0;
#X connect 29 1 32 1;
#X connect 30 0 27 0;
#X connect 30 1 31 1;
#X connect 31 0 32 0;
#X connect 32 0 22 0;
#X connect 33 0 34 0;
#X connect 34 0 21 0;
#X connect 34 1 21 1;
#X restore 41 71 pd tilesfreeze;
#N canvas 343 185 1071 652 tilestime 0;
#X text 613 82 timeago timetogo grainmin grainmax tiles;
#X obj 324 79 r \$0_oscToRoute;
#X obj 472 215 list split 4;
#X obj 488 331 list store;
#X obj 488 355 ls.iter;
#X obj 386 431 list prepend;
#X obj 488 379 t b f;
#X obj 303 303 unpack 0 0 0 0;
#X obj 428 246 t b l;
#X obj 303 328 expr random($f1 \, $f2) \; random($f3 \, $f4);
#X obj 295 276 list store;
#X obj 361 384 pack 0 0;
#X obj 419 487 s \$0_tilestime;
#X obj 323 100 slash.oscroute /tile/list/time;
#X obj 541 265 ls.scramble;
#X connect 1 0 13 0;
#X connect 2 0 8 0;
#X connect 2 1 14 0;
#X connect 3 0 4 0;
#X connect 4 0 6 0;
#X connect 5 0 12 0;
#X connect 6 0 10 0;
#X connect 6 1 5 1;
#X connect 7 0 9 0;
#X connect 7 1 9 1;
#X connect 7 2 9 2;
#X connect 7 3 9 3;
#X connect 8 0 3 0;
#X connect 8 1 10 1;
#X connect 9 0 11 0;
#X connect 9 1 11 1;
#X connect 10 0 7 0;
#X connect 11 0 5 0;
#X connect 13 0 2 0;
#X connect 14 0 3 1;
#X restore 41 111 pd tilestime;
#N canvas 253 1202 1397 652 tilesscale 0;
#X obj 459 39 r \$0_oscToRoute;
#X obj 485 277 list store;
#X obj 485 301 ls.iter;
#X obj 108 286 list prepend;
#X obj 485 325 t b f;
#X obj 428 246 t b l;
#X obj 157 102 list store;
#X obj 109 248 pack 0 0;
#X text 835 4 scale tmin tmax tiles;
#X obj 778 156 bng 15 250 50 0 empty empty empty 17 7 0 10 -262144
-1 -1;
#X obj 654 284 ls.scramble;
#X text 576 220 < less arguments!;
#X obj 472 215 list split 5;
#X obj 165 129 unpack 0 0 0 0 0;
#X obj 285 516 qlist;
#X msg 670 453 clear;
#X obj 138 426 list prepend;
#X obj 458 84 t b l b;
#X obj 243 346 expr random($f1 \, $f2);
#X obj 250 310 f;
#X obj 165 199 expr random($f1 \, $f2) \;;
#X obj 108 310 t l b;
#X obj 458 60 slash.oscroute /tile/list/scale;
#X obj 178 583 s \$0_tilesscale;
#X msg 204 476 add \$4 qlistscalelist \$2 \$3 \$1;
#X obj 382 529 r qlistscalelist;
#X obj 806 384 slash.oscroute /tile/all/scale;
#X msg 754 453 rewind;
#X obj 806 408 bng 15 250 50 0 empty empty empty 17 7 0 10 -262144
-1 -1;
#X obj 806 361 r \$0_oscToRoute;
#X connect 0 0 22 0;
#X connect 1 0 2 0;
#X connect 2 0 4 0;
#X connect 3 0 21 0;
#X connect 4 0 6 0;
#X connect 4 1 3 1;
#X connect 5 0 1 0;
#X connect 5 1 6 1;
#X connect 6 0 13 0;
#X connect 7 0 3 0;
#X connect 10 0 1 1;
#X connect 12 0 5 0;
#X connect 12 1 10 0;
#X connect 13 0 7 0;
#X connect 13 1 19 1;
#X connect 13 2 18 1;
#X connect 13 3 20 0;
#X connect 13 4 20 1;
#X connect 15 0 14 0;
#X connect 16 0 24 0;
#X connect 17 0 14 0;
#X connect 17 1 12 0;
#X connect 17 2 15 0;
#X connect 18 0 16 1;
#X connect 19 0 18 0;
#X connect 20 0 7 1;
#X connect 21 0 16 0;
#X connect 21 1 19 0;
#X connect 22 0 9 0;
#X connect 22 0 17 0;
#X connect 24 0 14 0;
#X connect 25 0 23 0;
#X connect 26 0 28 0;
#X connect 27 0 14 0;
#X connect 28 0 27 0;
#X connect 28 0 15 0;
#X connect 29 0 26 0;
#X restore 40 146 pd tilesscale;
#X text 139 144 muito pesado se aumentar vários;
#N canvas 578 1273 1071 652 tilesalpha 0;
#X obj 459 39 r \$0_oscToRoute;
#X obj 485 277 list store;
#X obj 485 301 ls.iter;
#X obj 108 286 list prepend;
#X obj 485 325 t b f;
#X obj 428 246 t b l;
#X obj 157 102 list store;
#X obj 109 248 pack 0 0;
#X text 835 4 scale tmin tmax tiles;
#X obj 458 60 slash.oscroute /tile/list/alpha;
#X obj 778 156 bng 15 250 50 0 empty empty empty 17 7 0 10 -262144
-1 -1;
#X obj 654 284 ls.scramble;
#X obj 178 583 s \$0_tilesalpha;
#X obj 472 215 list split 5;
#X obj 165 129 unpack 0 0 0 0 0;
#X obj 285 516 qlist;
#X msg 670 453 clear;
#X obj 382 445 pack 0 0 0 0;
#X obj 138 426 list prepend;
#X obj 458 84 t b l b;
#X obj 243 346 expr random($f1 \, $f2);
#X obj 250 310 f;
#X obj 165 199 expr random($f1 \, $f2) \;;
#X obj 108 310 t l b;
#X obj 382 529 r qlistalphalist;
#X msg 204 476 add \$4 qlistalphalist \$2 \$3 \$1;
#X msg 751 537 rewind;
#X obj 803 492 bng 15 250 50 0 empty empty empty 17 7 0 10 -262144
-1 -1;
#X obj 803 468 slash.oscroute /tile/all/alpha;
#X obj 803 445 r \$0_oscToRoute;
#X connect 0 0 9 0;
#X connect 1 0 2 0;
#X connect 2 0 4 0;
#X connect 3 0 23 0;
#X connect 4 0 6 0;
#X connect 4 1 3 1;
#X connect 5 0 1 0;
#X connect 5 1 6 1;
#X connect 6 0 14 0;
#X connect 7 0 3 0;
#X connect 9 0 10 0;
#X connect 9 0 19 0;
#X connect 11 0 1 1;
#X connect 13 0 5 0;
#X connect 13 1 11 0;
#X connect 14 0 7 0;
#X connect 14 1 21 1;
#X connect 14 2 20 1;
#X connect 14 3 22 0;
#X connect 14 4 22 1;
#X connect 16 0 15 0;
#X connect 18 0 25 0;
#X connect 19 0 15 0;
#X connect 19 1 13 0;
#X connect 19 2 16 0;
#X connect 20 0 18 1;
#X connect 21 0 20 0;
#X connect 22 0 7 1;
#X connect 23 0 18 0;
#X connect 23 1 21 0;
#X connect 24 0 12 0;
#X connect 25 0 15 0;
#X connect 26 0 15 0;
#X connect 27 0 26 0;
#X connect 27 0 16 0;
#X connect 28 0 27 0;
#X connect 29 0 28 0;
#X restore 41 181 pd tilesalpha;
#X restore 130 247 pd batchcommands_manager;
#X obj 411 203 v \$0delfact;
#X obj 130 155 clone videotile 25 \$0 \$0camin tile 5 5;
#X text 154 326 camera "shutter"/clock;
#X text 127 312 controlled by OSC (switch manually only to test);
#N canvas 189 208 1656 792 tiles_position_calc 0;
#X obj 115 -166 loadbang;
#X text 1186 706 num;
#X text 1179 726 xnum;
#X text 1179 746 ynum;
#X text 1200 786 z;
#X obj 123 312 until;
#X obj 123 336 f;
#X obj 152 336 + 1;
#X msg 169 312 0;
#X obj 155 621 expr $f1;
#X text 1171 766 tilewidth;
#X obj 123 288 t f b f;
#X text 970 764 0 a 1;
#X obj 123 360 t f f;
#X obj 118 624 print;
#X obj 62 520 pack 0 0;
#X obj 62 546 t l l;
#X text 130 521 ints;
#X obj 242 500 pack 0 0;
#X obj 116 490 t f f;
#X obj 63 490 t f f;
#X obj 242 476 /;
#X obj 272 476 /;
#X obj 115 158 s \$0_numtiles;
#X obj 136 134 s \$0_xnum;
#X obj 158 113 s \$0_ynum;
#X obj 242 -3 s \$0_screenW;
#X obj 262 -25 s \$0_propX;
#X obj 272 -48 s \$0_propY;
#X obj 290 450 r \$0_ynum;
#X obj 260 426 r \$0_xnum;
#X obj 123 264 r \$0_numtiles;
#X obj 194 408 r \$0_ynum;
#X obj 141 384 r \$0_xnum;
#X text 301 477 (0 - 1.0);
#X obj 242 524 s \$0-normxynum;
#X obj 542 -72 r \$0-normxynum;
#X obj 542 -48 unpack 0 0;
#X obj 590 113 r \$0_screenW;
#X obj 347 157 v \$0_numtiles;
#X obj 348 133 v \$0_xnum;
#X obj 348 110 v \$0_ynum;
#X obj 349 64 v \$0_screenW;
#X obj 350 41 v \$0_propX;
#X obj 350 19 v \$0_propY;
#X obj 115 -85 unpack 0 0 0 0 0 0 0 0 0 0;
#X obj 886 -82 r \$0_propX;
#X obj 956 -57 r \$0_propY;
#X obj 123 435 mod;
#X obj 176 434 div;
#X obj 680 113 r \$0_xnum;
#X obj 678 -148 r \$0_screenW;
#X obj 747 -126 r \$0_ynum;
#X obj 609 -1 expr if(abs($f1)<0.0001 \, 0 \, $f1);
#X text 971 -26 tilesYtranslate;
#X text 836 110 tilesXtranslate;
#X msg 159 -112 \$1;
#X obj 191 -112 s \$0_groupnum;
#X obj 1123 32 r \$0_groupnum;
#X obj 595 156 r \$0_groupnum;
#X obj 542 185 ls.group;
#X obj 662 27 r \$0_groupnum;
#X obj 609 56 ls.group;
#X obj 734 408 r \$0_propY;
#X obj 679 386 r \$0_propX;
#X obj 579 437 f \$0;
#X obj 625 429 expr $f1*$f3/$f2;
#X floatatom 625 453 5 0 0 0 - - -;
#X obj 579 407 t b f f;
#X obj 1133 128 array size \$0_tilesW;
#X obj 1123 151 array size \$0_tilesH;
#X obj 1123 -95 array define \$0_tilesW;
#X obj 1123 -72 array define \$0_tilesH;
#X obj 579 481 pack 0 0 0 0;
#X obj 201 63 s \$0_tX;
#X obj 211 41 s \$0_tY;
#X obj 221 19 s \$0_tZ;
#X obj 817 -104 r \$0_tY;
#X obj 749 113 r \$0_tX;
#X obj 350 -47 v \$0_tZ;
#X obj 350 -25 v \$0_tY;
#X obj 350 -3 v \$0_tX;
#X obj 349 87 v \$0_tW;
#X obj 179 91 s \$0_tW;
#X obj 579 333 r \$0_tW;
#X obj 1123 -48 array define \$0_tilesX;
#X obj 1123 -24 array define \$0_tilesY;
#X obj 1123 -1 array define \$0_tilesZ;
#X obj 542 208 array set \$0_tilesX;
#X obj 609 79 array set \$0_tilesY;
#X obj 1163 57 array size \$0_tilesX;
#X obj 1153 81 array size \$0_tilesY;
#X obj 1143 103 array size \$0_tilesZ;
#X obj 671 481 r \$0_tZ;
#X msg 579 506 \; \$1_tilesW const \$2 \; \$1_tilesH const \$3 \; \$1_tilesZ
const \$4 \;;
#X obj 103 -112 t b l l;
#X obj 7 -58 s \$0_reloadpos;
#X obj 542 135 expr (($f1*$f2)-($f2*2/$f3)+$f4)*2;
#X obj 609 -25 expr (($f1*$f2*($f6/$f5))-($f2*($f6/$f5)*2/$f3)+$f4)*2
;
#X msg 114 -142 25 5 5 1.38 0 0 0 7 16 9;
#X obj 1061 328 loadbang;
#X msg 1106 364 5.1;
#X text 1154 370 max scale;
#X obj 1044 395 v \$0_maxscale;
#X obj 1162 396 s \$0_maxscale;
#X obj 1224 287 r \$0_oscToRoute;
#X obj 1224 312 slash.oscroute /maxscale;
#X connect 0 0 99 0;
#X connect 5 0 6 0;
#X connect 6 0 7 0;
#X connect 6 0 13 0;
#X connect 7 0 6 1;
#X connect 8 0 6 1;
#X connect 11 0 5 0;
#X connect 11 1 8 0;
#X connect 13 0 48 0;
#X connect 13 1 49 0;
#X connect 15 0 16 0;
#X connect 18 0 35 0;
#X connect 21 0 18 0;
#X connect 22 0 18 1;
#X connect 29 0 22 1;
#X connect 30 0 21 1;
#X connect 31 0 11 0;
#X connect 32 0 49 1;
#X connect 33 0 48 1;
#X connect 36 0 37 0;
#X connect 37 0 97 0;
#X connect 37 1 98 0;
#X connect 38 0 97 1;
#X connect 45 0 23 0;
#X connect 45 1 24 0;
#X connect 45 2 25 0;
#X connect 45 3 83 0;
#X connect 45 4 74 0;
#X connect 45 5 75 0;
#X connect 45 6 76 0;
#X connect 45 7 26 0;
#X connect 45 8 27 0;
#X connect 45 9 28 0;
#X connect 46 0 98 4;
#X connect 47 0 98 5;
#X connect 48 0 20 0;
#X connect 48 0 21 0;
#X connect 49 0 19 0;
#X connect 49 0 22 0;
#X connect 50 0 97 2;
#X connect 51 0 98 1;
#X connect 52 0 98 2;
#X connect 53 0 62 0;
#X connect 56 0 57 0;
#X connect 58 0 69 0;
#X connect 58 0 70 0;
#X connect 58 0 90 0;
#X connect 58 0 91 0;
#X connect 58 0 92 0;
#X connect 59 0 60 1;
#X connect 60 0 88 0;
#X connect 61 0 62 1;
#X connect 62 0 89 0;
#X connect 63 0 66 2;
#X connect 64 0 66 1;
#X connect 65 0 73 0;
#X connect 66 0 67 0;
#X connect 67 0 73 2;
#X connect 68 0 65 0;
#X connect 68 1 73 1;
#X connect 68 2 66 0;
#X connect 73 0 94 0;
#X connect 77 0 98 3;
#X connect 78 0 97 3;
#X connect 84 0 68 0;
#X connect 93 0 73 3;
#X connect 95 0 96 0;
#X connect 95 1 45 0;
#X connect 95 2 56 0;
#X connect 97 0 60 0;
#X connect 98 0 53 0;
#X connect 99 0 95 0;
#X connect 100 0 101 0;
#X connect 101 0 104 0;
#X connect 101 0 103 0;
#X connect 105 0 106 0;
#X connect 106 0 104 0;
#X connect 106 0 103 0;
#X restore 130 393 pd tiles_position_calc;
#X obj 1533 398 s \$0_fpsnew;
#X obj 1616 398 s \$0_dimen;
#X msg 1621 362 640 360;
#X msg 130 116 \; pd dsp 1 \;;
#X msg 6 523 cursor 0;
#X obj 6 545 s \$0gemwinR;
#X obj 132 482 bng 15 250 50 0 empty empty empty 17 7 0 10 -262144
-1 -1;
#X obj 132 440 r \$0_oscToRoute;
#X obj 131 461 slash.oscroute /allocpixbuff;
#X connect 10 0 19 0;
#X connect 11 0 14 0;
#X connect 13 0 15 0;
#X connect 15 0 11 0;
#X connect 18 0 17 0;
#X connect 19 0 10 0;
#X connect 28 0 27 0;
#X connect 30 0 31 0;
#X connect 32 0 6 0;
#X connect 33 0 34 0;
#X connect 34 0 32 0;
