#N canvas 224 1103 1472 755 12;
#X declare -path ./abstractions/;
#X declare -lib ceammc;
#X declare -lib zexy;
#X declare -lib spec;
#X declare -lib pd_spectral_toolkit;
#X obj 3 5 cnv 15 940 815 empty empty empty 20 12 0 14 -33289 -66577
0;
#N canvas 8 23 1432 855 events 0;
#X obj 100 200 cnv 15 570 200 empty empty empty 20 12 0 14 -204024
-66577 0;
#X obj 120 306 nbx 2 60 -1 127 0 0 empty empty empty 0 -13 0 60 -257983
-225281 -188417 -1 10;
#X obj 120 242 nbx 3 40 0 127 0 0 empty empty empty 0 -13 0 25 -262130
-99865 -1 0 10;
#X text 119 222 set next event (rehearsal);
#X text 119 287 current event;
#X obj 277 257 bng 80 250 50 0 empty empty empty 17 7 0 10 -253822
-258113 -1;
#X obj 782 293 f;
#X msg 944 157 0;
#X obj 944 131 loadbang;
#X obj 388 141 inlet;
#X obj 800 227 int;
#X obj 874 353 f;
#X obj 782 399 == 0;
#X obj 853 400 -;
#X obj 782 361 t f f b;
#X text 947 388 if event == 0: re/set to start;
#X text 947 427 if (next event - current event) != 1: stop active processes
and re/set to start;
#X obj 853 424 != 1;
#X obj 853 448 sel 1;
#X obj 853 472 s \$0_stop;
#X obj 783 488 sel 1;
#X obj 783 512 s \$0_resetToStart;
#X obj 815 293 + 1;
#X floatatom 908 285 5 0 0 0 - - -;
#X obj 988 156 r \$0_resetCounter;
#X obj 102 377 bng 20 250 50 0 empty empty panic/reset 22 10 0 20 -258113
-126977 -258113;
#X obj 235 439 + 1;
#X msg 235 463 set \$1;
#X obj 212 494 s \$0_currentEvent;
#X msg 955 194 -1;
#N canvas 0 23 1063 663 short_description 0;
#X obj 43 21 r ev;
#X obj 43 45 list prepend set;
#X obj 43 69 list trim;
#X obj 43 93 outlet;
#X connect 0 0 1 0;
#X connect 1 0 2 0;
#X connect 2 0 3 0;
#X restore 172 559 pd short_description;
#X obj 172 583 outlet;
#X msg 254 591 set;
#X obj 291 591 loadbang;
#X obj 437 749 textfile;
#N canvas 301 52 1139 584 current_time 0;
#X obj 515 29 inlet;
#X obj 616 340 symbol;
#X obj 281 395 makefilename ./log_events/%s_afterlive_log.txt;
#N canvas 0 23 941 685 clocksymbol 0;
#X floatatom 293 290 0 0 0 0 - - -;
#X floatatom 285 313 0 0 0 0 - - -;
#X floatatom 277 336 0 0 0 0 - - -;
#X obj 278 232 time;
#X floatatom 301 267 0 0 0 0 - - -;
#X obj 286 374;
#X obj 364 393 makefilename;
#X obj 364 443 makefilename;
#X obj 365 344 makefilename %02d;
#X obj 378 257 i;
#X obj 270 99 inlet;
#X obj 154 630 outlet;
#X msg 364 369 set %02dm\$1;
#X msg 379 307 set %02ds\$1;
#X msg 364 418 set %02dh\$1;
#X obj 165 513 makefilename;
#X obj 154 580 makefilename;
#X symbolatom 154 604 29 0 0 0 - - -;
#X obj 224 157 t b b;
#X obj 163 259 date ------;
#X msg 347 471 set %02d-\$1;
#X obj 345 493 makefilename;
#X obj 223 130 bng 15 250 50 0 empty empty empty 17 7 0 10 -262144
-1 -1;
#X msg 347 511 set %02d-\$1;
#X msg 174 542 set %04d-\$1;
#X obj 380 282 makefilename .%03d;
#X connect 0 0 8 0;
#X connect 1 0 6 0;
#X connect 2 0 7 0;
#X connect 3 0 2 0;
#X connect 3 1 1 0;
#X connect 3 2 0 0;
#X connect 3 3 4 0;
#X connect 4 0 9 0;
#X connect 6 0 14 0;
#X connect 7 0 20 0;
#X connect 8 0 12 0;
#X connect 9 0 25 0;
#X connect 10 0 18 0;
#X connect 12 0 6 0;
#X connect 13 0 8 0;
#X connect 14 0 7 0;
#X connect 15 0 24 0;
#X connect 16 0 17 0;
#X connect 17 0 11 0;
#X connect 18 0 19 0;
#X connect 18 1 3 0;
#X connect 19 0 16 0;
#X connect 19 1 15 0;
#X connect 19 2 21 0;
#X connect 20 0 21 0;
#X connect 21 0 23 0;
#X connect 22 0 18 0;
#X connect 23 0 15 0;
#X connect 24 0 16 0;
#X connect 25 0 13 0;
#X restore 281 335 pd clocksymbol;
#X text 636 316 write log if current event is smaller than last event
;
#X obj 618 107 t f f;
#X floatatom 587 162 5 0 0 0 - - -;
#X obj 574 219 <;
#X obj 577 252 tgl 15 0 empty empty empty 17 7 0 10 -262144 -1 -1 0
1;
#X obj 647 247 sel 1;
#X obj 689 466 outlet;
#X text 743 469 final log writer;
#X msg 690 436 write \$1 cr;
#X obj 285 196 sel -1;
#X msg 508 324 clear;
#X obj 282 287 t b b b;
#X obj 745 191 >;
#X obj 754 227 outlet;
#X obj 586 53 t f f f;
#X obj 804 227 outlet;
#X connect 0 0 18 0;
#X connect 1 0 12 0;
#X connect 2 0 1 1;
#X connect 3 0 2 0;
#X connect 5 0 6 0;
#X connect 5 0 16 1;
#X connect 5 1 7 0;
#X connect 5 1 16 0;
#X connect 6 0 7 1;
#X connect 7 0 8 0;
#X connect 8 0 9 0;
#X connect 9 0 1 0;
#X connect 12 0 10 0;
#X connect 13 0 15 0;
#X connect 14 0 10 0;
#X connect 15 0 3 0;
#X connect 15 1 14 0;
#X connect 16 0 17 0;
#X connect 18 0 13 0;
#X connect 18 1 5 0;
#X connect 18 2 19 0;
#X restore 674 547 pd current_time;
#X obj 212 410 t f f f f;
#X obj 304 446 bng 15 250 50 0 empty empty empty 17 7 0 10 -262144
-1 -1;
#X floatatom 338 444 5 0 0 0 - - -;
#X msg 566 673 add 1 2 3 \$1;
#X floatatom 651 634 5 0 0 0 - - -;
#X floatatom 892 738 15 0 0 0 - - -;
#X obj 879 797 tabwrite \$0_evTimes;
#X text 1044 795 remember timepoints;
#X obj 870 578 >= 0;
#X obj 839 548 t f f;
#X obj 832 627 spigot;
#X obj 890 602 sel 0;
#X msg 944 642 \; \$1_evTimes const 0 \;;
#X obj 951 617 f \$0;
#X obj 948 536 bng 15 250 50 0 empty empty empty 17 7 0 10 -262144
-1 -1;
#X obj 943 511 sel -1;
#X obj 872 702 spigot;
#X floatatom 1000 690 5 0 0 0 - - -;
#X obj 706 622 v \$0_timerms;
#X obj 1137 557 s audiotimer;
#X obj 948 556 t b b b;
#X msg 1087 520 0;
#X msg 987 593 0;
#X obj 1091 593 s \$0_timerms;
#X obj 1121 645 v \$0_timerms;
#X obj 877 824 array define -yrange 0 60000 \$0_evTimes 100;
#X obj 666 724 bng 15 250 50 0 empty empty empty 17 7 0 10 -262144
-1 -1;
#X obj 720 594 sel 1;
#X floatatom 654 773 5 0 0 0 - - -;
#N canvas 0 23 941 685 clocksymbol 0;
#X floatatom 293 290 0 0 0 0 - - -;
#X floatatom 285 313 0 0 0 0 - - -;
#X floatatom 277 336 0 0 0 0 - - -;
#X obj 278 232 time;
#X floatatom 301 267 0 0 0 0 - - -;
#X obj 286 374;
#X obj 364 393 makefilename;
#X obj 364 443 makefilename;
#X obj 365 344 makefilename %02d;
#X obj 378 257 i;
#X obj 270 99 inlet;
#X obj 154 630 outlet;
#X msg 364 369 set %02dm\$1;
#X msg 379 307 set %02ds\$1;
#X msg 364 418 set %02dh\$1;
#X obj 165 513 makefilename;
#X obj 154 580 makefilename;
#X symbolatom 154 604 29 0 0 0 - - -;
#X obj 224 157 t b b;
#X obj 163 259 date ------;
#X msg 347 471 set %02d-\$1;
#X obj 345 493 makefilename;
#X obj 223 130 bng 15 250 50 0 empty empty empty 17 7 0 10 -262144
-1 -1;
#X msg 347 511 set %02d-\$1;
#X msg 174 542 set %04d-\$1;
#X obj 380 282 makefilename %03d;
#X connect 0 0 8 0;
#X connect 1 0 6 0;
#X connect 2 0 7 0;
#X connect 3 0 2 0;
#X connect 3 1 1 0;
#X connect 3 2 0 0;
#X connect 3 3 4 0;
#X connect 4 0 9 0;
#X connect 6 0 14 0;
#X connect 7 0 20 0;
#X connect 8 0 12 0;
#X connect 9 0 25 0;
#X connect 10 0 18 0;
#X connect 12 0 6 0;
#X connect 13 0 8 0;
#X connect 14 0 7 0;
#X connect 15 0 24 0;
#X connect 16 0 17 0;
#X connect 17 0 11 0;
#X connect 18 0 19 0;
#X connect 18 1 3 0;
#X connect 19 0 16 0;
#X connect 19 1 15 0;
#X connect 19 2 21 0;
#X connect 20 0 21 0;
#X connect 21 0 23 0;
#X connect 22 0 18 0;
#X connect 23 0 15 0;
#X connect 24 0 16 0;
#X connect 25 0 13 0;
#X restore 760 947 pd clocksymbol;
#X obj 760 927 bng 15 250 50 0 empty empty empty 17 7 0 10 -262144
-1 -1;
#X obj 548 732 t l b;
#X obj 723 947 f;
#X obj 700 859 t f b b;
#X obj 1282 1014 +;
#X msg 457 912 add \$1 \$2 \$3;
#X obj 704 978 pack 0 0 s;
#X text 1163 147 a fazer: gravador de momentos da performance em arquivo
txt (para ajudar a sincronizar eventos sonoros e vídeo \, se necessário)
;
#X text 1163 207 gravador de áudio/mix da performance;
#X obj 100 200 cnv 15 570 20 empty empty 3_event_control 40 10 0 13
-99865 -262144 0;
#N canvas 0 23 1440 855 events 0;
#X text 22 13 events;
#X obj 73 66 bng 15 250 50 0 empty empty empty 17 7 0 10 -262144 -1
-1;
#X obj 73 96 bng 15 250 50 0 empty empty empty 17 7 0 10 -262144 -1
-1;
#X obj 73 126 bng 15 250 50 0 empty empty empty 17 7 0 10 -262144 -1
-1;
#X obj 91 124 ev.qlist 1 \$0_currentEvent reloadevents;
#X obj 73 156 bng 15 250 50 0 empty empty empty 17 7 0 10 -262144 -1
-1;
#X obj 91 154 ev.qlist 2 \$0_currentEvent reloadevents;
#X obj 73 186 bng 15 250 50 0 empty empty empty 17 7 0 10 -262144 -1
-1;
#X obj 91 184 ev.qlist 3 \$0_currentEvent reloadevents;
#X obj 91 64 ev.qlist -1 \$0_currentEvent reloadevents;
#X obj 92 94 ev.qlist 0 \$0_currentEvent reloadevents;
#X obj 383 65 bng 15 250 50 0 empty empty empty 17 7 0 10 -262144 -1
-1;
#X obj 383 95 bng 15 250 50 0 empty empty empty 17 7 0 10 -262144 -1
-1;
#X obj 383 125 bng 15 250 50 0 empty empty empty 17 7 0 10 -262144
-1 -1;
#X obj 383 155 bng 15 250 50 0 empty empty empty 17 7 0 10 -262144
-1 -1;
#X obj 384 188 bng 15 250 50 0 empty empty empty 17 7 0 10 -262144
-1 -1;
#X obj 73 216 bng 15 250 50 0 empty empty empty 17 7 0 10 -262144 -1
-1;
#X obj 384 218 bng 15 250 50 0 empty empty empty 17 7 0 10 -262144
-1 -1;
#X obj 91 214 ev.qlist 4 \$0_currentEvent reloadevents;
#X obj 73 246 bng 15 250 50 0 empty empty empty 17 7 0 10 -262144 -1
-1;
#X obj 384 248 bng 15 250 50 0 empty empty empty 17 7 0 10 -262144
-1 -1;
#X obj 91 244 ev.qlist 5 \$0_currentEvent reloadevents;
#X obj 73 276 bng 15 250 50 0 empty empty empty 17 7 0 10 -262144 -1
-1;
#X obj 384 278 bng 15 250 50 0 empty empty empty 17 7 0 10 -262144
-1 -1;
#X obj 91 274 ev.qlist 6 \$0_currentEvent reloadevents;
#X obj 73 404 bng 15 250 50 0 empty empty empty 17 7 0 10 -262144 -1
-1;
#X obj 384 409 bng 15 250 50 0 empty empty empty 17 7 0 10 -262144
-1 -1;
#X obj 91 402 ev.qlist 7 \$0_currentEvent reloadevents;
#X obj 73 494 bng 15 250 50 0 empty empty empty 17 7 0 10 -262144 -1
-1;
#X obj 91 492 ev.qlist 8 \$0_currentEvent reloadevents;
#X obj 73 524 bng 15 250 50 0 empty empty empty 17 7 0 10 -262144 -1
-1;
#X obj 91 522 ev.qlist 9 \$0_currentEvent reloadevents;
#X obj 73 585 bng 15 250 50 0 empty empty empty 17 7 0 10 -262144 -1
-1;
#X obj 91 583 ev.qlist 10 \$0_currentEvent reloadevents;
#X obj 73 615 bng 15 250 50 0 empty empty empty 17 7 0 10 -262144 -1
-1;
#X obj 91 613 ev.qlist 11 \$0_currentEvent reloadevents;
#X obj 73 682 bng 15 250 50 0 empty empty empty 17 7 0 10 -262144 -1
-1;
#X obj 73 712 bng 15 250 50 0 empty empty empty 17 7 0 10 -262144 -1
-1;
#X obj 383 681 bng 15 250 50 0 empty empty empty 17 7 0 10 -262144
-1 -1;
#X obj 384 714 bng 15 250 50 0 empty empty empty 17 7 0 10 -262144
-1 -1;
#X obj 73 792 bng 15 250 50 0 empty empty empty 17 7 0 10 -262144 -1
-1;
#X obj 384 794 bng 15 250 50 0 empty empty empty 17 7 0 10 -262144
-1 -1;
#X obj 73 822 bng 15 250 50 0 empty empty empty 17 7 0 10 -262144 -1
-1;
#X obj 384 824 bng 15 250 50 0 empty empty empty 17 7 0 10 -262144
-1 -1;
#X obj 91 680 ev.qlist 12 \$0_currentEvent reloadevents;
#X obj 91 710 ev.qlist 13 \$0_currentEvent reloadevents;
#X obj 91 790 ev.qlist 14 \$0_currentEvent reloadevents;
#X obj 91 820 ev.qlist 15 \$0_currentEvent reloadevents;
#N canvas 118 108 1081 750 ev4_procs 0;
#X obj 78 206 tabread \$0_evTimes;
#X floatatom 78 230 5 0 0 0 - - -;
#X floatatom 79 333 13 0 0 0 - - -;
#X obj 79 311 -;
#X obj 374 370 tabread \$0_evTimes;
#X obj 78 118 t b b;
#X obj 305 399 pack 0 0;
#X text 371 443 time between 1 and 2;
#X msg 305 423 \$2 \$1;
#X obj 305 447 -;
#X obj 305 471 t f f;
#X floatatom 348 522 5 0 0 0 - - -;
#X obj 140 120 bng 15 250 50 0 empty empty empty 17 7 0 10 -262144
-1 -1;
#X obj 79 565 pack 0 0 0 0;
#X text 144 381 conferir tempo p/ ir;
#X msg 79 604 /tile/list/freeze start \$1 \$2 \$3 \$4 6 7 8 11 13 16
17 18;
#X obj 79 628 s toGEMcpu;
#X text 77 66 freeze neighbours;
#X obj 77 524 int;
#X obj 106 526 int;
#X obj 193 541 int;
#X obj 223 642 print ev3complex;
#X floatatom 241 449 5 0 0 0 - - -;
#X obj 153 521 int;
#X obj 78 94 r ev4_freeze;
#X obj 79 356 t f f b;
#X floatatom 259 537 5 0 0 0 - - -;
#X obj 176 417 bng 15 250 50 0 empty empty empty 17 7 0 10 -262144
-1 -1;
#X obj 58 273 v \$0_timerms;
#X obj 78 251 t b f;
#X obj 75 404 * -1;
#X msg 134 455 2000;
#X obj 231 345 tabread \$0_evTimes;
#X obj 78 177 t f b;
#X msg 231 321 0;
#X msg 374 347 1;
#X obj 57 455 - 6000;
#X floatatom 37 504 5 0 0 0 - - -;
#X obj 211 498 * 0.05;
#X obj 348 498 * 0.4;
#X msg 78 153 0;
#X connect 0 0 1 0;
#X connect 1 0 29 0;
#X connect 2 0 25 0;
#X connect 3 0 2 0;
#X connect 4 0 6 1;
#X connect 5 0 40 0;
#X connect 5 1 35 0;
#X connect 6 0 8 0;
#X connect 8 0 9 0;
#X connect 9 0 10 0;
#X connect 9 0 22 0;
#X connect 10 0 38 0;
#X connect 10 1 39 0;
#X connect 12 0 5 0;
#X connect 13 0 15 0;
#X connect 15 0 16 0;
#X connect 15 0 21 0;
#X connect 18 0 13 0;
#X connect 19 0 13 1;
#X connect 20 0 13 3;
#X connect 23 0 13 2;
#X connect 24 0 5 0;
#X connect 25 0 30 0;
#X connect 25 2 31 0;
#X connect 28 0 3 0;
#X connect 29 0 28 0;
#X connect 29 1 3 1;
#X connect 30 0 36 0;
#X connect 31 0 19 0;
#X connect 32 0 6 0;
#X connect 33 0 0 0;
#X connect 33 1 34 0;
#X connect 34 0 32 0;
#X connect 35 0 4 0;
#X connect 36 0 18 0;
#X connect 36 0 37 0;
#X connect 38 0 23 0;
#X connect 38 0 26 0;
#X connect 39 0 11 0;
#X connect 39 0 20 0;
#X connect 40 0 33 0;
#X restore 409 214 pd ev4_procs;
#X text 505 217 tiles: 6 7 8 11 13 16 17 19 => freeze \; alpha to 0.6
;
#N canvas 0 23 1440 827 ev6_procs 0;
#X obj 168 151 tabread \$0_evTimes;
#X floatatom 168 175 5 0 0 0 - - -;
#X obj 154 249 -;
#X obj 148 218 v \$0_timerms;
#X obj 168 196 t b f;
#X msg 168 127 4;
#X obj 194 78 t b b b;
#N canvas 14 23 1426 829 pvoc0pars 0;
#X obj 79 23 inlet;
#X msg 373 256 \; pvocs 0 switch 1 \;;
#X msg 365 479 \; pvocs 0 azi 0.8 0 \;;
#X msg 365 629 \; pvocs 0 azi 2.4 10000 \;;
#X msg 515 479 \; pvocs 0 rho 6 0 \;;
#X msg 715 629 \; pvocs 0 rho 8.8 3000 \;;
#X msg 535 629 \; pvocs 0 rho 0.8 3000 \;;
#X obj 347 570 t b b b;
#X obj 347 448 t b b b;
#X obj 880 571 del 3000;
#X obj 208 382 f;
#X obj 717 472 t b f;
#X obj 717 496 del;
#X obj 721 581 t b b;
#X msg 667 704 \; pvocs 0 azi 1.4 6000 \;;
#X msg 925 630 \; pvocs 0 dbamp 0 2000 \;;
#X obj 880 595 del 2000;
#X msg 31 441 \; pvocs 0 time \$1 \$2 \;;
#X floatatom 699 428 12 0 0 0 - - -;
#X msg 1063 566 \; pvocs 0 switch 0 \;;
#X obj 337 308 t b b b b b;
#X msg 47 533 \; pvocs 0 time 0 \$1 \;;
#X obj 872 21 metro 800;
#X msg 754 29 1;
#X text 698 110 azi;
#X obj 774 213 pack 0 0;
#X obj 924 211 pack 0 0;
#X msg 730 346 0;
#X msg 867 349 set \$1 \$2;
#X msg 867 373 0.310791 1400;
#X obj 854 4 tgl 15 0 empty empty empty 17 7 0 10 -262144 -1 -1 0 1
;
#X msg 756 277 \; pvocs 0 azi \$1 \$2 \;;
#X msg 946 277 \; pvocs 0 rho \$1 \$2 \;;
#X msg 365 379 \; pvocs 0 pitch -0.25 0.25 \;;
#X obj 1118 132 bng 15 250 50 0 empty empty empty 17 7 0 10 -262144
-1 -1;
#X obj 809 68 t b b b b;
#X obj 1083 29 metro 800;
#X obj 1025 12 tgl 15 0 empty empty empty 17 7 0 10 -262144 -1 -1 0
1;
#X obj 1083 53 t b b;
#X obj 1117 239 pack 0 0;
#X msg 1129 305 \; pvocs 0 pitch \$1 \$2 \;;
#X obj 69 400 pack 0 0;
#X obj 149 338 del;
#X msg 365 339 \; pvocs 0 dbamp 98 2000 \;;
#X obj 75 656 pack 0 0 0 0;
#X obj 216 556 * 0.2;
#X obj 78 734 list store;
#X obj 75 680 t b l;
#X obj 75 704 del 5000;
#X msg 41 800 \; toGEMcpu /tile/list/time \$1 200 \$3 \$4 6 7 8 11
13 16 17 18 \;;
#X obj 52 355 * -1;
#X obj 266 555 * 0.99;
#X obj 75 592 t f b;
#X msg 102 621 20000;
#X obj 208 406 * 2.5;
#X obj 104 361 * 0.9;
#X obj 88 322 t f f;
#X obj 144 278 t b f f b b;
#X obj 1101 180 f.random -0.25 0.25;
#X obj 1173 128 i.random 700 1500;
#X obj 948 148 i.random 1000 3000;
#X obj 704 138 f.random 0 4;
#X obj 842 171 f.random 0.8 1.3;
#X connect 0 0 57 0;
#X connect 7 0 3 0;
#X connect 7 1 6 0;
#X connect 8 0 7 0;
#X connect 8 1 2 0;
#X connect 8 2 4 0;
#X connect 9 0 15 0;
#X connect 9 0 16 0;
#X connect 10 0 54 0;
#X connect 11 0 12 0;
#X connect 11 1 12 1;
#X connect 12 0 9 0;
#X connect 13 0 5 0;
#X connect 13 0 14 0;
#X connect 13 1 9 0;
#X connect 16 0 19 0;
#X connect 16 0 27 0;
#X connect 20 2 43 0;
#X connect 22 0 35 0;
#X connect 23 0 30 0;
#X connect 23 0 37 0;
#X connect 25 0 31 0;
#X connect 25 0 28 0;
#X connect 26 0 32 0;
#X connect 27 0 30 0;
#X connect 27 0 37 0;
#X connect 28 0 29 0;
#X connect 30 0 22 0;
#X connect 34 0 58 0;
#X connect 35 0 61 0;
#X connect 35 1 62 0;
#X connect 35 3 60 0;
#X connect 36 0 38 0;
#X connect 37 0 36 0;
#X connect 38 0 34 0;
#X connect 38 1 59 0;
#X connect 39 0 40 0;
#X connect 41 0 17 0;
#X connect 42 0 10 0;
#X connect 44 0 47 0;
#X connect 45 0 44 2;
#X connect 46 0 49 0;
#X connect 47 0 48 0;
#X connect 47 1 46 1;
#X connect 48 0 46 0;
#X connect 50 0 41 0;
#X connect 50 0 52 0;
#X connect 51 0 44 3;
#X connect 52 0 44 0;
#X connect 52 1 53 0;
#X connect 53 0 44 1;
#X connect 54 0 21 0;
#X connect 54 0 11 0;
#X connect 54 0 18 0;
#X connect 55 0 41 1;
#X connect 56 0 50 0;
#X connect 56 1 55 0;
#X connect 57 0 42 0;
#X connect 57 1 42 1;
#X connect 57 2 10 1;
#X connect 57 2 45 0;
#X connect 57 2 51 0;
#X connect 57 2 56 0;
#X connect 57 3 20 0;
#X connect 57 4 1 0;
#X connect 57 4 23 0;
#X connect 58 0 39 0;
#X connect 59 0 39 1;
#X connect 59 0 36 1;
#X connect 60 0 26 1;
#X connect 60 0 25 1;
#X connect 60 0 22 1;
#X connect 61 0 25 0;
#X connect 62 0 26 0;
#X restore 109 357 pd pvoc0pars;
#X obj 168 38 r ev6_pvocs;
#X connect 0 0 1 0;
#X connect 1 0 4 0;
#X connect 2 0 7 0;
#X connect 3 0 2 0;
#X connect 4 0 3 0;
#X connect 4 1 2 1;
#X connect 5 0 0 0;
#X connect 6 0 5 0;
#X connect 8 0 6 0;
#X restore 408 275 pd ev6_procs;
#X text 505 245 tiles: 6 7 8 11 13 16 17 19 => alpha to 0.9 btw 3s-7.5s
;
#N canvas 491 23 839 855 ev7_procs 0;
#X obj 143 149 tabread \$0_evTimes;
#X floatatom 143 173 5 0 0 0 - - -;
#X obj 129 247 -;
#X obj 123 216 v \$0_timerms;
#X obj 143 194 t b f;
#X msg 143 125 4;
#X obj 169 76 t b b b;
#N canvas 14 23 1426 761 pvoc2pars 0;
#X obj 79 23 inlet;
#X obj 31 366 * -1;
#X obj 368 529 del 3000;
#X obj 208 382 f;
#X obj 336 583 del 2000;
#X obj 248 307 t b b b b b;
#X obj 144 278 t f b f b b;
#X msg 31 390 \$1 0;
#X obj 762 71 metro 800;
#X msg 644 79 1;
#X text 679 158 azi;
#X obj 699 118 t b b b;
#X obj 664 263 pack 0 0;
#X obj 814 261 pack 0 0;
#X obj 244 457 t b f;
#X obj 244 481 del;
#X msg 620 396 0;
#X msg 757 399 set \$1 \$2;
#X msg 757 423 1.45227 1645;
#X obj 744 54 tgl 15 0 empty empty empty 17 7 0 10 -262144 -1 -1 0
1;
#X obj 97 152 del 2000;
#X obj 1055 211 bng 15 250 50 0 empty empty empty 17 7 0 10 -262144
-1 -1;
#X obj 1113 129 metro 800;
#X obj 1055 112 tgl 15 0 empty empty empty 17 7 0 10 -262144 -1 -1
0 1;
#X obj 1113 153 t b b;
#X obj 1147 339 pack 0 0;
#X msg 374 46 \; pvocs 2 switch 1 \;;
#X msg 365 339 \; pvocs 2 dbamp 92 2000 \;;
#X msg 31 421 \; pvocs 2 time \$1 \$2 \;;
#X msg 47 533 \; pvocs 2 time -200 \$1 \;;
#X msg 580 566 \; pvocs 2 dbamp 0 2000 \;;
#X msg 288 629 \; pvocs 2 switch 0 \;;
#X msg 646 327 \; pvocs 2 azi \$1 \$2 \;;
#X msg 836 327 \; pvocs 2 rho \$1 \$2 \;;
#X msg 1159 405 \; pvocs 2 pitch \$1 \$2 \;;
#X obj 181 190 f;
#X obj 79 47 t b f;
#X floatatom 134 79 5 0 0 0 - - -;
#X obj 161 340 del 1000;
#X floatatom 164 476 5 0 0 0 - - -;
#X obj 469 632 print pv2;
#X msg 464 590 release pv2;
#X floatatom 77 388 5 0 0 0 - - -;
#X obj 208 406 * 3;
#X obj 1050 265 f.random -3 3;
#X floatatom 1201 218 5 0 0 0 - - -;
#X obj 1201 194 i.random 500 1000;
#X text 1153 267 era 0.5;
#X obj 818 223 f.random 1.5 2;
#X obj 644 229 f.random 0 4;
#X obj 839 162 i.random 500 2000;
#X connect 0 0 36 0;
#X connect 1 0 7 0;
#X connect 1 0 42 0;
#X connect 2 0 30 0;
#X connect 2 0 4 0;
#X connect 3 0 43 0;
#X connect 4 0 31 0;
#X connect 4 0 16 0;
#X connect 5 2 27 0;
#X connect 6 1 38 0;
#X connect 6 2 3 1;
#X connect 6 2 1 0;
#X connect 6 3 5 0;
#X connect 6 4 26 0;
#X connect 6 4 9 0;
#X connect 7 0 28 0;
#X connect 8 0 11 0;
#X connect 9 0 19 0;
#X connect 9 0 23 0;
#X connect 11 0 49 0;
#X connect 11 1 48 0;
#X connect 11 2 50 0;
#X connect 12 0 32 0;
#X connect 12 0 17 0;
#X connect 13 0 33 0;
#X connect 14 0 15 0;
#X connect 14 1 15 1;
#X connect 15 0 2 0;
#X connect 15 0 41 0;
#X connect 16 0 19 0;
#X connect 16 0 23 0;
#X connect 17 0 18 0;
#X connect 19 0 8 0;
#X connect 21 0 44 0;
#X connect 22 0 24 0;
#X connect 23 0 22 0;
#X connect 24 0 21 0;
#X connect 24 1 46 0;
#X connect 25 0 34 0;
#X connect 35 0 6 0;
#X connect 36 0 20 0;
#X connect 36 1 6 0;
#X connect 36 1 37 0;
#X connect 38 0 3 0;
#X connect 39 0 29 0;
#X connect 41 0 40 0;
#X connect 43 0 14 0;
#X connect 43 0 39 0;
#X connect 44 0 25 0;
#X connect 46 0 45 0;
#X connect 46 0 22 1;
#X connect 46 0 25 1;
#X connect 48 0 13 0;
#X connect 49 0 12 0;
#X connect 50 0 8 1;
#X connect 50 0 13 1;
#X connect 50 0 12 1;
#X restore 194 301 pd pvoc2pars;
#N canvas 0 23 1426 761 pvoc1pars 0;
#X obj 79 23 inlet;
#X obj 31 366 * -1;
#X obj 877 549 del 3000;
#X obj 146 353 del 100;
#X obj 208 382 f;
#X obj 717 472 t b f;
#X obj 717 496 del;
#X obj 880 595 del 2000;
#X floatatom 699 428 12 0 0 0 - - -;
#X obj 337 308 t b b b b b;
#X obj 144 278 t f b f b b;
#X obj 872 21 metro 800;
#X msg 754 29 1;
#X text 789 108 azi;
#X obj 774 213 pack 0 0;
#X obj 924 211 pack 0 0;
#X msg 730 346 0;
#X msg 867 349 set \$1 \$2;
#X msg 867 373 1.01404 516;
#X obj 854 4 tgl 15 0 empty empty empty 17 7 0 10 -262144 -1 -1 0 1
;
#X msg 31 390 \$1 0;
#X obj 990 113 + 500;
#X obj 990 89 random 500;
#X obj 1108 102 bng 15 250 50 0 empty empty empty 17 7 0 10 -262144
-1 -1;
#X obj 809 68 t b b b b;
#X obj 1188 100 + 500;
#X obj 1188 76 random 500;
#X obj 1083 29 metro 800;
#X obj 1025 12 tgl 15 0 empty empty empty 17 7 0 10 -262144 -1 -1 0
1;
#X obj 1083 53 t b b;
#X obj 1117 239 pack 0 0;
#X msg 31 441 \; pvocs 1 time \$1 \$2 \;;
#X msg 47 533 \; pvocs 1 time 0 \$1 \;;
#X msg 365 339 \; pvocs 1 dbamp 98 2000 \;;
#X msg 373 256 \; pvocs 1 switch 1 \;;
#X msg 925 630 \; pvocs 1 dbamp 0 2000 \;;
#X msg 1063 566 \; pvocs 1 switch 0 \;;
#X msg 756 277 \; pvocs 1 azi \$1 \$2 \;;
#X msg 946 277 \; pvocs 1 rho \$1 \$2 \;;
#X msg 1129 305 \; pvocs 1 pitch \$1 \$2 \;;
#X obj 208 406 * 2;
#X floatatom 91 397 5 0 0 0 - - -;
#X obj 1097 160 f.random -0.5 0.5;
#X obj 925 160 f.random 0.8 1.3;
#X obj 745 142 f.random 0 4;
#X text 911 139 rho;
#X connect 0 0 10 0;
#X connect 1 0 20 0;
#X connect 1 0 41 0;
#X connect 2 0 35 0;
#X connect 2 0 7 0;
#X connect 3 0 4 0;
#X connect 4 0 40 0;
#X connect 5 0 6 0;
#X connect 5 1 6 1;
#X connect 6 0 2 0;
#X connect 7 0 36 0;
#X connect 7 0 16 0;
#X connect 9 2 33 0;
#X connect 10 1 3 0;
#X connect 10 2 4 1;
#X connect 10 2 1 0;
#X connect 10 3 9 0;
#X connect 10 4 34 0;
#X connect 10 4 12 0;
#X connect 11 0 24 0;
#X connect 12 0 19 0;
#X connect 12 0 28 0;
#X connect 14 0 37 0;
#X connect 14 0 17 0;
#X connect 15 0 38 0;
#X connect 16 0 19 0;
#X connect 16 0 28 0;
#X connect 17 0 18 0;
#X connect 19 0 11 0;
#X connect 20 0 31 0;
#X connect 21 0 11 1;
#X connect 21 0 15 1;
#X connect 21 0 14 1;
#X connect 22 0 21 0;
#X connect 23 0 42 0;
#X connect 24 0 44 0;
#X connect 24 2 43 0;
#X connect 24 3 22 0;
#X connect 25 0 27 1;
#X connect 25 0 30 1;
#X connect 26 0 25 0;
#X connect 27 0 29 0;
#X connect 28 0 27 0;
#X connect 29 0 23 0;
#X connect 29 1 26 0;
#X connect 30 0 39 0;
#X connect 40 0 32 0;
#X connect 40 0 5 0;
#X connect 40 0 8 0;
#X connect 42 0 30 0;
#X connect 43 0 15 0;
#X connect 44 0 14 0;
#X restore 85 353 pd pvoc1pars;
#X obj 143 36 r ev7_pvocs;
#X obj 449 155 tabread \$0_evTimes;
#X obj 803 457 pack 0 0 0 0;
#X msg 773 607 \; toGEMcpu /tile/list/time \$1 \$2 \$3 \$4 0 1 2 3
4 5 9 10 14 15 19 20 21 22 23 24 \;;
#X obj 733 341 t f f f;
#X floatatom 1004 397 5 0 0 0 - - -;
#X obj 964 462 print;
#X msg 1045 439 set \$1 \$2 \$3 \$4;
#X msg 1045 463 -2600 5000 520 2340;
#X obj 324 203 -;
#X obj 309 155 tabread \$0_evTimes;
#X msg 309 131 7;
#X msg 449 131 6;
#X obj 375 238 * -1;
#X obj 803 393 t f b;
#X msg 828 419 5000;
#X obj 944 357 * -0.2;
#X obj 994 357 * -0.9;
#X connect 0 0 1 0;
#X connect 1 0 4 0;
#X connect 2 0 7 0;
#X connect 2 0 8 0;
#X connect 3 0 2 0;
#X connect 4 0 3 0;
#X connect 4 1 2 1;
#X connect 5 0 0 0;
#X connect 6 0 5 0;
#X connect 6 1 20 0;
#X connect 6 2 21 0;
#X connect 9 0 6 0;
#X connect 10 0 18 1;
#X connect 11 0 15 0;
#X connect 11 0 16 0;
#X connect 11 0 12 0;
#X connect 13 0 23 0;
#X connect 13 1 25 0;
#X connect 13 2 26 0;
#X connect 16 0 17 0;
#X connect 18 0 22 0;
#X connect 19 0 18 0;
#X connect 20 0 19 0;
#X connect 21 0 10 0;
#X connect 22 0 13 0;
#X connect 23 0 11 0;
#X connect 23 1 24 0;
#X connect 24 0 11 1;
#X connect 25 0 11 2;
#X connect 26 0 11 3;
#X connect 26 0 14 0;
#X restore 408 406 pd ev7_procs;
#N canvas 0 23 1056 633 ev13_procs 0;
#N canvas 14 23 1426 829 pvoc3rv13 0;
#X obj 79 23 inlet;
#X obj 337 308 t b b b b b;
#X obj 872 21 metro 800;
#X msg 754 29 1;
#X obj 761 127 random 401;
#X text 789 108 azi;
#X obj 851 127 random 50;
#X obj 851 151 / 100;
#X obj 774 213 pack 0 0;
#X obj 924 211 pack 0 0;
#X msg 730 346 0;
#X msg 867 349 set \$1 \$2;
#X msg 867 373 3.55 2524;
#X obj 761 151 / 100;
#X obj 854 4 tgl 15 0 empty empty empty 17 7 0 10 -262144 -1 -1 0 1
;
#X obj 851 175 + 0.8;
#X obj 1118 132 bng 15 250 50 0 empty empty empty 17 7 0 10 -262144
-1 -1;
#X obj 1117 167 random 50;
#X obj 1117 191 / 101;
#X obj 809 68 t b b b b;
#X obj 1083 29 metro 800;
#X obj 1025 12 tgl 15 0 empty empty empty 17 7 0 10 -262144 -1 -1 0
1;
#X obj 1083 53 t b b;
#X obj 1117 239 pack 0 0;
#X obj 1117 215 - 0.25;
#X obj 1138 100 + 800;
#X obj 1138 76 random 700;
#X obj 990 113 + 1000;
#X obj 990 89 random 2000;
#X msg 756 277 \; pvocs 3 azi \$1 \$2 \;;
#X msg 946 277 \; pvocs 3 rho \$1 \$2 \;;
#X msg 1129 305 \; pvocs 3 pitch \$1 \$2 \;;
#X msg 373 256 \; pvocs 3 switch 1 \;;
#X obj 406 106 t b b b;
#X obj 338 56 sel 1 0;
#X obj 778 519 t b b;
#X msg 481 646 \; pvocs 3 switch 0 \;;
#X msg 365 339 \; pvocs 3 dbamp 92 7000 \;;
#X msg 416 418 \; pvocs 3 time -4500 4500 \;;
#X msg 686 633 \; pvocs 3 dbamp 0 12000 \;;
#X obj 776 599 del 12000;
#X connect 0 0 34 0;
#X connect 1 2 37 0;
#X connect 2 0 19 0;
#X connect 3 0 14 0;
#X connect 3 0 21 0;
#X connect 4 0 13 0;
#X connect 6 0 7 0;
#X connect 7 0 15 0;
#X connect 8 0 29 0;
#X connect 8 0 11 0;
#X connect 9 0 30 0;
#X connect 10 0 14 0;
#X connect 10 0 21 0;
#X connect 11 0 12 0;
#X connect 13 0 8 0;
#X connect 14 0 2 0;
#X connect 15 0 9 0;
#X connect 16 0 17 0;
#X connect 17 0 18 0;
#X connect 18 0 24 0;
#X connect 19 0 4 0;
#X connect 19 1 6 0;
#X connect 19 3 28 0;
#X connect 20 0 22 0;
#X connect 21 0 20 0;
#X connect 22 0 16 0;
#X connect 22 1 26 0;
#X connect 23 0 31 0;
#X connect 24 0 23 0;
#X connect 25 0 20 1;
#X connect 25 0 23 1;
#X connect 26 0 25 0;
#X connect 27 0 2 1;
#X connect 27 0 9 1;
#X connect 27 0 8 1;
#X connect 28 0 27 0;
#X connect 33 0 38 0;
#X connect 33 1 37 0;
#X connect 33 2 3 0;
#X connect 33 2 32 0;
#X connect 34 0 33 0;
#X connect 34 1 35 0;
#X connect 35 0 39 0;
#X connect 35 1 40 0;
#X connect 40 0 36 0;
#X connect 40 0 10 0;
#X restore 211 167 pd pvoc3rv13;
#X obj 207 118 r ev13pvoc3;
#X obj 318 118 r ev13pvoc4;
#N canvas 14 23 1426 829 pvoc4rv13 0;
#X obj 79 23 inlet;
#X obj 337 308 t b b b b b;
#X obj 872 21 metro 800;
#X msg 754 29 1;
#X obj 761 127 random 401;
#X text 789 108 azi;
#X obj 851 127 random 50;
#X obj 851 151 / 100;
#X obj 774 213 pack 0 0;
#X obj 924 211 pack 0 0;
#X msg 730 346 0;
#X msg 867 349 set \$1 \$2;
#X msg 867 373 0.98 2287;
#X obj 761 151 / 100;
#X obj 854 4 tgl 15 0 empty empty empty 17 7 0 10 -262144 -1 -1 0 1
;
#X obj 851 175 + 0.8;
#X obj 1118 132 bng 15 250 50 0 empty empty empty 17 7 0 10 -262144
-1 -1;
#X obj 1117 167 random 50;
#X obj 1117 191 / 101;
#X obj 809 68 t b b b b;
#X obj 1083 29 metro 800;
#X obj 1025 12 tgl 15 0 empty empty empty 17 7 0 10 -262144 -1 -1 0
1;
#X obj 1083 53 t b b;
#X obj 1117 269 pack 0 0;
#X obj 1117 215 - 0.25;
#X obj 1138 100 + 800;
#X obj 1138 76 random 700;
#X obj 406 106 t b b b;
#X obj 338 56 sel 1 0;
#X obj 778 519 t b b;
#X msg 365 339 \; pvocs 4 dbamp 92 7000 \;;
#X msg 373 256 \; pvocs 4 switch 1 \;;
#X msg 756 277 \; pvocs 4 azi \$1 \$2 \;;
#X msg 946 277 \; pvocs 4 rho \$1 \$2 \;;
#X msg 1129 305 \; pvocs 4 pitch \$1 \$2 \;;
#X msg 481 646 \; pvocs 4 switch 0 \;;
#X obj 1117 239 + 12;
#X msg 416 418 \; pvocs 4 time -9000 4500 \;;
#X obj 990 113 + 1500;
#X obj 990 89 random 4000;
#X msg 686 633 \; pvocs 4 dbamp 0 9000 \;;
#X obj 776 599 del 9000;
#X connect 0 0 28 0;
#X connect 1 2 30 0;
#X connect 2 0 19 0;
#X connect 3 0 14 0;
#X connect 3 0 21 0;
#X connect 4 0 13 0;
#X connect 6 0 7 0;
#X connect 7 0 15 0;
#X connect 8 0 32 0;
#X connect 8 0 11 0;
#X connect 9 0 33 0;
#X connect 10 0 14 0;
#X connect 10 0 21 0;
#X connect 11 0 12 0;
#X connect 13 0 8 0;
#X connect 14 0 2 0;
#X connect 15 0 9 0;
#X connect 16 0 17 0;
#X connect 17 0 18 0;
#X connect 18 0 24 0;
#X connect 19 0 4 0;
#X connect 19 1 6 0;
#X connect 19 3 39 0;
#X connect 20 0 22 0;
#X connect 21 0 20 0;
#X connect 22 0 16 0;
#X connect 22 1 26 0;
#X connect 23 0 34 0;
#X connect 24 0 36 0;
#X connect 25 0 20 1;
#X connect 25 0 23 1;
#X connect 26 0 25 0;
#X connect 27 0 37 0;
#X connect 27 1 30 0;
#X connect 27 2 3 0;
#X connect 27 2 31 0;
#X connect 28 0 27 0;
#X connect 28 1 29 0;
#X connect 29 0 40 0;
#X connect 29 1 41 0;
#X connect 36 0 23 0;
#X connect 38 0 2 1;
#X connect 38 0 9 1;
#X connect 38 0 8 1;
#X connect 39 0 38 0;
#X connect 41 0 35 0;
#X connect 41 0 10 0;
#X restore 321 167 pd pvoc4rv13;
#X obj 438 118 r ev13pvoc5;
#N canvas 14 23 1426 829 pvoc5rv13 0;
#X obj 79 23 inlet;
#X obj 337 308 t b b b b b;
#X obj 872 21 metro 800;
#X msg 754 29 1;
#X obj 761 127 random 401;
#X text 789 108 azi;
#X obj 851 127 random 50;
#X obj 851 151 / 100;
#X obj 774 213 pack 0 0;
#X obj 924 211 pack 0 0;
#X msg 730 346 0;
#X msg 867 349 set \$1 \$2;
#X msg 867 373 2.69 5458;
#X obj 761 151 / 100;
#X obj 854 4 tgl 15 0 empty empty empty 17 7 0 10 -262144 -1 -1 0 1
;
#X obj 851 175 + 0.8;
#X obj 1118 132 bng 15 250 50 0 empty empty empty 17 7 0 10 -262144
-1 -1;
#X obj 1117 167 random 50;
#X obj 1117 191 / 101;
#X obj 809 68 t b b b b;
#X obj 1083 29 metro 800;
#X obj 1025 12 tgl 15 0 empty empty empty 17 7 0 10 -262144 -1 -1 0
1;
#X obj 1083 53 t b b;
#X obj 1117 269 pack 0 0;
#X obj 1117 215 - 0.25;
#X obj 1138 100 + 800;
#X obj 406 106 t b b b;
#X obj 338 56 sel 1 0;
#X obj 778 519 t b b;
#X obj 1117 239 + 12;
#X msg 373 256 \; pvocs 5 switch 1 \;;
#X msg 365 339 \; pvocs 5 dbamp 92 7000 \;;
#X msg 416 418 \; pvocs 5 time -3000 4500 \;;
#X msg 481 646 \; pvocs 5 switch 0 \;;
#X msg 756 277 \; pvocs 5 azi \$1 \$2 \;;
#X msg 946 277 \; pvocs 5 rho \$1 \$2 \;;
#X msg 1129 305 \; pvocs 5 pitch \$1 \$2 \;;
#X obj 990 113 + 2000;
#X obj 990 89 random 4000;
#X obj 1138 76 random 1700;
#X obj 776 599 del 15000;
#X msg 686 633 \; pvocs 5 dbamp 0 15000 \;;
#X connect 0 0 27 0;
#X connect 1 2 31 0;
#X connect 2 0 19 0;
#X connect 3 0 14 0;
#X connect 3 0 21 0;
#X connect 4 0 13 0;
#X connect 6 0 7 0;
#X connect 7 0 15 0;
#X connect 8 0 34 0;
#X connect 8 0 11 0;
#X connect 9 0 35 0;
#X connect 10 0 14 0;
#X connect 10 0 21 0;
#X connect 11 0 12 0;
#X connect 13 0 8 0;
#X connect 14 0 2 0;
#X connect 15 0 9 0;
#X connect 16 0 17 0;
#X connect 17 0 18 0;
#X connect 18 0 24 0;
#X connect 19 0 4 0;
#X connect 19 1 6 0;
#X connect 19 3 38 0;
#X connect 20 0 22 0;
#X connect 21 0 20 0;
#X connect 22 0 16 0;
#X connect 22 1 39 0;
#X connect 23 0 36 0;
#X connect 24 0 29 0;
#X connect 25 0 20 1;
#X connect 25 0 23 1;
#X connect 26 0 32 0;
#X connect 26 1 31 0;
#X connect 26 2 3 0;
#X connect 26 2 30 0;
#X connect 27 0 26 0;
#X connect 27 1 28 0;
#X connect 28 0 41 0;
#X connect 28 1 40 0;
#X connect 29 0 23 0;
#X connect 37 0 2 1;
#X connect 37 0 9 1;
#X connect 37 0 8 1;
#X connect 38 0 37 0;
#X connect 39 0 25 0;
#X connect 40 0 33 0;
#X connect 40 0 10 0;
#X restore 441 167 pd pvoc5rv13;
#X connect 1 0 0 0;
#X connect 2 0 3 0;
#X connect 4 0 5 0;
#X restore 410 715 pd ev13_procs;
#X text 515 405 pvocs 1 \, 2: start from 4 and gradually to present
(2x and 3.8x dur [4-7]) video: unfreeze/delay newer tiles;
#X obj 720 1219 bng 15 250 50 0 empty empty empty 17 7 0 10 -262144
-1 -1;
#X text 512 525 tile 16 comes to present in 10s tile 12 becomes gradually
delayed;
#X text 512 616 tiles sync to present in 10s;
#N canvas 0 23 996 721 ev14_bufgrain 0;
#X obj 218 164;
#X obj 98 254 tabread \$0_evTimes;
#X msg 98 230 13;
#X obj 271 248 tabread \$0_evTimes;
#X msg 271 224 14;
#X obj 98 328 pack 0 0;
#X msg 442 261 0;
#X obj 271 322 pack 0 0;
#X msg 79 384 \; bufgrain \$2 tpmin \$1 \;;
#X msg 308 388 \; bufgrain \$2 tpmax \$1 \;;
#X msg 60 436 \; bufgrain \$2 ratemin 1 \;;
#X msg 300 436 \; bufgrain \$2 ratemin 1 \;;
#X msg 58 548 \; bufgrain \$2 azimin -8 \;;
#X msg 298 548 \; bufgrain \$2 azimax 8 \;;
#X msg 298 588 \; bufgrain \$2 rhomax 5 \;;
#X msg 58 588 \; bufgrain \$2 rhomin 0.5 \;;
#X msg 479 547 \; bufgrain \$2 azirampdur 400 \;;
#X msg 478 588 \; bufgrain \$2 rhorampdur 1200 \;;
#X msg 478 628 \; bufgrain \$2 switch 1 \;;
#X msg 478 668 \; bufgrain \$2 dbamp 100 2000 \;;
#X obj 410 224 t b b b;
#X obj 426 196 bng 15 250 50 0 empty empty empty 17 7 0 10 -262144
-1 -1;
#X text 839 219 comment;
#X msg 58 488 \; bufgrain \$2 durmin 1000 \;;
#X msg 466 318 \; bufgrain \$2 dustfreq 4 \; bufgrain \$2 dustchaos
0.02 \;;
#X msg 298 488 \; bufgrain \$2 durmax 2000 \;;
#X obj 143 36 r ev14_bufgrain;
#X connect 1 0 5 0;
#X connect 2 0 1 0;
#X connect 3 0 7 0;
#X connect 4 0 3 0;
#X connect 5 0 8 0;
#X connect 5 0 10 0;
#X connect 5 0 19 0;
#X connect 5 0 18 0;
#X connect 5 0 17 0;
#X connect 5 0 16 0;
#X connect 5 0 15 0;
#X connect 5 0 14 0;
#X connect 5 0 13 0;
#X connect 5 0 12 0;
#X connect 5 0 25 0;
#X connect 5 0 23 0;
#X connect 5 0 11 0;
#X connect 6 0 7 1;
#X connect 6 0 5 1;
#X connect 7 0 9 0;
#X connect 7 0 14 0;
#X connect 7 0 13 0;
#X connect 7 0 25 0;
#X connect 7 0 11 0;
#X connect 7 0 24 0;
#X connect 20 0 2 0;
#X connect 20 1 4 0;
#X connect 20 2 6 0;
#X connect 21 0 20 0;
#X connect 26 0 21 0;
#X restore 407 789 pd ev14_bufgrain;
#N canvas 0 23 996 721 ev15_bufgrain 0;
#X obj 218 164;
#X obj 98 254 tabread \$0_evTimes;
#X msg 98 230 13;
#X obj 271 248 tabread \$0_evTimes;
#X obj 98 328 pack 0 0;
#X msg 442 261 0;
#X obj 271 322 pack 0 0;
#X msg 79 384 \; bufgrain \$2 tpmin \$1 \;;
#X msg 308 388 \; bufgrain \$2 tpmax \$1 \;;
#X msg 60 436 \; bufgrain \$2 ratemin 1 \;;
#X msg 300 436 \; bufgrain \$2 ratemin 1 \;;
#X msg 298 588 \; bufgrain \$2 rhomax 5 \;;
#X msg 58 588 \; bufgrain \$2 rhomin 0.5 \;;
#X msg 478 588 \; bufgrain \$2 rhorampdur 1200 \;;
#X msg 478 668 \; bufgrain \$2 dbamp 100 2000 \;;
#X obj 410 224 t b b b;
#X obj 426 196 bng 15 250 50 0 empty empty empty 17 7 0 10 -262144
-1 -1;
#X text 839 219 comment;
#X msg 58 488 \; bufgrain \$2 durmin 1000 \;;
#X msg 466 318 \; bufgrain \$2 dustfreq 4 \; bufgrain \$2 dustchaos
0.02 \;;
#X msg 271 224 15;
#X msg 298 488 \; bufgrain \$2 durmax 4000 \;;
#X msg 58 548 \; bufgrain \$2 azimin -1.5 \;;
#X msg 298 548 \; bufgrain \$2 azimax 1.5 \;;
#X msg 479 547 \; bufgrain \$2 azirampdur 1200 \;;
#X obj 143 36 r ev14_bufgrain;
#X connect 1 0 4 0;
#X connect 2 0 1 0;
#X connect 3 0 6 0;
#X connect 4 0 7 0;
#X connect 4 0 14 0;
#X connect 4 0 13 0;
#X connect 4 0 24 0;
#X connect 4 0 12 0;
#X connect 4 0 11 0;
#X connect 4 0 23 0;
#X connect 4 0 21 0;
#X connect 4 0 18 0;
#X connect 4 0 10 0;
#X connect 5 0 6 1;
#X connect 5 0 4 1;
#X connect 6 0 8 0;
#X connect 6 0 19 0;
#X connect 15 0 2 0;
#X connect 15 1 20 0;
#X connect 15 2 5 0;
#X connect 16 0 15 0;
#X connect 20 0 3 0;
#X connect 25 0 16 0;
#X restore 407 819 pd ev15_bufgrain;
#X obj 73 852 bng 15 250 50 0 empty empty empty 17 7 0 10 -262144 -1
-1;
#X obj 384 854 bng 15 250 50 0 empty empty empty 17 7 0 10 -262144
-1 -1;
#X obj 91 850 ev.qlist 16 \$0_currentEvent reloadevents;
#X obj 73 882 bng 15 250 50 0 empty empty empty 17 7 0 10 -262144 -1
-1;
#X obj 384 884 bng 15 250 50 0 empty empty empty 17 7 0 10 -262144
-1 -1;
#X obj 91 880 ev.qlist 17 \$0_currentEvent reloadevents;
#X obj 73 912 bng 15 250 50 0 empty empty empty 17 7 0 10 -262144 -1
-1;
#X obj 384 914 bng 15 250 50 0 empty empty empty 17 7 0 10 -262144
-1 -1;
#X obj 91 910 ev.qlist 18 \$0_currentEvent reloadevents;
#X obj 73 942 bng 15 250 50 0 empty empty empty 17 7 0 10 -262144 -1
-1;
#X obj 384 944 bng 15 250 50 0 empty empty empty 17 7 0 10 -262144
-1 -1;
#X obj 91 940 ev.qlist 19 \$0_currentEvent reloadevents;
#X obj 73 972 bng 15 250 50 0 empty empty empty 17 7 0 10 -262144 -1
-1;
#X obj 384 974 bng 15 250 50 0 empty empty empty 17 7 0 10 -262144
-1 -1;
#X obj 91 970 ev.qlist 20 \$0_currentEvent reloadevents;
#X obj 73 1002 bng 15 250 50 0 empty empty empty 17 7 0 10 -262144
-1 -1;
#X obj 384 1004 bng 15 250 50 0 empty empty empty 17 7 0 10 -262144
-1 -1;
#X obj 91 1000 ev.qlist 21 \$0_currentEvent reloadevents;
#X obj 73 1032 bng 15 250 50 0 empty empty empty 17 7 0 10 -262144
-1 -1;
#X obj 384 1034 bng 15 250 50 0 empty empty empty 17 7 0 10 -262144
-1 -1;
#X obj 91 1030 ev.qlist 22 \$0_currentEvent reloadevents;
#X obj 73 1062 bng 15 250 50 0 empty empty empty 17 7 0 10 -262144
-1 -1;
#X obj 384 1064 bng 15 250 50 0 empty empty empty 17 7 0 10 -262144
-1 -1;
#X obj 91 1060 ev.qlist 23 \$0_currentEvent reloadevents;
#X obj 73 1092 bng 15 250 50 0 empty empty empty 17 7 0 10 -262144
-1 -1;
#X obj 384 1094 bng 15 250 50 0 empty empty empty 17 7 0 10 -262144
-1 -1;
#X obj 91 1090 ev.qlist 24 \$0_currentEvent reloadevents;
#N canvas 0 23 996 721 ev16_bufgrain 0;
#X obj 218 164;
#X obj 98 254 tabread \$0_evTimes;
#X msg 98 230 13;
#X obj 271 248 tabread \$0_evTimes;
#X obj 98 328 pack 0 0;
#X msg 442 261 0;
#X obj 271 322 pack 0 0;
#X msg 79 384 \; bufgrain \$2 tpmin \$1 \;;
#X msg 308 388 \; bufgrain \$2 tpmax \$1 \;;
#X msg 60 436 \; bufgrain \$2 ratemin 1 \;;
#X msg 300 436 \; bufgrain \$2 ratemin 1 \;;
#X msg 298 588 \; bufgrain \$2 rhomax 5 \;;
#X msg 58 588 \; bufgrain \$2 rhomin 0.5 \;;
#X msg 478 588 \; bufgrain \$2 rhorampdur 1200 \;;
#X msg 478 668 \; bufgrain \$2 dbamp 100 2000 \;;
#X obj 410 224 t b b b;
#X obj 426 196 bng 15 250 50 0 empty empty empty 17 7 0 10 -262144
-1 -1;
#X text 839 219 comment;
#X msg 58 488 \; bufgrain \$2 durmin 1000 \;;
#X msg 466 318 \; bufgrain \$2 dustfreq 4 \; bufgrain \$2 dustchaos
0.02 \;;
#X msg 298 488 \; bufgrain \$2 durmax 4000 \;;
#X msg 58 548 \; bufgrain \$2 azimin -1.5 \;;
#X msg 298 548 \; bufgrain \$2 azimax 1.5 \;;
#X msg 479 547 \; bufgrain \$2 azirampdur 1200 \;;
#X obj 143 36 r ev14_bufgrain;
#X msg 271 224 16;
#X connect 1 0 4 0;
#X connect 2 0 1 0;
#X connect 3 0 6 0;
#X connect 4 0 7 0;
#X connect 4 0 14 0;
#X connect 4 0 13 0;
#X connect 4 0 23 0;
#X connect 4 0 12 0;
#X connect 4 0 11 0;
#X connect 4 0 22 0;
#X connect 4 0 20 0;
#X connect 4 0 18 0;
#X connect 4 0 10 0;
#X connect 5 0 6 1;
#X connect 5 0 4 1;
#X connect 6 0 8 0;
#X connect 6 0 19 0;
#X connect 15 0 2 0;
#X connect 15 1 25 0;
#X connect 15 2 5 0;
#X connect 16 0 15 0;
#X connect 24 0 16 0;
#X connect 25 0 3 0;
#X restore 407 849 pd ev16_bufgrain;
#N canvas 0 23 996 721 ev22_bufgrain 0;
#X obj 218 164;
#X obj 98 254 tabread \$0_evTimes;
#X obj 98 328 pack 0 0;
#X msg 442 261 0;
#X obj 271 322 pack 0 0;
#X msg 308 388 \; bufgrain \$2 tpmax \$1 \;;
#X msg 60 436 \; bufgrain \$2 ratemin 1 \;;
#X msg 300 436 \; bufgrain \$2 ratemin 1 \;;
#X msg 58 548 \; bufgrain \$2 azimin -8 \;;
#X msg 298 548 \; bufgrain \$2 azimax 8 \;;
#X msg 298 588 \; bufgrain \$2 rhomax 5 \;;
#X msg 58 588 \; bufgrain \$2 rhomin 0.5 \;;
#X msg 479 547 \; bufgrain \$2 azirampdur 400 \;;
#X msg 478 588 \; bufgrain \$2 rhorampdur 1200 \;;
#X msg 478 628 \; bufgrain \$2 switch 1 \;;
#X obj 264 202 t b b b;
#X obj 426 196 bng 15 250 50 0 empty empty empty 17 7 0 10 -262144
-1 -1;
#X text 839 219 comment;
#X msg 58 488 \; bufgrain \$2 durmin 1000 \;;
#X msg 587 342 \; bufgrain \$2 dustfreq 4 \; bufgrain \$2 dustchaos
0.02 \;;
#X msg 298 488 \; bufgrain \$2 durmax 2000 \;;
#X msg 44 377 \; bufgrain \$2 tpmin 0 \;;
#X obj 302 267 r \$0_timerms;
#X obj 281 291 f;
#X msg 478 668 \; bufgrain \$2 dbamp 100 6000 \;;
#X obj 143 36 r ev22_bufgrain;
#X msg 98 230 0;
#X connect 1 0 2 0;
#X connect 2 0 21 0;
#X connect 2 0 6 0;
#X connect 2 0 24 0;
#X connect 2 0 14 0;
#X connect 2 0 13 0;
#X connect 2 0 12 0;
#X connect 2 0 11 0;
#X connect 2 0 10 0;
#X connect 2 0 9 0;
#X connect 2 0 8 0;
#X connect 2 0 20 0;
#X connect 2 0 18 0;
#X connect 2 0 7 0;
#X connect 3 0 4 1;
#X connect 3 0 2 1;
#X connect 4 0 5 0;
#X connect 4 0 10 0;
#X connect 4 0 9 0;
#X connect 4 0 20 0;
#X connect 4 0 7 0;
#X connect 4 0 19 0;
#X connect 15 0 26 0;
#X connect 15 1 23 0;
#X connect 15 2 3 0;
#X connect 16 0 15 0;
#X connect 22 0 23 1;
#X connect 23 0 4 0;
#X connect 25 0 16 0;
#X connect 26 0 1 0;
#X restore 409 1029 pd ev22_bufgrain;
#N canvas 0 23 996 721 ev23_bufgrain 0;
#X obj 218 164;
#X obj 98 254 tabread \$0_evTimes;
#X obj 271 248 tabread \$0_evTimes;
#X obj 98 328 pack 0 0;
#X msg 442 261 0;
#X obj 271 322 pack 0 0;
#X msg 79 384 \; bufgrain \$2 tpmin \$1 \;;
#X msg 308 388 \; bufgrain \$2 tpmax \$1 \;;
#X msg 60 436 \; bufgrain \$2 ratemin 1 \;;
#X msg 300 436 \; bufgrain \$2 ratemin 1 \;;
#X msg 298 588 \; bufgrain \$2 rhomax 5 \;;
#X msg 58 588 \; bufgrain \$2 rhomin 0.5 \;;
#X msg 478 588 \; bufgrain \$2 rhorampdur 1200 \;;
#X msg 478 668 \; bufgrain \$2 dbamp 100 2000 \;;
#X obj 410 224 t b b b;
#X obj 426 196 bng 15 250 50 0 empty empty empty 17 7 0 10 -262144
-1 -1;
#X text 839 219 comment;
#X msg 58 488 \; bufgrain \$2 durmin 1000 \;;
#X msg 298 488 \; bufgrain \$2 durmax 4000 \;;
#X msg 58 548 \; bufgrain \$2 azimin -1.5 \;;
#X msg 298 548 \; bufgrain \$2 azimax 1.5 \;;
#X msg 479 547 \; bufgrain \$2 azirampdur 1200 \;;
#X msg 98 230 22;
#X msg 271 224 23;
#X msg 466 318 \; bufgrain \$2 dustfreq 4 \; bufgrain \$2 dustchaos
0.42 \;;
#X obj 143 36 r ev23_bufgrain;
#X connect 1 0 3 0;
#X connect 2 0 5 0;
#X connect 3 0 6 0;
#X connect 3 0 13 0;
#X connect 3 0 12 0;
#X connect 3 0 21 0;
#X connect 3 0 11 0;
#X connect 3 0 10 0;
#X connect 3 0 20 0;
#X connect 3 0 18 0;
#X connect 3 0 17 0;
#X connect 3 0 9 0;
#X connect 3 0 8 0;
#X connect 4 0 5 1;
#X connect 4 0 3 1;
#X connect 5 0 7 0;
#X connect 5 0 24 0;
#X connect 14 0 22 0;
#X connect 14 1 23 0;
#X connect 14 2 4 0;
#X connect 15 0 14 0;
#X connect 22 0 1 0;
#X connect 23 0 2 0;
#X connect 25 0 15 0;
#X restore 408 1055 pd ev23_bufgrain;
#X text 512 275 pvoc 0: goes to 4 (1x dur [3-4]) \, then comes back
to present (2x dur[3 \, 4]) video: unfreeze and set delay to past moments
(video delay) resting tiles appear frozen (alpha increases to 0.9 [1s-9s
after]);
#X connect 1 0 9 0;
#X connect 2 0 10 0;
#X connect 3 0 4 0;
#X connect 4 1 13 0;
#X connect 5 0 6 0;
#X connect 6 1 14 0;
#X connect 7 0 8 0;
#X connect 8 1 15 0;
#X connect 9 1 11 0;
#X connect 10 1 12 0;
#X connect 16 0 18 0;
#X connect 18 1 17 0;
#X connect 19 0 21 0;
#X connect 21 1 20 0;
#X connect 22 0 24 0;
#X connect 24 1 23 0;
#X connect 25 0 27 0;
#X connect 27 1 26 0;
#X connect 28 0 29 0;
#X connect 30 0 31 0;
#X connect 32 0 33 0;
#X connect 34 0 35 0;
#X connect 36 0 44 0;
#X connect 37 0 45 0;
#X connect 40 0 46 0;
#X connect 42 0 47 0;
#X connect 44 1 38 0;
#X connect 45 1 39 0;
#X connect 46 1 41 0;
#X connect 47 1 43 0;
#X connect 60 0 62 0;
#X connect 62 1 61 0;
#X connect 63 0 65 0;
#X connect 65 1 64 0;
#X connect 66 0 68 0;
#X connect 68 1 67 0;
#X connect 69 0 71 0;
#X connect 71 1 70 0;
#X connect 72 0 74 0;
#X connect 74 1 73 0;
#X connect 75 0 77 0;
#X connect 77 1 76 0;
#X connect 78 0 80 0;
#X connect 80 1 79 0;
#X connect 81 0 83 0;
#X connect 83 1 82 0;
#X connect 84 0 86 0;
#X connect 86 1 85 0;
#X restore 571 174 pd events;
#X connect 1 0 36 0;
#X connect 2 0 10 0;
#X connect 5 0 6 0;
#X connect 6 0 14 0;
#X connect 6 0 22 0;
#X connect 6 0 23 0;
#X connect 6 0 1 0;
#X connect 7 0 2 0;
#X connect 8 0 7 0;
#X connect 8 0 29 0;
#X connect 9 0 5 0;
#X connect 10 0 6 1;
#X connect 11 0 13 1;
#X connect 12 0 20 0;
#X connect 13 0 17 0;
#X connect 14 0 12 0;
#X connect 14 1 13 0;
#X connect 14 2 11 0;
#X connect 17 0 18 0;
#X connect 18 0 19 0;
#X connect 20 0 21 0;
#X connect 22 0 6 1;
#X connect 24 0 29 0;
#X connect 24 0 7 0;
#X connect 25 0 29 0;
#X connect 25 0 7 0;
#X connect 26 0 27 0;
#X connect 27 0 2 0;
#X connect 29 0 1 0;
#X connect 30 0 31 0;
#X connect 32 0 31 0;
#X connect 33 0 32 0;
#X connect 35 0 34 0;
#X connect 35 1 52 1;
#X connect 35 1 63 0;
#X connect 35 2 45 0;
#X connect 36 0 28 0;
#X connect 36 1 26 0;
#X connect 36 2 11 1;
#X connect 36 3 35 0;
#X connect 36 3 37 0;
#X connect 36 3 38 0;
#X connect 39 0 34 0;
#X connect 40 0 39 0;
#X connect 44 0 46 1;
#X connect 44 0 47 0;
#X connect 44 0 52 1;
#X connect 45 0 46 0;
#X connect 45 1 51 0;
#X connect 45 1 44 0;
#X connect 46 0 42 1;
#X connect 46 0 53 0;
#X connect 46 0 68 1;
#X connect 49 0 48 0;
#X connect 50 0 56 0;
#X connect 51 0 50 0;
#X connect 52 0 42 0;
#X connect 52 0 41 0;
#X connect 54 0 52 0;
#X connect 54 0 62 0;
#X connect 54 0 64 0;
#X connect 54 0 69 0;
#X connect 56 0 49 0;
#X connect 56 1 58 0;
#X connect 56 2 57 0;
#X connect 57 0 55 0;
#X connect 58 0 59 0;
#X connect 63 0 54 0;
#X connect 65 0 72 2;
#X connect 66 0 65 0;
#X connect 68 0 72 1;
#X connect 69 0 72 0;
#X connect 69 1 68 0;
#X connect 69 2 66 0;
#X connect 71 0 34 0;
#X connect 72 0 71 0;
#X coords 0 -1 1 1 570 200 1 100 200;
#X restore 365 20 pd events;
#N canvas 480 23 1440 1012 bufgrains 0;
#X obj 50 700 cnv 8 570 65 empty empty empty 20 12 0 14 -232302 -66577
0;
#X text 695 185 1: num;
#X text 695 199 2: \$0;
#X text 695 214 3: sufixo;
#X text 695 234 4: buffer;
#X text 695 255 5: numelementos;
#X text 695 275 6: catch_tag;
#X obj 727 433 s bufgrain;
#X msg 733 377 1 tmin 3;
#X msg 743 398 1 tmax 434;
#X obj 900 554 loadbang;
#X obj 940 478 f;
#X obj 940 454 samplerate~;
#X obj 922 420 bng 15 250 50 0 empty empty empty 17 7 0 10 -262144
-1 -1;
#X obj 960 333 loadbang;
#X obj 940 512 s \$0_srate;
#X msg 900 576 type 4;
#X obj 970 488 / 1000;
#X text 1031 559 currently hardcoded to 1024;
#X obj 900 599 win_maker hann 1024 \$0hannW;
#X obj 988 356;
#X floatatom 1048 490 5 0 0 0 - - -;
#X obj 1030 512 v \$0_srate;
#X obj 6 25 tgl 15 0 empty empty empty 17 7 0 10 -262144 -1 -1 0 1
;
#X msg 196 100 dustchaos \$1 30;
#X msg 149 99 1;
#X msg 149 123 0.5;
#X msg 149 147 0;
#X obj 234 124 hsl 128 8 0 60000 0 0 empty empty empty -2 -8 0 10 -262144
-1 -1 0 1;
#X obj 234 134 hsl 128 8 0 60000 0 0 empty empty empty -2 -8 0 10 -262144
-1 -1 0 1;
#X floatatom 368 115 8 0 0 0 - - -;
#X floatatom 368 135 8 0 0 0 - - -;
#X msg 239 175 tpmax \$1;
#X msg 229 153 tpmin \$1;
#X obj 264 204 hsl 128 8 20 2000 0 0 empty empty empty -2 -8 0 10 -262144
-1 -1 0 1;
#X obj 264 214 hsl 128 8 20 2500 0 0 empty empty empty -2 -8 0 10 -262144
-1 -1 0 1;
#X floatatom 398 195 8 0 0 0 - - -;
#X floatatom 398 215 8 0 0 0 - - -;
#X msg 259 233 durmin \$1;
#X msg 269 255 durmax \$1;
#X msg 79 103 150;
#X msg 126 57 dustfreq \$1 3000;
#X msg 653 670 0.4 2;
#X msg 289 293 ratemin \$1 2000;
#X msg 299 315 ratemax \$1 2000;
#X msg 416 291 1;
#X msg 416 315 1;
#X msg 447 291 0.99;
#X msg 447 314 1.01;
#X msg 499 313 1.5;
#X msg 497 292 0.666;
#X msg 436 381 -1;
#X msg 598 381 0;
#X msg 508 421 0.2;
#X msg 548 421 0.04;
#X msg 608 421 0;
#X msg 467 381 -0.5;
#X msg 498 381 -0.2;
#X msg 538 381 -0.04;
#X msg 446 421 1;
#X msg 477 421 -0.5;
#X msg 460 471 30;
#X msg 520 471 2000;
#X msg 319 472 azirampdur \$1 100;
#X msg 470 601 30;
#X msg 530 601 2000;
#X msg 329 602 rhorampdur \$1 100;
#X msg 446 511 0;
#X msg 477 511 0.2;
#X msg 508 511 0.5;
#X msg 548 511 1;
#X msg 608 511 1.5;
#X msg 456 551 0.9;
#X msg 487 551 1;
#X msg 456 650 dbamp 0 5000;
#X msg 469 628 dbamp 100 5000;
#X msg 923 133 1 onoff \$1;
#X obj 921 113 tgl 15 0 empty empty empty 17 7 0 10 -262144 -1 -1 0
1;
#X obj 923 156 s bufgrain;
#X msg 309 403 azimin \$1 400;
#X msg 319 442 azimax \$1 400;
#X msg 319 533 rhomin \$1 400;
#X msg 329 571 rhomax \$1 400;
#X msg 79 79 100;
#X msg 79 56 8;
#X msg 518 551 1.5;
#X msg 557 551 2;
#X msg 618 551 4;
#X msg 26 24 switch \$1;
#X obj 24 638 hoa.3o.bufgrain~ 0 \$0 bufgrain \$0_flutebuff 20 bg \$0hannW
, f 59;
#X obj 54 708 tgl 15 0 empty empty empty 17 7 0 10 -262144 -1 -1 0
1;
#X floatatom 53 726 3 0 0 0 - - -;
#X floatatom 79 726 4 0 0 0 - - -;
#X text 52 743 N;
#X text 78 743 grn;
#X floatatom 124 706 5 0 0 0 - - -;
#X floatatom 124 732 5 0 0 0 - - -;
#X floatatom 272 706 5 0 0 0 - - -;
#X floatatom 272 728 5 0 0 0 - - -;
#X text 269 745 timep;
#X floatatom 325 706 5 0 0 0 - - -;
#X floatatom 325 728 5 0 0 0 - - -;
#X text 322 745 grdur;
#X floatatom 378 706 5 0 0 0 - - -;
#X floatatom 378 728 5 0 0 0 - - -;
#X text 375 745 rate;
#X floatatom 432 706 5 0 0 0 - - -;
#X floatatom 432 728 5 0 0 0 - - -;
#X text 429 744 azi;
#X floatatom 486 706 5 0 0 0 - - -;
#X floatatom 486 728 5 0 0 0 - - -;
#X text 483 744 rho;
#X floatatom 540 708 5 0 0 0 - - -;
#X text 539 726 dB (global);
#X text 161 708 dust_Fr;
#X text 162 731 dust_Chaos;
#X text 245 730 min;
#X text 245 710 max;
#X obj 50 680 cnv 15 570 20 empty empty 5_bufgrains_ambi3o 40 10 0
13 -99865 -262144 0;
#X connect 8 0 7 0;
#X connect 9 0 7 0;
#X connect 10 0 16 0;
#X connect 11 0 17 0;
#X connect 12 0 11 0;
#X connect 13 0 12 0;
#X connect 13 0 16 0;
#X connect 14 0 13 0;
#X connect 16 0 19 0;
#X connect 17 0 15 0;
#X connect 17 0 21 0;
#X connect 17 0 22 0;
#X connect 23 0 88 0;
#X connect 24 0 89 0;
#X connect 25 0 24 0;
#X connect 26 0 24 0;
#X connect 27 0 24 0;
#X connect 28 0 33 0;
#X connect 28 0 30 0;
#X connect 29 0 32 0;
#X connect 29 0 31 0;
#X connect 32 0 89 0;
#X connect 33 0 89 0;
#X connect 34 0 38 0;
#X connect 34 0 36 0;
#X connect 35 0 39 0;
#X connect 35 0 37 0;
#X connect 38 0 89 0;
#X connect 39 0 89 0;
#X connect 40 0 41 0;
#X connect 41 0 89 0;
#X connect 43 0 89 0;
#X connect 44 0 89 0;
#X connect 45 0 43 0;
#X connect 46 0 44 0;
#X connect 47 0 43 0;
#X connect 48 0 44 0;
#X connect 49 0 44 0;
#X connect 50 0 43 0;
#X connect 51 0 79 0;
#X connect 52 0 79 0;
#X connect 53 0 80 0;
#X connect 54 0 80 0;
#X connect 55 0 80 0;
#X connect 56 0 79 0;
#X connect 57 0 79 0;
#X connect 58 0 79 0;
#X connect 59 0 80 0;
#X connect 60 0 80 0;
#X connect 61 0 63 0;
#X connect 62 0 63 0;
#X connect 63 0 89 0;
#X connect 64 0 66 0;
#X connect 65 0 66 0;
#X connect 66 0 89 0;
#X connect 67 0 81 0;
#X connect 68 0 81 0;
#X connect 69 0 81 0;
#X connect 70 0 81 0;
#X connect 71 0 81 0;
#X connect 72 0 82 0;
#X connect 73 0 82 0;
#X connect 74 0 89 0;
#X connect 75 0 89 0;
#X connect 76 0 78 0;
#X connect 77 0 76 0;
#X connect 79 0 89 0;
#X connect 80 0 89 0;
#X connect 81 0 89 0;
#X connect 82 0 89 0;
#X connect 83 0 41 0;
#X connect 84 0 41 0;
#X connect 85 0 82 0;
#X connect 86 0 82 0;
#X connect 87 0 82 0;
#X connect 88 0 89 0;
#X connect 89 0 90 0;
#X connect 89 1 91 0;
#X connect 89 2 92 0;
#X connect 89 3 95 0;
#X connect 89 4 96 0;
#X connect 89 5 98 0;
#X connect 89 6 97 0;
#X connect 89 7 101 0;
#X connect 89 8 100 0;
#X connect 89 9 104 0;
#X connect 89 10 103 0;
#X connect 89 11 107 0;
#X connect 89 12 106 0;
#X connect 89 13 110 0;
#X connect 89 14 109 0;
#X connect 89 15 112 0;
#X coords 0 -1 1 1 570 85 2 50 680;
#X restore 363 438 pd bufgrains;
#N canvas 244 65 1196 805 pvocs 0;
#X msg 930 965 0;
#X obj 1055 820 random 300;
#X obj 1050 787 bng 15 250 50 0 empty empty empty 17 7 0 10 -262144
-1 -1;
#X obj 1009 865 metro;
#X obj 1055 868 t f f;
#X obj 995 827 tgl 15 0 empty empty empty 17 7 0 10 -262144 -1 -1 0
1;
#X floatatom 1130 1025 5 0 0 0 - - -;
#X obj 1055 845 + 800;
#X obj 1031 970 expr random(-50 \, 50)/100.0;
#X obj 909 1143 tgl 15 0 empty empty empty 17 7 0 10 -262144 -1 -1
0 1;
#X msg 928 1142 \; pvocs 1 switch \$1 \;;
#X msg 954 47 \; pvocs 1 time 0 0 \;;
#X msg 954 84 \; pvocs 1 time -4000 32000 \;;
#X msg 954 124 \; pvocs 1 pitch -0.5 2000 \;;
#X msg 953 164 \; pvocs 1 pitch 0.3 2000 \;;
#X obj 49 498 until;
#X msg 49 439 8;
#X obj 49 463 t f b;
#X obj 49 544 f;
#X obj 79 545 + 1;
#X msg 66 521 0;
#X obj 59 606 random 20000;
#X obj 159 630 + 21000;
#X obj 159 606 random 2000;
#X obj 49 568 t f b b;
#X obj 50 657 pack 0 0 0;
#X msg 55 682 \; pvocs \$1 time \$2 \$3 \;;
#X obj 59 630 * -1;
#X obj 264 493 until;
#X msg 264 434 8;
#X obj 264 458 t f b;
#X obj 264 539 f;
#X obj 294 540 + 1;
#X msg 281 516 0;
#X obj 264 563 t f b b;
#X obj 265 652 pack 0 0 0;
#X msg 270 677 \; pvocs \$1 time \$2 \$3 \;;
#X msg 289 601 0;
#X obj 1047 761 until;
#X msg 1014 768 8;
#X obj 1038 925 t b b f;
#X obj 984 1067 pack 0 0 0;
#X obj 960 1000 f;
#X obj 990 1001 + 1;
#X msg 977 977 0;
#X obj 1009 889 t b b b;
#X msg 945 1102 \; pvocs \$1 azi \$2 \$3 \;;
#X obj 563 509 until;
#X msg 563 450 8;
#X obj 563 474 t f b;
#X obj 563 555 f;
#X obj 593 556 + 1;
#X msg 580 532 0;
#X obj 563 579 t f b b;
#X obj 564 668 pack 0 0 0;
#X msg 588 617 0;
#X msg 569 693 \; pvocs \$1 pitch \$2 \$3 \;;
#X obj 823 498 until;
#X msg 823 439 8;
#X obj 823 463 t f b;
#X obj 823 544 f;
#X obj 853 545 + 1;
#X msg 840 521 0;
#X obj 933 596 random 2000;
#X obj 823 568 t f b b;
#X obj 824 657 pack 0 0 0;
#X msg 829 682 \; pvocs \$1 pitch \$2 \$3 \;;
#X floatatom 993 515 5 0 0 0 - - -;
#X floatatom 138 555 5 0 0 0 - - -;
#X floatatom 203 564 5 0 0 0 - - -;
#X obj 840 627 expr (random(-100 \, 101)/100.0)*$f2;
#X obj 0 0 cnv 15 570 190 empty empty empty 20 12 0 14 -170941 -66577
0;
#X floatatom 85 29 9 0 0 0 ms - -;
#X floatatom 210 29 5 0 0 0 pitch - -;
#X obj 4 29 tgl 17 0 empty empty empty 17 7 0 10 -262144 -1 -1 0 1
;
#X floatatom 24 29 4 0 0 0 - - -;
#X obj 599 25 pv_stretch_shifter.3o~ 0 \$0 \$0_flutebuff pv pvocs;
#X obj 482 33 bng 15 250 50 0 empty empty empty 17 7 0 10 -262144 -1
-1;
#X floatatom 284 29 5 0 0 0 azi - -;
#X floatatom 358 29 5 0 0 0 rho - -;
#X floatatom 438 29 5 0 0 0 dB - -;
#X floatatom 85 56 9 0 0 0 ms - -;
#X floatatom 210 56 5 0 0 0 pitch - -;
#X obj 4 56 tgl 17 0 empty empty empty 17 7 0 10 -262144 -1 -1 0 1
;
#X floatatom 24 56 4 0 0 0 - - -;
#X obj 482 60 bng 15 250 50 0 empty empty empty 17 7 0 10 -262144 -1
-1;
#X floatatom 284 56 5 0 0 0 azi - -;
#X floatatom 358 56 5 0 0 0 rho - -;
#X floatatom 438 56 5 0 0 0 dB - -;
#X obj 599 52 pv_stretch_shifter.3o~ 1 \$0 \$0_flutebuff pv pvocs;
#X floatatom 85 84 9 0 0 0 ms - -;
#X floatatom 210 84 5 0 0 0 pitch - -;
#X obj 4 84 tgl 17 0 empty empty empty 17 7 0 10 -262144 -1 -1 0 1
;
#X floatatom 24 84 4 0 0 0 - - -;
#X obj 482 88 bng 15 250 50 0 empty empty empty 17 7 0 10 -262144 -1
-1;
#X floatatom 284 84 5 0 0 0 azi - -;
#X floatatom 358 84 5 0 0 0 rho - -;
#X floatatom 438 84 5 0 0 0 dB - -;
#X obj 599 80 pv_stretch_shifter.3o~ 2 \$0 \$0_flutebuff pv pvocs;
#X floatatom 85 112 9 0 0 0 ms - -;
#X floatatom 210 112 5 0 0 0 pitch - -;
#X obj 4 112 tgl 17 0 empty empty empty 17 7 0 10 -262144 -1 -1 0 1
;
#X floatatom 24 112 4 0 0 0 - - -;
#X obj 482 116 bng 15 250 50 0 empty empty empty 17 7 0 10 -262144
-1 -1;
#X floatatom 284 112 5 0 0 0 azi - -;
#X floatatom 358 112 5 0 0 0 rho - -;
#X floatatom 438 112 5 0 0 0 dB - -;
#X obj 599 108 pv_stretch_shifter.3o~ 3 \$0 \$0_flutebuff pv pvocs
;
#X floatatom 85 139 9 0 0 0 ms - -;
#X floatatom 210 139 5 0 0 0 pitch - -;
#X obj 4 139 tgl 17 0 empty empty empty 17 7 0 10 -262144 -1 -1 0 1
;
#X floatatom 24 139 4 0 0 0 - - -;
#X obj 482 143 bng 15 250 50 0 empty empty empty 17 7 0 10 -262144
-1 -1;
#X floatatom 284 139 5 0 0 0 azi - -;
#X floatatom 358 139 5 0 0 0 rho - -;
#X floatatom 438 139 5 0 0 0 dB - -;
#X floatatom 85 167 9 0 0 0 ms - -;
#X floatatom 210 167 5 0 0 0 pitch - -;
#X obj 4 167 tgl 17 0 empty empty empty 17 7 0 10 -262144 -1 -1 0 1
;
#X floatatom 24 167 4 0 0 0 - - -;
#X obj 482 171 bng 15 250 50 0 empty empty empty 17 7 0 10 -262144
-1 -1;
#X floatatom 284 167 5 0 0 0 azi - -;
#X floatatom 358 167 5 0 0 0 rho - -;
#X floatatom 438 167 5 0 0 0 dB - -;
#X floatatom 75 196 9 0 0 0 ms - -;
#X floatatom 180 196 5 0 0 0 pitch - -;
#X obj 4 196 tgl 17 0 empty empty empty 17 7 0 10 -262144 -1 -1 0 1
;
#X floatatom 24 196 4 0 0 0 - - -;
#X obj 411 200 bng 15 250 50 0 empty empty empty 17 7 0 10 -262144
-1 -1;
#X floatatom 244 196 5 0 0 0 azi - -;
#X floatatom 307 196 5 0 0 0 rho - -;
#X floatatom 367 196 5 0 0 0 dB - -;
#X floatatom 75 226 9 0 0 0 ms - -;
#X floatatom 180 226 5 0 0 0 pitch - -;
#X obj 4 226 tgl 17 0 empty empty empty 17 7 0 10 -262144 -1 -1 0 1
;
#X floatatom 24 226 4 0 0 0 - - -;
#X obj 411 230 bng 15 250 50 0 empty empty empty 17 7 0 10 -262144
-1 -1;
#X floatatom 244 226 5 0 0 0 azi - -;
#X floatatom 307 226 5 0 0 0 rho - -;
#X floatatom 367 226 5 0 0 0 dB - -;
#X obj 599 135 pv_stretch_shifter.3o~ 4 \$0 \$0_flutebuff pv pvocs
;
#X obj 599 162 pv_stretch_shifter.3o~ 5 \$0 \$0_flutebuff pv pvocs
;
#X obj 599 192 pv_stretch_shifter.3o~ 6 \$0 \$0_flutebuff pv pvocs
;
#X obj 599 222 pv_stretch_shifter.3o~ 7 \$0 \$0_flutebuff pv pvocs
;
#X obj 0 0 cnv 15 570 20 empty empty 4_pvocs_ambi3o 40 10 0 13 -99865
-262144 0;
#X connect 1 0 7 0;
#X connect 2 0 1 0;
#X connect 3 0 45 0;
#X connect 4 0 3 1;
#X connect 4 1 40 0;
#X connect 5 0 3 0;
#X connect 7 0 4 0;
#X connect 8 0 6 0;
#X connect 8 0 41 1;
#X connect 9 0 10 0;
#X connect 15 0 18 0;
#X connect 16 0 17 0;
#X connect 17 0 15 0;
#X connect 17 1 20 0;
#X connect 18 0 19 0;
#X connect 18 0 24 0;
#X connect 19 0 18 1;
#X connect 20 0 18 1;
#X connect 21 0 27 0;
#X connect 22 0 25 2;
#X connect 23 0 22 0;
#X connect 24 0 25 0;
#X connect 24 1 21 0;
#X connect 24 2 23 0;
#X connect 25 0 26 0;
#X connect 27 0 25 1;
#X connect 28 0 31 0;
#X connect 29 0 30 0;
#X connect 30 0 28 0;
#X connect 30 1 33 0;
#X connect 31 0 32 0;
#X connect 31 0 34 0;
#X connect 32 0 31 1;
#X connect 33 0 31 1;
#X connect 34 0 35 0;
#X connect 34 2 37 0;
#X connect 35 0 36 0;
#X connect 37 0 35 2;
#X connect 37 0 35 1;
#X connect 38 0 2 0;
#X connect 39 0 38 0;
#X connect 40 0 42 0;
#X connect 40 1 8 0;
#X connect 40 2 41 2;
#X connect 41 0 46 0;
#X connect 42 0 43 0;
#X connect 42 0 41 0;
#X connect 43 0 42 1;
#X connect 44 0 42 1;
#X connect 45 1 39 0;
#X connect 45 2 44 0;
#X connect 47 0 50 0;
#X connect 48 0 49 0;
#X connect 49 0 47 0;
#X connect 49 1 52 0;
#X connect 50 0 51 0;
#X connect 50 0 53 0;
#X connect 51 0 50 1;
#X connect 52 0 50 1;
#X connect 53 0 54 0;
#X connect 53 2 55 0;
#X connect 54 0 56 0;
#X connect 55 0 54 2;
#X connect 55 0 54 1;
#X connect 57 0 60 0;
#X connect 58 0 59 0;
#X connect 59 0 57 0;
#X connect 59 1 62 0;
#X connect 60 0 61 0;
#X connect 60 0 64 0;
#X connect 61 0 60 1;
#X connect 62 0 60 1;
#X connect 63 0 65 2;
#X connect 64 0 65 0;
#X connect 64 1 70 0;
#X connect 64 2 63 0;
#X connect 65 0 66 0;
#X connect 67 0 70 1;
#X connect 68 0 21 1;
#X connect 69 0 22 1;
#X connect 70 0 65 1;
#X connect 76 0 74 0;
#X connect 76 1 75 0;
#X connect 76 2 72 0;
#X connect 76 3 73 0;
#X connect 76 4 78 0;
#X connect 76 5 79 0;
#X connect 76 6 80 0;
#X connect 76 8 77 0;
#X connect 89 0 83 0;
#X connect 89 1 84 0;
#X connect 89 2 81 0;
#X connect 89 3 82 0;
#X connect 89 4 86 0;
#X connect 89 5 87 0;
#X connect 89 6 88 0;
#X connect 89 8 85 0;
#X connect 98 0 92 0;
#X connect 98 1 93 0;
#X connect 98 2 90 0;
#X connect 98 3 91 0;
#X connect 98 4 95 0;
#X connect 98 5 96 0;
#X connect 98 6 97 0;
#X connect 98 8 94 0;
#X connect 107 0 101 0;
#X connect 107 1 102 0;
#X connect 107 2 99 0;
#X connect 107 3 100 0;
#X connect 107 4 104 0;
#X connect 107 5 105 0;
#X connect 107 6 106 0;
#X connect 107 8 103 0;
#X connect 140 0 110 0;
#X connect 140 1 111 0;
#X connect 140 2 108 0;
#X connect 140 3 109 0;
#X connect 140 4 113 0;
#X connect 140 5 114 0;
#X connect 140 6 115 0;
#X connect 140 8 112 0;
#X connect 141 0 118 0;
#X connect 141 1 119 0;
#X connect 141 2 116 0;
#X connect 141 3 117 0;
#X connect 141 4 121 0;
#X connect 141 5 122 0;
#X connect 141 6 123 0;
#X connect 141 8 120 0;
#X connect 142 0 126 0;
#X connect 142 1 127 0;
#X connect 142 2 124 0;
#X connect 142 3 125 0;
#X connect 142 4 129 0;
#X connect 142 5 130 0;
#X connect 142 6 131 0;
#X connect 142 8 128 0;
#X connect 143 0 134 0;
#X connect 143 1 135 0;
#X connect 143 2 132 0;
#X connect 143 3 133 0;
#X connect 143 4 137 0;
#X connect 143 5 138 0;
#X connect 143 6 139 0;
#X connect 143 8 136 0;
#X coords 0 -1 1 1 570 190 1 0 0;
#X restore 363 244 pd pvocs;
#X obj 10 223 cnv 15 350 300 empty empty empty 20 12 0 14 -183800 -66577
0;
#N canvas 0 23 1125 816 flutebuff 0;
#X obj 20 20 receive~ \$0_flinbus;
#X obj 19 193 tabwrite~ \$0_flutebuff;
#X obj 593 342 * 60;
#X obj 625 389 samplerate~;
#X obj 593 390 *;
#X floatatom 593 417 12 0 0 0 - - -;
#X obj 402 438 line~;
#X msg 402 382 0 \, 3.1752e+07 720000;
#X obj 625 471 pack 0 0;
#X obj 593 366 t f b f;
#X obj 650 366 * 1000;
#X text 693 472 line parameters;
#X msg 625 495 set 0 \, addcomma \, add2 \$1 \$2;
#X obj 593 446 t f f f;
#X msg 649 446;
#X obj 452 438 line;
#X obj 402 406 t a a;
#X obj 77 252 inlet;
#X msg 107 325 bang;
#X msg 117 371 stop;
#X obj 126 542 f \$0;
#X obj 122 513 bng 15 250 50 0 empty empty empty 17 7 0 10 -262144
-1 -1;
#X obj 182 311 t b b;
#X obj 506 622 outlet~;
#X obj 182 372 del 50;
#X obj 319 621 outlet;
#X msg 355 335 0;
#X obj 77 276 sel 1 0;
#X msg 125 568 \; \$1_flutebuff const 0;
#X obj 593 679 array size \$0_flutebuff;
#X obj 593 709 array define \$0_flutebuff;
#X msg 583 306 12;
#X obj 586 282 loadbang;
#X obj 476 498 sel;
#X obj 282 232 spigot;
#X obj 340 209 tgl 15 0 empty empty empty 17 7 0 10 -262144 -1 -1 1
1;
#X obj 355 36 inlet;
#X obj 374 621 outlet;
#X msg 625 525 set 0 \, addcomma \, add2 \$2 \$2;
#X msg 410 557 0 \, 720000 720000;
#X obj 374 592 line;
#X obj 432 244 sel 0;
#X msg 276 301 0;
#X connect 0 0 1 0;
#X connect 2 0 9 0;
#X connect 3 0 4 1;
#X connect 4 0 5 0;
#X connect 5 0 13 0;
#X connect 6 0 23 0;
#X connect 7 0 16 0;
#X connect 8 0 12 0;
#X connect 8 0 38 0;
#X connect 9 0 4 0;
#X connect 9 1 3 0;
#X connect 9 2 10 0;
#X connect 10 0 8 1;
#X connect 12 0 7 0;
#X connect 13 0 29 0;
#X connect 13 1 8 0;
#X connect 13 1 33 1;
#X connect 15 0 25 0;
#X connect 15 0 33 0;
#X connect 16 0 6 0;
#X connect 16 1 15 0;
#X connect 17 0 27 0;
#X connect 18 0 7 0;
#X connect 18 0 1 0;
#X connect 18 0 39 0;
#X connect 19 0 1 0;
#X connect 20 0 28 0;
#X connect 21 0 20 0;
#X connect 22 0 24 0;
#X connect 22 1 19 0;
#X connect 22 1 42 0;
#X connect 24 0 21 0;
#X connect 24 0 26 0;
#X connect 26 0 16 0;
#X connect 27 0 18 0;
#X connect 27 1 22 0;
#X connect 31 0 2 0;
#X connect 32 0 31 0;
#X connect 33 0 34 0;
#X connect 34 0 18 0;
#X connect 35 0 34 1;
#X connect 35 0 41 0;
#X connect 36 0 35 0;
#X connect 38 0 39 0;
#X connect 39 0 40 0;
#X connect 40 0 37 0;
#X connect 42 0 40 0;
#X restore 31 349 pd flutebuff;
#X obj 34 325 tgl 15 0 empty empty empty 17 7 0 10 -262144 -1 -1 0
1;
#X floatatom 31 373 12 0 0 0 - - -;
#X obj 123 372 send~ syncrec;
#X text 52 326 rec;
#X obj 133 329 tgl 15 0 empty empty empty 17 7 0 10 -262144 -1 -1 1
1;
#X obj 133 276 loadbang;
#X msg 133 300 1;
#X text 151 328 loop;
#X obj 33 300 r audiotimer;
#X floatatom 71 410 20 0 0 0 - - -;
#X obj 71 432 s \$0_timerms;
#X obj 10 223 cnv 15 350 20 empty empty 2_livebuffer_timer_and_sync
40 10 0 13 -99865 -262144 0;
#X obj 10 20 cnv 15 350 200 empty empty empty 20 12 0 14 -248746 -66577
0;
#X obj 10 20 cnv 15 350 20 empty empty 1_input 40 10 0 13 -99865 -262144
0;
#N canvas 125 121 1078 740 (subpatch) 0;
#X obj 18 24 adc~;
#X obj 664 87 vsl 25 101 0 100 0 0 empty empty empty 0 -9 0 10 -262144
-1 -1 10000 1;
#X obj 121 61 dbtorms;
#X floatatom 664 196 5 0 0 0 dB - -;
#X msg 692 171 set \$1;
#X obj 815 392 line;
#X obj 121 88 pack 0 150;
#X obj 121 112 line~;
#X obj 123 171 vu 14 120 empty empty -1 -8 0 10 -66577 -1 1 0;
#N canvas 329 161 625 417 vu 0;
#X obj 59 129 env~ 1024;
#X obj 161 111 abs~;
#X obj 161 213 snapshot~;
#X obj 161 256 rmstodb;
#X obj 161 21 inlet~;
#X obj 161 288 - 100;
#X obj 59 287 - 100;
#X obj 59 361 outlet;
#X obj 161 361 outlet;
#X text 344 307 Check the help file of env~ and slop~ for more details.
, f 31;
#X obj 239 89 expr 1000 / $f1;
#X floatatom 239 117 5 0 0 0 - - -;
#X obj 161 146 slop~ 0 0 0 0 1e+09;
#X floatatom 239 57 5 0 0 0 - - -;
#X text 359 89 convert to hz;
#X text 282 118 hz;
#X text 284 57 peak decay time in ms;
#X obj 59 171 t f b;
#X text 345 132 The env~ object is dedicated to RMS analysis. Its output
is in dB (0-100 range \, pd style) but needs to be converted to dBFS
(and we do that by simply subtracting 100)., f 31;
#X text 345 225 The slop~ object is used here for peak detection. We
need to convert the output to dB with rmstodb and also subract by 100
to convert it to dBFS., f 31;
#X msg 291 32 500;
#X obj 291 11 loadbang;
#X connect 0 0 17 0;
#X connect 1 0 12 0;
#X connect 2 0 3 0;
#X connect 3 0 5 0;
#X connect 4 0 0 0;
#X connect 4 0 1 0;
#X connect 5 0 8 0;
#X connect 6 0 7 0;
#X connect 10 0 11 0;
#X connect 11 0 12 3;
#X connect 12 0 2 0;
#X connect 13 0 10 0;
#X connect 17 0 6 0;
#X connect 17 1 2 0;
#X connect 20 0 13 0;
#X connect 21 0 20 0;
#X restore 56 299 pd vu;
#X obj 813 417 clip 0 121;
#X obj 17 430 send~ \$0_flinbus;
#X obj 59 22 inlet;
#X obj 19 110 *~;
#X obj 49 100 line~;
#X msg 50 74 \$1 50;
#X obj 483 -13 inlet;
#X text 533 -11 fake flute;
#X obj 882 259 r flinet;
#X obj 188 65 r flinet;
#X obj 759 392 r flin;
#X msg 738 279 set \$1, f 7;
#X obj 815 287 pack 0 150;
#X msg 591 302 set \$1;
#X obj 707 254 t b f;
#X msg 707 305 addcomma;
#X obj 815 310 t b l;
#X msg 833 338 add \$1 \$2;
#X msg 815 365 0 \,;
#X obj 707 232 f;
#X obj 664 232 t f b;
#X floatatom 767 170 5 0 0 0 - - -;
#X floatatom 813 446 5 0 0 0 - - -;
#X floatatom 814 473 5 0 0 0 - - -;
#X obj 767 217 line;
#X msg 767 192 \$1 10;
#N canvas 0 23 1008 609 fake_flute 0;
#X obj 114 369 readsf~;
#X obj 160 396 spigot;
#X obj 207 81 t f f;
#X obj 89 259 sel 0 1;
#X msg 92 317 0;
#X obj 220 43 inlet;
#X obj 114 423 outlet~;
#X msg 175 369 open ./sounds/density.wav \, 1;
#X connect 0 0 6 0;
#X connect 0 1 1 0;
#X connect 1 0 7 0;
#X connect 2 0 3 0;
#X connect 2 1 1 1;
#X connect 3 0 4 0;
#X connect 3 1 7 0;
#X connect 4 0 0 0;
#X connect 5 0 2 0;
#X connect 7 0 0 0;
#X restore 81 344 pd fake_flute;
#X text 637 392 fader automation;
#X obj 814 496 s \$0_flInVol;
#X obj 120 30 r \$0_flInVol;
#X obj 166 161 autofader flinet flin;
#X obj 17 268 *~;
#X connect 0 0 13 0;
#X connect 1 0 4 0;
#X connect 1 0 29 0;
#X connect 1 0 31 0;
#X connect 2 0 6 0;
#X connect 3 0 30 0;
#X connect 4 0 3 0;
#X connect 5 0 10 0;
#X connect 6 0 7 0;
#X connect 9 0 8 0;
#X connect 9 1 8 1;
#X connect 10 0 29 1;
#X connect 10 0 32 0;
#X connect 10 0 23 0;
#X connect 12 0 15 0;
#X connect 13 0 41 0;
#X connect 14 0 13 1;
#X connect 15 0 14 0;
#X connect 16 0 36 0;
#X connect 18 0 22 1;
#X connect 19 0 6 1;
#X connect 20 0 5 0;
#X connect 21 0 28 0;
#X connect 22 0 26 0;
#X connect 23 0 1 0;
#X connect 24 0 25 0;
#X connect 24 1 21 0;
#X connect 25 0 28 0;
#X connect 26 0 28 0;
#X connect 26 1 27 0;
#X connect 27 0 28 0;
#X connect 28 0 5 0;
#X connect 29 0 24 0;
#X connect 30 0 22 0;
#X connect 30 1 29 0;
#X connect 31 0 35 0;
#X connect 32 0 33 0;
#X connect 33 0 38 0;
#X connect 34 0 33 0;
#X connect 35 0 34 0;
#X connect 36 0 41 0;
#X connect 39 0 2 0;
#X connect 40 0 41 1;
#X connect 41 0 9 0;
#X connect 41 0 11 0;
#X coords 0 -1 1 1 105 135 2 120 160;
#X restore 16 78 pd;
#X obj 16 60 tgl 15 0 empty fluteinswitch empty 17 7 0 10 -262144 -1
-1 1 1;
#X text 37 57 flute in 1/0;
#X obj 124 78 tgl 15 0 empty empty empty 17 7 0 10 -262144 -1 -1 0
1;
#X text 145 75 flute file (teste);
#X obj 9 529 cnv 15 924 280 empty empty empty 20 12 0 14 -187388 -66577
0;
#X obj 9 529 cnv 15 924 20 empty empty 6_output 40 10 0 13 -99865 -262144
0;
#N canvas 0 23 739 609 livefluteloc 0;
#X obj 88 111 receive~ \$0_flinbus;
#X obj 104 304 hoa.scope~ @size 120 120 @receive "(null)" @send "(null)"
@pinned 0 @background_color 0.93 0.93 0.93 1 @border_color 0.6 0.6
0.6 1 @label_color 0 0 0 1 @ph_color 1 0 0 1 @nh_color 0 0 1 1 @fontname
"Helvetica" @fontweight "normal" @fontslant "roman" @fontsize 11 @label
"(null)" @label_inner 0 @label_side "top" @label_align "left" @label_valign
"top" @label_margins 0 0 @gain 1 @refresh 100 @order 3 @view 0;
#X obj 88 191 *~;
#X obj 231 306 vu 14 120 empty empty -1 -8 0 10 -66577 -1 1 0;
#N canvas 329 161 625 417 vu 0;
#X obj 59 129 env~ 1024;
#X obj 161 111 abs~;
#X obj 161 213 snapshot~;
#X obj 161 256 rmstodb;
#X obj 161 21 inlet~;
#X obj 161 288 - 100;
#X obj 59 287 - 100;
#X obj 59 361 outlet;
#X obj 161 361 outlet;
#X text 344 307 Check the help file of env~ and slop~ for more details.
, f 31;
#X obj 239 89 expr 1000 / $f1;
#X floatatom 239 117 5 0 0 0 - - -;
#X obj 161 146 slop~ 0 0 0 0 1e+09;
#X floatatom 239 57 5 0 0 0 - - -;
#X text 359 89 convert to hz;
#X text 282 118 hz;
#X text 284 57 peak decay time in ms;
#X obj 59 171 t f b;
#X text 345 132 The env~ object is dedicated to RMS analysis. Its output
is in dB (0-100 range \, pd style) but needs to be converted to dBFS
(and we do that by simply subtracting 100)., f 31;
#X text 345 225 The slop~ object is used here for peak detection. We
need to convert the output to dB with rmstodb and also subract by 100
to convert it to dBFS., f 31;
#X msg 291 32 500;
#X obj 291 11 loadbang;
#X connect 0 0 17 0;
#X connect 1 0 12 0;
#X connect 2 0 3 0;
#X connect 3 0 5 0;
#X connect 4 0 0 0;
#X connect 4 0 1 0;
#X connect 5 0 8 0;
#X connect 6 0 7 0;
#X connect 10 0 11 0;
#X connect 11 0 12 3;
#X connect 12 0 2 0;
#X connect 13 0 10 0;
#X connect 17 0 6 0;
#X connect 17 1 2 0;
#X connect 20 0 13 0;
#X connect 21 0 20 0;
#X restore 117 192 pd vu;
#X text 144 432 azi (1 - -1);
#X floatatom 104 429 5 0 0 0 - - -;
#X floatatom 104 450 5 0 0 0 - - -;
#X text 144 454 rho;
#X obj 87 253 hoa.3o.enc~ \$0o;
#X obj 283 305 autofader flinet fluteliveamp;
#X obj 273 250 dac~;
#X obj 159 192 r fluteliveazi;
#X obj 189 214 r fluteliverho;
#X connect 0 0 2 0;
#X connect 2 0 4 0;
#X connect 2 0 9 0;
#X connect 4 0 3 0;
#X connect 4 1 3 1;
#X connect 9 1 1 0;
#X connect 9 2 1 1;
#X connect 9 3 1 2;
#X connect 9 4 1 3;
#X connect 9 5 1 4;
#X connect 9 6 1 5;
#X connect 9 7 6 0;
#X connect 9 8 7 0;
#X connect 10 0 2 1;
#X connect 12 0 9 1;
#X connect 13 0 9 2;
#X coords 0 -1 1 1 260 180 1 100 300;
#X restore 17 624 pd livefluteloc;
#N canvas 0 43 1399 794 binauraldecoder 0;
#X obj 400 100 cnv 15 60 150 empty empty empty 20 12 0 14 -220981 -66577
0;
#X obj 149 575 hoa.2d.decoder~ 3 binaural 2 @crop 256, f 28;
#X obj 165 709 xdac~ 1:2, f 28;
#X obj 97 431 catch~ \$0o_1;
#X obj 107 453 catch~ \$0o_2;
#X obj 117 475 catch~ \$0o_3;
#X obj 127 497 catch~ \$0o_4;
#X obj 137 519 catch~ \$0o_5;
#X obj 147 540 catch~ \$0o_6;
#X obj 428 103 ui.meter~ @size 15 120 @receive "(null)" @send "(null)"
@pinned 0 @background_color 0.93 0.93 0.93 1 @border_color 0.6 0.6
0.6 1 @label_color 0 0 0 1 @cold_color 0 0.6 0 1 @tepid_color 0.6 0.73
0 1 @warm_color 0.85 0.85 0 1 @hot_color 1 0.6 0 1 @over_color 1 0
0 1 @fontname "Helvetica" @fontweight "normal" @fontslant "roman" @fontsize
11 @label "(null)" @label_inner 0 @label_side "top" @label_align "left"
@label_valign "top" @label_margins 0 0 @interval 50;
#X text 427 225 R;
#X obj 409 103 ui.meter~ @size 15 120 @receive "(null)" @send "(null)"
@pinned 0 @background_color 0.93 0.93 0.93 1 @border_color 0.6 0.6
0.6 1 @label_color 0 0 0 1 @cold_color 0 0.6 0 1 @tepid_color 0.6 0.73
0 1 @warm_color 0.85 0.85 0 1 @hot_color 1 0.6 0 1 @over_color 1 0
0 1 @fontname "Helvetica" @fontweight "normal" @fontslant "roman" @fontsize
11 @label "(null)" @label_inner 0 @label_side "top" @label_align "left"
@label_valign "top" @label_margins 0 0 @interval 50;
#X text 408 225 L;
#X obj 87 409 catch~ \$0o_0;
#X obj 236 410 catch~ bg_0;
#X obj 246 433 catch~ bg_1;
#X obj 256 455 catch~ bg_2;
#X obj 265 477 catch~ bg_3;
#X obj 276 500 catch~ bg_4;
#X obj 286 522 catch~ bg_5;
#X obj 296 542 catch~ bg_6;
#X obj 309 646 clip~ -0.999 0.999;
#X obj 309 670 hip~ 5;
#X obj 169 646 clip~ -0.999 0.999;
#X obj 169 670 hip~ 5;
#X obj 376 410 catch~ pv_0;
#X obj 386 433 catch~ pv_1;
#X obj 396 455 catch~ pv_2;
#X obj 405 477 catch~ pv_3;
#X obj 416 500 catch~ pv_4;
#X obj 426 522 catch~ pv_5;
#X obj 436 542 catch~ pv_6;
#X text 695 237 gravador!;
#X obj 461 105 autofader flinet outamp;
#X connect 1 0 11 0;
#X connect 1 0 23 0;
#X connect 1 1 9 0;
#X connect 1 1 21 0;
#X connect 3 0 1 1;
#X connect 4 0 1 2;
#X connect 5 0 1 3;
#X connect 6 0 1 4;
#X connect 7 0 1 5;
#X connect 8 0 1 6;
#X connect 13 0 1 0;
#X connect 14 0 1 0;
#X connect 15 0 1 1;
#X connect 16 0 1 2;
#X connect 17 0 1 3;
#X connect 18 0 1 4;
#X connect 19 0 1 5;
#X connect 20 0 1 6;
#X connect 21 0 22 0;
#X connect 22 0 2 1;
#X connect 23 0 24 0;
#X connect 24 0 2 0;
#X connect 25 0 1 0;
#X connect 26 0 1 1;
#X connect 27 0 1 2;
#X connect 28 0 1 3;
#X connect 29 0 1 4;
#X connect 30 0 1 5;
#X connect 31 0 1 6;
#X coords 0 -1 1 1 130 150 2 400 100;
#X restore 349 572 pd binauraldecoder;
#X obj 357 734 ui.dsp~ @size 51 51 @receive "(null)" @send "(null)"
@pinned 0 @background_color 0.93 0.93 0.93 1 @border_color 0.6 0.6
0.6 1 @label_color 0 0 0 1 @active_color 0 0.75 1 1 @fontname "Helvetica"
@fontweight "normal" @fontslant "roman" @fontsize 11 @label "(null)"
@label_inner 0 @label_side "top" @label_align "left" @label_valign
"top" @label_margins 0 0;
#X text 348 555 binaural;
#N canvas 0 23 450 300 cpu 0;
#X obj 99 30 loadbang;
#X text 122 60 <= on/off;
#X obj 99 61 tgl 15 0 empty empty empty 17 7 0 10 -262144 -1 -1 1 1
;
#X floatatom 103 125 5 0 0 0 - - -;
#X obj 49 109 dsp;
#X text 151 126 % mean-cpu-load;
#X floatatom 103 102 5 0 0 0 - - -;
#X text 144 103 % peak-cpu-load;
#X connect 0 0 2 0;
#X connect 2 0 4 0;
#X connect 4 0 3 0;
#X connect 4 1 6 0;
#X coords 0 -1 1 1 180 45 2 100 100;
#X restore 686 742 pd cpu;
#N canvas 281 36 1014 576 livespatchanger 0;
#X obj 157 195 route switch azimin azimax azirampmin azirampmax rhomin
rhomax rhorampmin rhorampmax, f 81;
#X obj 515 115 tgl 15 0 empty empty empty 17 7 0 10 -262144 -1 -1 0
1;
#N canvas 0 23 642 445 frand 0;
#X obj 198 179 f;
#X obj 238 179 f;
#X obj 198 210 expr random($f1*1000 \, $f2*1000)/1000;
#X obj 173 164 bng 15 250 50 0 empty empty empty 17 7 0 10 -262144
-1 -1;
#X floatatom 198 234 5 0 0 0 - - -;
#X floatatom 273 153 5 0 0 0 - - -;
#X floatatom 213 146 5 0 0 0 - - -;
#X obj 200 107 inlet;
#X obj 260 107 inlet;
#X obj 198 257 outlet;
#X connect 0 0 2 0;
#X connect 1 0 2 1;
#X connect 2 0 4 0;
#X connect 3 0 0 0;
#X connect 4 0 9 0;
#X connect 5 0 1 0;
#X connect 6 0 0 0;
#X connect 7 0 0 0;
#X connect 8 0 1 0;
#X restore 233 278 pd frand;
#N canvas 0 23 642 445 frand 0;
#X obj 198 179 f;
#X obj 238 179 f;
#X obj 198 210 expr random($f1*1000 \, $f2*1000)/1000;
#X obj 173 164 bng 15 250 50 0 empty empty empty 17 7 0 10 -262144
-1 -1;
#X floatatom 198 234 5 0 0 0 - - -;
#X floatatom 273 153 5 0 0 0 - - -;
#X floatatom 213 146 5 0 0 0 - - -;
#X obj 200 107 inlet;
#X obj 260 107 inlet;
#X obj 198 257 outlet;
#X connect 0 0 2 0;
#X connect 1 0 2 1;
#X connect 2 0 4 0;
#X connect 3 0 0 0;
#X connect 4 0 9 0;
#X connect 5 0 1 0;
#X connect 6 0 0 0;
#X connect 7 0 0 0;
#X connect 8 0 1 0;
#X restore 303 278 pd frand;
#X obj 132 421 metro 200;
#X obj 132 445 t b b;
#X obj 226 517 pack 0 0;
#X obj 303 332 t f f;
#X obj 226 541 s fluteliveazi;
#X obj 515 135 tgl 15 0 empty empty empty 17 7 0 10 -262144 -1 -1 0
1;
#N canvas 0 23 642 445 frand 0;
#X obj 198 179 f;
#X obj 238 179 f;
#X obj 198 210 expr random($f1*1000 \, $f2*1000)/1000;
#X obj 173 164 bng 15 250 50 0 empty empty empty 17 7 0 10 -262144
-1 -1;
#X floatatom 198 234 5 0 0 0 - - -;
#X floatatom 273 153 5 0 0 0 - - -;
#X floatatom 213 146 5 0 0 0 - - -;
#X obj 200 107 inlet;
#X obj 260 107 inlet;
#X obj 198 257 outlet;
#X connect 0 0 2 0;
#X connect 1 0 2 1;
#X connect 2 0 4 0;
#X connect 3 0 0 0;
#X connect 4 0 9 0;
#X connect 5 0 1 0;
#X connect 6 0 0 0;
#X connect 7 0 0 0;
#X connect 8 0 1 0;
#X restore 453 278 pd frand;
#N canvas 0 23 642 445 frand 0;
#X obj 198 179 f;
#X obj 238 179 f;
#X obj 198 210 expr random($f1*1000 \, $f2*1000)/1000;
#X obj 173 164 bng 15 250 50 0 empty empty empty 17 7 0 10 -262144
-1 -1;
#X floatatom 198 234 5 0 0 0 - - -;
#X floatatom 273 153 5 0 0 0 - - -;
#X floatatom 213 146 5 0 0 0 - - -;
#X obj 200 107 inlet;
#X obj 260 107 inlet;
#X obj 198 257 outlet;
#X connect 0 0 2 0;
#X connect 1 0 2 1;
#X connect 2 0 4 0;
#X connect 3 0 0 0;
#X connect 4 0 9 0;
#X connect 5 0 1 0;
#X connect 6 0 0 0;
#X connect 7 0 0 0;
#X connect 8 0 1 0;
#X restore 523 278 pd frand;
#X obj 352 421 metro 200;
#X obj 352 445 t b b;
#X obj 446 517 pack 0 0;
#X obj 523 332 t f f;
#X obj 523 302 int;
#X obj 303 302 int;
#X obj 124 276 t f f b b;
#X obj 446 541 s fluteliverho;
#X obj 157 171 r livespatchanger;
#X floatatom 583 115 5 0 0 0 azitogo - -;
#X floatatom 583 135 5 0 0 0 rhotogo - -;
#X floatatom 683 115 7 0 0 0 azirampt - -;
#X floatatom 683 135 7 0 0 0 rhorampt - -;
#X connect 0 0 18 0;
#X connect 0 1 2 0;
#X connect 0 2 2 1;
#X connect 0 3 3 0;
#X connect 0 4 3 1;
#X connect 0 5 10 0;
#X connect 0 6 10 1;
#X connect 0 7 11 0;
#X connect 0 8 11 1;
#X connect 1 0 4 0;
#X connect 2 0 6 0;
#X connect 2 0 21 0;
#X connect 3 0 17 0;
#X connect 4 0 5 0;
#X connect 5 0 2 0;
#X connect 5 1 3 0;
#X connect 6 0 8 0;
#X connect 7 0 4 1;
#X connect 7 1 6 1;
#X connect 9 0 12 0;
#X connect 10 0 14 0;
#X connect 10 0 22 0;
#X connect 11 0 16 0;
#X connect 12 0 13 0;
#X connect 13 0 10 0;
#X connect 13 1 11 0;
#X connect 14 0 19 0;
#X connect 15 0 12 1;
#X connect 15 1 14 1;
#X connect 16 0 15 0;
#X connect 16 0 24 0;
#X connect 17 0 7 0;
#X connect 17 0 23 0;
#X connect 18 0 1 0;
#X connect 18 1 9 0;
#X connect 18 2 3 0;
#X connect 18 3 11 0;
#X connect 20 0 0 0;
#X coords 0 -1 1 1 240 60 1 500 100;
#X restore 18 555 pd livespatchanger;
#N canvas 161 24 1279 854 connection 0;
#X obj 400 100 cnv 5 245 22 empty empty empty 20 12 0 14 -220729 -66577
0;
#X obj 392 195 sel 0 1;
#X msg 742 229 color #dd0000 #dd0000 #000000;
#X msg 742 259 color #00cc22 #00cc22 #000000;
#X obj 733 182 loadbang;
#X obj 404 106 tgl 11 0 empty empty 127.0.0.1\ porta:\ 3003 22 5 0
14 -3273 -3273 -1 1 1;
#X obj 38 256 r connect_to_GEMcpu;
#X obj 218 555 print;
#X obj 222 223 r toGEMcpu;
#X obj 222 295 list prepend send;
#X obj 222 319 list trim;
#X obj 222 271 slash.oscformat;
#X obj 259 247 print toGem;
#X obj 38 320 route bang connect;
#X obj 183 477 list prepend connect;
#X obj 183 501 list trim;
#X obj 319 450 print addr;
#X obj 222 380 unpack s f;
#X obj 399 450 print f;
#X msg 248 414 symbol \$1;
#X obj 515 391 makefilename %%s\ porta:\ %d;
#X msg 515 415 set \$1;
#X obj 515 469 makefilename;
#X text 537 499 comment;
#X symbolatom 537 521 25 0 0 0 - - -;
#X msg 537 544 label \$1;
#X msg 706 474 label \ ...no\ connection;
#X obj 90 180 netsend -u -b;
#X msg 99 150 disconnect;
#X msg 90 127 connect 192.168.1.4 3003;
#X text 88 106 address/port of video/Gem computer;
#X obj 20 180 r \$0nsend;
#X obj 54 13 r connect_to_GEMcpu;
#X obj 54 47 route bang;
#X obj 238 -20 r toGEMcpu;
#X obj 238 52 list prepend send;
#X obj 238 76 list trim;
#X obj 238 28 slash.oscformat;
#X obj 275 4 print toGem;
#X obj 93 211 tgl 15 0 empty empty empty 17 7 0 10 -262144 -1 -1 1
1;
#X msg 451 17 /aa a;
#X obj 408 67 print;
#X msg 200 150 connect 255.255.255.255 3003;
#X obj 28 75 print init;
#X connect 1 0 2 0;
#X connect 1 1 3 0;
#X connect 2 0 5 0;
#X connect 3 0 5 0;
#X connect 4 0 2 0;
#X connect 4 0 26 0;
#X connect 5 0 1 0;
#X connect 6 0 13 0;
#X connect 8 0 12 0;
#X connect 8 0 11 0;
#X connect 9 0 10 0;
#X connect 11 0 9 0;
#X connect 13 1 14 0;
#X connect 13 1 17 0;
#X connect 14 0 15 0;
#X connect 15 0 7 0;
#X connect 17 0 19 0;
#X connect 17 1 18 0;
#X connect 17 1 20 0;
#X connect 19 0 16 0;
#X connect 19 0 22 0;
#X connect 20 0 21 0;
#X connect 21 0 22 0;
#X connect 22 0 24 0;
#X connect 24 0 25 0;
#X connect 25 0 5 0;
#X connect 26 0 5 0;
#X connect 27 0 5 0;
#X connect 27 0 39 0;
#X connect 28 0 27 0;
#X connect 29 0 27 0;
#X connect 31 0 27 0;
#X connect 32 0 33 0;
#X connect 32 0 27 0;
#X connect 32 0 43 0;
#X connect 34 0 37 0;
#X connect 34 0 38 0;
#X connect 35 0 36 0;
#X connect 36 0 27 0;
#X connect 36 0 41 0;
#X connect 37 0 35 0;
#X connect 40 0 37 0;
#X connect 42 0 27 0;
#X coords 0 -1 1 1 245 22 2 400 100;
#X restore 642 43 pd connection;
#X obj 686 605 declare -path ./abstractions/;
#X obj 686 627 declare -lib ceammc;
#N canvas 0 23 1440 855 video_tests 0;
#X obj 1229 280 s toGEMcpu;
#X floatatom 1308 172 5 0 0 0 - - -;
#X msg 1378 159 13;
#X msg 1430 157 12;
#X msg 1281 37 0 \, 1 \, 2 \, 3 \, 4 \, 5 \, 6 \, 7 \, 8 \, 9 \, 10
\, 11 \, 12 \, 13 \, 14 \, 15 \, 16 \, 17 \, 18 \, 19 \, 20 \, 21 \,
22 \, 23 \, 24;
#X msg 1287 136 13;
#X msg 1325 139 12;
#X msg 1316 112 14;
#X msg 1386 133 14;
#X msg 1444 120 3;
#X obj 1239 450 s toGEMcpu;
#X msg 1238 413 /tile/\$1/time \$2 \$3;
#X msg 1227 126 3;
#X msg 1228 243 /tile/\$1/alpha 0 23;
#X msg 1340 197 /tile/\$1/alpha 1 34;
#X msg 1288 330 14 -1000 2000;
#X msg 1407 358 12 -4000 2320;
#X msg 1401 84 0 \, 1 \, 2 \, 3 \, 4 \, 5 \, 6 \, 7 \, 8 \, 9 \, 10
\, 11 \, 12 \, 13 \, 14 \, 15 \, 16 \, 17 \, 18 \, 19 \, 20 \, 21 \,
22 \, 23 \, 24;
#X msg 1453 489 /timer start;
#X msg 1453 459 /timer stop;
#X obj 1622 383 s toGEMcpu;
#X obj 1628 490;
#X msg 1298 370 0 -3000 8000;
#X msg 1589 526 /tile/12/freeze start timeago timetogo pastminms pastmaxms
;
#X msg 1629 566 /tile/12/freeze release timeago timetogo;
#X text 1627 333 timeago timetogo grainmin grainmax tiles;
#X text 2057 476 timeagomin;
#X text 2058 494 timeagomax;
#X text 2058 514 timetogomin;
#X text 2058 534 timetogomax;
#X msg 1758 392 /tiles/freeze/start -1000 1000 400 4000 0 3 4 7 11
17 20 23 24;
#X obj 1324 337;
#X msg 1723 447 /tiles/freeze/release -2000 -50 50 1000 0 3 4 7 11
17 20 23 24;
#X msg 1869 192 /tiles/time -20 -0 1000 3000 0 1 2 3 4 5 6 7 8 9 10
11 13 14 15 16 17 18 19 20 21 22 23 24;
#X msg 1409 250 /tile/\$1/alpha 0.2 23;
#X msg 1465 139 0 \, 1 \, 2 \, 3 \, 4 \, 5 \, 6 \, 7 \, 8 \, 9 \, 10
\, 11 \, 12 \, 13 \, 14 \, 15 \, 16 \, 17 \, 18 \, 19 \, 20 \, 21 \,
22 \, 23 \, 24;
#X msg 1502 191 6 \, 7 \, 8 \, 11 \, 12 \, 13 \, 16 \, 17 \, 18;
#X msg 1665 222 /tile/13/scale 5.1 23;
#X msg 1349 573;
#X msg 1899 305 /tiles/time -200 -0 30 300 0 1 2 3 4 5 6 7 8 9 10 11
13 14 15 16 17 18 19 20 21 22 23 24;
#X obj 1462 579;
#X msg 1248 510 /tile/12/alpha 1 10;
#X msg 1452 613 /tiles/alpha 0;
#X msg 1449 426 /tile/12/scale 5.1 100;
#X msg 1684 606 /maxscale 3.1;
#X msg 1879 252 /tiles/time -6200 -0 100 1000 0 1 2 3 4 5 6 7 8 9 10
11 13 14 15 16 17 18 19 20 21 22 23 24;
#X msg 1787 674 /tile/12/time 0 0;
#X msg 1238 480 /tiles/alpha 0.1;
#X msg 1258 540 /tile/12/alpha 0.5 10;
#X msg 1283 647 /tiles/time -4000 4000;
#X msg 1869 70 /tiles/scale 1 200 700 0 1 2 3 4 5 6 7 8 9 10 11 12
13 14 15 16 17 18 19 20 21 22 23 24;
#X msg 1872 137 /tiles/scale 1.2 100 1005 0 1 2 3 4 5 6 7 8 9 10 11
12 13 14 15 16 17 18 19 20 21 22 23 24;
#X msg 1681 744 /tiles/scale 4.2 100 1005 0 1 2 3 4 5 6 7 8 9 10 11
12 13 14 15 16 17 18 19 20 21 22 23 24;
#X msg 1197 745 /tiles/alpha/;
#X msg 127 17 /tile/12/alpha 1 10;
#X msg 125 57 /tile/12/alpha 0.4 122;
#X obj 127 318 s toGEMcpu;
#X msg 171 104 /tile/all/alpha 0 200;
#X msg 175 138 /tile/all/alpha 1 200;
#X text 275 16 alpha timetogo;
#X text 346 102 alpha timetogo;
#X text 210 188 alphaval delmin delmax rampmin rampmax list_of_tiles
;
#X msg 219 252 /tile/list/alpha 1 200 700 100 500 0 1 2 3 4 5 9 10
14 15 19 20 21 22 23 24;
#X msg 219 214 /tile/list/alpha 0 200 700 100 500 0 1 2 3 4 5 9 10
14 15 19 20 21 22 23 24;
#X obj 102 720 s toGEMcpu;
#X msg 138 422 /tile/13/time -1000 1000;
#X text 315 422 past_timepoint dur_to_reach_timepoint;
#X text 1745 487 timeago timetogo grainmin grainmax tiles;
#X text 193 460 tpoint_max_delay tpoint_min_delay mindur_to_reach maxdur_to_reach
list of tiles;
#X msg 204 506 /tile/list/time -20 -0 1000 3000 0 1 2 3 4 5 6 7 8 9
10 11 13 14 15 16 17 18 19 20 21 22 23 24;
#X msg 258 634 /tile/list/time -200 -0 30 300 0 1 2 3 4 5 6 7 8 9 10
11 13 14 15 16 17 18 19 20 21 22 23 24;
#X msg 238 581 /tile/list/time -6200 -200 100 1000 0 1 2 3 4 5 6 7
8 9 10 11 13 14 15 16 17 18 19 20 21 22 23 24;
#X obj 702 129 s toGEMcpu;
#X msg 721 81 /tile/12/scale 3.03 200;
#X msg 691 246 /tile/list/scale 1.2 100 1000 100 1005 0 1 2 3 4 5 6
7 8 9 10 11 12 13 14 15 16 17 18 19 20 21 22 23 24;
#X msg 701 306 /tile/list/scale 2.2 100 1000 100 1005 0 1 2 3 4 5 6
7 8 9 10 11 12 13 14 15 16 17 18 19 20 21 22 23 24;
#X msg 688 180 /tile/list/scale 1 100 200 10 70 0 1 2 3 4 5 6 7 8 9
10 11 12 13 14 15 16 17 18 19 20 21 22 23 24;
#X text 719 155 scaleval delmin delmax rampmin rampmax list_of_tiles
;
#X msg 945 66 /tile/all/scale 1.23 200;
#X msg 791 121 /tile/12/scale 1 400;
#X msg 945 101 /tile/all/scale 1 200;
#X obj 735 537 s toGEMcpu;
#X text 778 565 tptoinit durtogo mindurfromtp maxdurfromtp;
#X text 954 653 <bug yet... better force with time twice;
#X msg 721 752 /tile/all/freeze start -4000 4000 1000 4000;
#X msg 734 775 /tile/all/freeze release 0 1000;
#X msg 734 798 /tile/all/time -200 1000;
#X msg 796 471 /tile/list/freeze start -1000 4000 300 4000 0 1 2 3
4;
#X msg 637 374 /tile/list/freeze start -1000 1000 400 4000 0 3 4 7
11 17 20 23 24;
#X msg 824 501 /tile/list/freeze release 0 1000 0 1 2 3 4;
#X msg 734 655 /tile/0/freeze release 0 1000;
#X msg 734 678 /tile/0/time -200 1000;
#X msg 766 609 /tile/0/freeze start -10000 1000 9000 10000;
#X msg 737 585 /tile/0/freeze start -4000 4000 1000 4000;
#X msg 833 536 /tile/12/freeze release 0 1000;
#X msg 148 382 /tile/all/time 0 1000;
#X msg 232 312 /tile/list/alpha 0.6 200 700 100 500 6 7 8 11 13 16
17 18;
#X msg 228 744 /tile/list/time -4000 200 3000 5000 6 7 8 11 13 16 17
18;
#X msg 117 773 /tile/list/freeze start 0 0 500 2000 0 1 2 3 4 5 9 10
14 15 19 20 21 22 23 24 \;;
#X msg 669 418 /tile/list/freeze release -8000 5000 1 3 4 7 11 17 20
23 24;
#X msg 275 685 \; toGEMcpu /tile/list/alpha 0.8 1200 5800 300 500 0
1 2 3 4 5 6 7 8 9 10 11 12 13 14 15 17 18 19 20 21 22 23 24 \;;
#X connect 1 0 13 0;
#X connect 2 0 14 0;
#X connect 3 0 14 0;
#X connect 4 0 13 0;
#X connect 5 0 13 0;
#X connect 6 0 13 0;
#X connect 7 0 13 0;
#X connect 8 0 14 0;
#X connect 9 0 14 0;
#X connect 11 0 10 0;
#X connect 12 0 13 0;
#X connect 13 0 0 0;
#X connect 14 0 0 0;
#X connect 15 0 11 0;
#X connect 16 0 11 0;
#X connect 17 0 14 0;
#X connect 18 0 10 0;
#X connect 19 0 10 0;
#X connect 22 0 11 0;
#X connect 30 0 20 0;
#X connect 32 0 20 0;
#X connect 33 0 20 0;
#X connect 34 0 0 0;
#X connect 35 0 34 0;
#X connect 36 0 34 0;
#X connect 37 0 20 0;
#X connect 39 0 20 0;
#X connect 41 0 10 0;
#X connect 42 0 10 0;
#X connect 43 0 10 0;
#X connect 44 0 10 0;
#X connect 45 0 20 0;
#X connect 46 0 20 0;
#X connect 47 0 10 0;
#X connect 48 0 10 0;
#X connect 49 0 10 0;
#X connect 50 0 20 0;
#X connect 51 0 20 0;
#X connect 52 0 10 0;
#X connect 54 0 56 0;
#X connect 55 0 56 0;
#X connect 57 0 56 0;
#X connect 58 0 56 0;
#X connect 62 0 56 0;
#X connect 63 0 56 0;
#X connect 65 0 64 0;
#X connect 69 0 64 0;
#X connect 70 0 64 0;
#X connect 71 0 64 0;
#X connect 73 0 72 0;
#X connect 74 0 72 0;
#X connect 75 0 72 0;
#X connect 76 0 72 0;
#X connect 78 0 72 0;
#X connect 79 0 72 0;
#X connect 80 0 72 0;
#X connect 84 0 81 0;
#X connect 85 0 81 0;
#X connect 86 0 81 0;
#X connect 87 0 81 0;
#X connect 88 0 81 0;
#X connect 89 0 81 0;
#X connect 90 0 81 0;
#X connect 91 0 81 0;
#X connect 92 0 81 0;
#X connect 93 0 81 0;
#X connect 94 0 81 0;
#X connect 95 0 64 0;
#X connect 96 0 56 0;
#X connect 97 0 64 0;
#X connect 98 0 64 0;
#X connect 99 0 81 0;
#X connect 100 0 64 0;
#X restore 686 715 pd video_tests;
#X obj 686 650 declare -lib zexy;
#X obj 686 672 declare -lib spec;
#X obj 686 694 declare -lib pd_spectral_toolkit;
#N canvas 0 23 1150 885 azi_tests 0;
#X msg 101 48 0 1000;
#X msg 113 19 13.13 5000;
#X msg 176 82 1 15000;
#X msg 14 57 100 3000;
#X obj 17 80 s fluteliveamp;
#X obj 32 107 s fluteliveazi;
#X obj 63 129 s fluteliverho;
#X connect 0 0 5 0;
#X connect 1 0 5 0;
#X connect 2 0 6 0;
#X connect 3 0 4 0;
#X restore 794 715 pd azi_tests;
#X text 121 348 circular audio buffer;
#X text 221 374 sync signal;
#X text 162 433 elapsed time (ms);
#X text 584 46 GEM cpu;
#X obj 365 221 cnv 15 570 20 empty empty empty 20 12 0 14 -249661 -66577
0;
#X msg 365 221 ev -1 reset everything to start patch again;
#X connect 1 0 46 0;
#X connect 5 0 7 0;
#X connect 5 1 15 0;
#X connect 5 2 8 0;
#X connect 6 0 5 0;
#X connect 10 0 5 1;
#X connect 11 0 12 0;
#X connect 12 0 10 0;
#X connect 14 0 6 0;
#X connect 15 0 16 0;
#X connect 21 0 20 0;
#X connect 23 0 20 1;
